<?xml version="1.0" encoding="utf-8"?>
<!-- Generator: Adobe Illustrator 24.1.1, SVG Export Plug-In . SVG Version: 6.00 Build 0)  -->
<svg version="1.1" id="Layer_1" xmlns="http://www.w3.org/2000/svg" xmlns:xlink="http://www.w3.org/1999/xlink" x="0px" y="0px"
	 viewBox="0 0 24 24" style="enable-background:new 0 0 24 24;" xml:space="preserve">
<style type="text/css">
	.st0{fill:#157DC3;}
</style>
<g>
	<g>
		<path class="st0" d="M3.36,7.02l0,1.46l8.81-4.73l8.05,4.47l0.72,0.11l-8.72-5.81L9.52,3.79c0.01-0.55-0.02-1.25,0.04-1.8
			c0.04-0.37,0.17-0.63,0.5-0.77c0.28-0.12,0.28-0.12,0.28-0.44c0-0.2,0-0.2-0.19-0.2c-1.12,0-2.24,0-3.37,0c-0.12,0-0.19,0-0.24,0
			c-0.11,0-0.12,0.03-0.12,0.2c0,0.19,0,0.27,0.06,0.32C6.5,1.14,6.55,1.17,6.62,1.19l0,0C6.64,1.2,6.66,1.21,6.69,1.22
			c0.33,0.14,0.46,0.4,0.5,0.77c0.02,0.23,0.03,0.46,0.03,0.68C7.18,3.13,7.15,4.67,7.15,5.04L3.36,7.02z M7,7.39l2.29-1.12
			l2.86-1.46l7.18,3.45l-7.08-3.88L4.67,8.37L7,7.39z M12.59,15.56l-1.03,0l0,1.13l1.03,0c0.09,0,0.16-0.07,0.16-0.16v-0.81
			C12.75,15.63,12.68,15.56,12.59,15.56z M21.5,13.05c0.25-0.09,0.44-0.26,0.49-0.54c0.09-0.59-0.26-1.11-0.89-1.09
			c-0.48,0.02-0.95,0-1.43,0.01c-0.12,0-0.19-0.04-0.25-0.14c-0.34-0.58-0.7-1.15-1.03-1.74c-0.33-0.59-0.75-1.09-1.34-1.4
			c-0.46-0.24-0.95-0.35-1.46-0.34c-0.19,0-1.41,0-1.64,0c-1.75,0-3.51,0-5.26,0c-0.47,0-0.91,0.09-1.33,0.3
			C6.89,8.33,6.48,8.64,6.2,9.09c-0.44,0.72-0.87,1.44-1.29,2.17c-0.07,0.12-0.15,0.16-0.27,0.16c-0.47-0.01-0.93,0-1.4,0
			c-0.5,0-0.74,0.17-0.89,0.66c-0.1,0.35-0.01,0.78,0.37,0.92c0.26,0.1,0.52,0.19,0.78,0.27c0.13,0.04,0.16,0.09,0.09,0.21
			c-0.02,0.03-0.04,0.06-0.06,0.09c-0.14,0.24-0.29,0.47-0.41,0.73c-0.25,0.56-0.35,1.16-0.42,1.77c-0.06,0.51-0.08,1.02-0.09,1.53
			c-0.02,1.59-0.01,3.47-0.01,5.06c0,0.45,0.24,0.69,0.65,0.68c0.62,0,1.24,0,1.86,0c0.41,0,0.64-0.24,0.65-0.67
			c0-0.28,0-0.85,0-1.13c0-0.24,0-0.24,0.23-0.24c2.06,0,4.12,0,6.18,0c1.25,0,2.5,0,3.74,0c0.81,0,1.63,0,2.44,0
			c0.22,0,0.22,0,0.22,0.24c0,0.29,0.02,0.86,0,1.15c-0.03,0.39,0.26,0.67,0.64,0.66c0.61-0.02,1.22,0,1.83,0
			c0.47,0,0.68-0.22,0.68-0.7c0-0.85,0.01-1.98,0-2.82c-0.01-1.44,0.06-2.88-0.17-4.3c-0.07-0.43-0.18-0.84-0.35-1.24
			c-0.13-0.29-0.31-0.55-0.47-0.82c-0.05-0.09-0.04-0.15,0.06-0.18C21.02,13.21,21.26,13.13,21.5,13.05z M6.89,17.43
			c-0.36,0.11-0.73,0.01-1.03,0.05c-0.35,0-0.62,0.01-0.9,0C4.56,17.46,4.22,17.3,4,16.91c-0.32-0.58-0.04-1.35,0.58-1.56
			c0.23-0.08,0.46-0.08,0.69,0c0.6,0.22,1.2,0.42,1.78,0.67c0.28,0.12,0.4,0.51,0.38,0.73C7.4,17.1,7.19,17.35,6.89,17.43z
			 M14.06,16.53c0,0.81-0.66,1.47-1.47,1.47l-1.03,0l0,2.42l-1.31,0l0-6.17l2.34,0c0.81,0,1.47,0.66,1.47,1.47L14.06,16.53z
			 M5.5,13.27c-0.14,0-0.28-0.01-0.35-0.15c-0.07-0.15-0.04-0.29,0.04-0.44c0.54-0.9,1.09-1.8,1.61-2.71
			c0.31-0.54,0.73-0.92,1.32-1.09c0.13-0.04,0.26-0.05,0.39-0.05c2.43,0,4.87-0.01,7.3,0.01c0.67,0.01,1.21,0.35,1.57,0.95
			c0.45,0.74,0.89,1.49,1.33,2.24c0.16,0.27,0.34,0.52,0.45,0.81c0.08,0.21-0.04,0.42-0.26,0.43c-0.09,0.01-0.18,0-0.28,0
			C15.3,13.27,6.08,13.27,5.5,13.27z M19.89,17.34c-0.17,0.1-0.36,0.13-0.54,0.14c-0.28,0.01-0.55,0-0.83,0
			c-0.28,0-0.56,0.02-0.84,0c-0.29-0.02-0.55-0.12-0.71-0.42c-0.2-0.4-0.02-0.93,0.39-1.09c0.6-0.22,1.2-0.44,1.8-0.66
			c0.42-0.15,1,0.16,1.18,0.61C20.56,16.5,20.37,17.05,19.89,17.34z"/>
	</g>
</g>
</svg>
