<?xml version="1.0" encoding="utf-8"?>
<!-- Generator: Adobe Illustrator 24.1.1, SVG Export Plug-In . SVG Version: 6.00 Build 0)  -->
<svg version="1.1" id="Layer_1" xmlns="http://www.w3.org/2000/svg" xmlns:xlink="http://www.w3.org/1999/xlink" x="0px" y="0px"
	 viewBox="0 0 24 24" style="enable-background:new 0 0 24 24;" xml:space="preserve">
<style type="text/css">
	.st0{fill:#157DC3;}
</style>
<g>
	<g>
		<path class="st0" d="M22.3,5.5L12.1,1c-0.1,0-0.2,0-0.3,0L1.7,5.5C1.5,5.5,1.5,5.7,1.5,5.9C1.6,6,1.7,6.1,1.8,6.1v0.4h1v1
			c0,0.2,0.2,0.3,0.3,0.3h0.3v11H3.2c-0.2,0-0.3,0.2-0.3,0.3v1.4h-1v0.7h3.8c0.1-0.4,0.2-0.7,0.4-1H3.5v-0.7h2.8
			c0.2-0.3,0.4-0.6,0.5-0.8V7.9h0.3c0.2,0,0.3-0.2,0.3-0.3v-1h2v1c0,0.2,0.2,0.3,0.3,0.3h0.3v1.9c0.3-0.1,0.5-0.3,0.7-0.3V7.9h2v1.8
			c0.2,0.1,0.5,0.2,0.7,0.3V7.9H14c0.2,0,0.3-0.2,0.3-0.3v-1h2v1c0,0.2,0.2,0.3,0.3,0.3h0.3v10.7c0.5,0.2,0.8,0.6,0.9,1h2.5v0.7
			h-2.4c0,0.4-0.1,0.7-0.2,1h4.3v-0.7h-1v-1.4c0-0.2-0.2-0.3-0.3-0.3h-0.3v-11h0.3c0.2,0,0.3-0.2,0.3-0.3v-1h1V6.1
			c0.2,0,0.3-0.2,0.3-0.3C22.5,5.6,22.4,5.5,22.3,5.5z M6.2,18.9h-2v-11h2V18.9z M6.9,7.2H3.5V6.5h3.4V7.2z M13.7,7.2h-3.4V6.5h3.4
			V7.2z M19.8,18.9h-2v-11h2V18.9z M20.5,7.2h-3.4V6.5h3.4V7.2z M3.5,5.4L12,1.7l8.5,3.8H3.5z M12,18.3C12,18.3,12,18.3,12,18.3
			C12,18.3,12,18.3,12,18.3C12,18.3,12,18.3,12,18.3c0.7,0,1.2-0.2,1.6-0.7c0.8-1,0.7-2.7,0.7-2.8c-0.1-1.2-0.6-1.8-1.1-2.1
			c-0.3-0.2-0.7-0.3-1.2-0.3h0c0,0,0,0,0,0h0c-0.2,0-0.7,0-1.2,0.3c-0.5,0.3-1,0.9-1.1,2.1c0,0.2-0.2,1.9,0.7,2.8
			C10.8,18,11.3,18.2,12,18.3z M10.3,14.8C10.3,14.8,10.3,14.8,10.3,14.8c0.1-1.7,1.2-1.8,1.7-1.8h0c0,0,0,0,0,0
			c0.6,0,1.6,0.3,1.7,1.8c0,0,0,0,0,0c0,0,0.2,1.6-0.5,2.4c-0.3,0.3-0.6,0.5-1.1,0.5c0,0,0,0,0,0c0,0,0,0,0,0
			c-0.5,0-0.9-0.2-1.1-0.5C10.2,16.3,10.3,14.8,10.3,14.8z M15.5,19.2C15.5,19.2,15.5,19.2,15.5,19.2c-1-0.3-1.8-0.9-1.8-0.9
			c-0.1-0.1-0.3-0.1-0.4,0.1c-0.1,0.1-0.1,0.3,0.1,0.4c0,0,0.9,0.7,2,1c0.5,0.2,0.6,0.8,0.6,1.3c0,0,0,0,0,0.1c0,0.2,0,0.5,0,0.7
			c-0.4,0.2-1.7,0.9-3.9,0.9c-2.1,0-3.5-0.7-3.9-0.9c0-0.2-0.1-0.5,0-0.7c0,0,0,0,0-0.1c0-0.5,0.1-1.1,0.6-1.3c1.1-0.3,2-0.9,2-1
			c0.1-0.1,0.2-0.3,0.1-0.4c-0.1-0.1-0.3-0.2-0.4-0.1c0,0-0.8,0.6-1.8,0.9c0,0,0,0,0,0c-1,0.3-1,1.4-1,1.8c0,0,0,0,0,0.1
			c0,0,0,0,0,0c0,0.1,0,0.7,0.1,1c0,0.1,0.1,0.1,0.1,0.1c0.1,0,1.6,1.1,4.3,1.1c2.6,0,4.2-1,4.3-1.1c0.1,0,0.1-0.1,0.1-0.1
			c0.1-0.3,0.1-0.9,0.1-1c0,0,0,0,0,0c0,0,0,0,0-0.1C16.5,20.6,16.4,19.5,15.5,19.2z"/>
	</g>
</g>
</svg>
