<?xml version="1.0" encoding="utf-8"?>
<!-- Generator: Adobe Illustrator 24.1.1, SVG Export Plug-In . SVG Version: 6.00 Build 0)  -->
<svg version="1.1" id="Layer_1" xmlns="http://www.w3.org/2000/svg" xmlns:xlink="http://www.w3.org/1999/xlink" x="0px" y="0px"
	 viewBox="0 0 24 24" style="enable-background:new 0 0 24 24;" xml:space="preserve">
<style type="text/css">
	.st0{fill:#157DC3;}
</style>
<g>
	<g>
		<path class="st0" d="M21.6,4.7H2.4c-1.1,0-2.1,1-2.1,2.1v10.4c0,1.2,0.9,2.1,2.1,2.1h19.2c1.1,0,2.1-1,2.1-2.1V6.8
			C23.7,5.6,22.8,4.7,21.6,4.7z M21.6,18.6H2.4c-0.7,0-1.3-0.6-1.3-1.4V6.8c0-0.8,0.6-1.4,1.3-1.4h19.2C22.4,5.4,23,6,23,6.8v10.4h0
			C23,18,22.4,18.6,21.6,18.6z M6.9,6.5H2.5v3.8h4.4V6.5z M6.2,9.6H3.3V8.8H4V8.1H3.3V7.3h2.9v0.8H5.5v0.7h0.7V9.6z M9.8,15.2H2.5
			V16h7.3V15.2z M13.1,15.2h-2.5V16h2.5V15.2z M2.5,17.4h4.8v-0.7H2.5V17.4z M8,17.4h1v-0.7H8V17.4z M9.8,17.4h4v-0.7h-4V17.4z
			 M3.3,12.6H2.5v0.7h0.8V12.6z M4.4,13.3v-0.7H3.6v0.7H4.4z M5.5,13.3v-0.7H4.7v0.7H5.5z M6.5,13.3v-0.7H5.8v0.7H6.5z M8,12.6H7.3
			v0.7H8V12.6z M9.1,12.6H8.4v0.7h0.7V12.6z M10.2,12.6H9.4v0.7h0.8V12.6z M11.3,12.6h-0.7v0.7h0.7V12.6z M12.7,12.6H12v0.7h0.7
			V12.6z M13.9,12.6h-0.8v0.7h0.8V12.6z M14.2,13.3H15v-0.7h-0.8V13.3z M15.3,13.3H16v-0.7h-0.7V13.3z M17.1,13.3v-0.7h-0.7v0.7
			H17.1z M18.2,13.3v-0.7h-0.7v0.7H18.2z M18.6,13.3h0.8v-0.7h-0.8V13.3z M20.4,13.3v-0.7h-0.7v0.7H20.4z M21.5,6.6h-5.8v0.7h5.8
			V6.6z M21.5,7.7H19v0.7h2.6V7.7z M16,17.5h5.8v-2.2H16V17.5z M16.8,16h4.4v0.8h-4.4V16z"/>
	</g>
</g>
</svg>
