<?xml version="1.0" encoding="utf-8"?>
<!-- Generator: Adobe Illustrator 24.1.1, SVG Export Plug-In . SVG Version: 6.00 Build 0)  -->
<svg version="1.1" id="Layer_1" xmlns="http://www.w3.org/2000/svg" xmlns:xlink="http://www.w3.org/1999/xlink" x="0px" y="0px"
	 viewBox="0 0 24 24" style="enable-background:new 0 0 24 24;" xml:space="preserve">
<style type="text/css">
	.st0{fill:#157DC3;}
</style>
<g>
	<g>
		<path class="st0" d="M14.8,12.1c-0.2,0-0.5,0.2-0.5,0.5c0,0.2,0.2,0.5,0.5,0.5c0.2,0,0.5-0.2,0.5-0.5C15.2,12.3,15,12.1,14.8,12.1
			z M23.5,22.8L19,17.1c-0.1-0.1-0.2-0.2-0.4-0.2h-4l3.4-5.3c0.8-1.2,1.2-2.6,1.2-4c0-4-3.2-7.2-7.2-7.2c-4,0-7.2,3.2-7.2,7.2
			c0,1.4,0.4,2.8,1.2,4l3.4,5.3h-4c-0.1,0-0.3,0.1-0.4,0.2l-4.5,5.7c-0.1,0.1-0.1,0.3-0.1,0.5c0.1,0.2,0.2,0.3,0.4,0.3h22.3
			c0.2,0,0.3-0.1,0.4-0.3C23.7,23.1,23.7,23,23.5,22.8z M18.4,17.8l1.5,1.9h-2.7l-1.5-1.9H18.4z M16.1,19.8h-3.2l1.2-1.9h0.4
			L16.1,19.8z M6.8,11.1C6.8,11.1,6.8,11.1,6.8,11.1c-0.7-1.1-1.1-2.3-1.1-3.5c0-3.5,2.8-6.3,6.3-6.3c3.5,0,6.3,2.8,6.3,6.3
			c0,1.3-0.4,2.5-1.1,3.5c0,0,0,0,0,0c-0.3,0.5-5,7.9-5.3,8.3C11.5,18.5,7.4,12.1,6.8,11.1z M9.6,17.8H10l1.2,1.9H8L9.6,17.8z
			 M5.7,17.8h2.7l-1.5,1.9H4.1L5.7,17.8z M1.9,22.6l1.5-1.9h2.7l-1.5,1.9H1.9z M5.8,22.6l1.5-1.9h9.5l1.5,1.9H5.8z M19.5,22.6
			L18,20.7h2.7l1.5,1.9H19.5z M16.6,7.6c0-2.5-2-4.5-4.5-4.5c-2.5,0-4.5,2-4.5,4.5c0,2.5,2,4.5,4.5,4.5
			C14.5,12.1,16.6,10.1,16.6,7.6z M8.4,7.6c0-2,1.6-3.6,3.6-3.6c2,0,3.6,1.6,3.6,3.6c0,2-1.6,3.6-3.6,3.6C10.1,11.2,8.4,9.6,8.4,7.6
			z M12.4,17.1l1.7-2.8c0.1-0.2,0.1-0.5-0.2-0.6c-0.2-0.1-0.5-0.1-0.6,0.2l-1.7,2.8c-0.1,0.2-0.1,0.5,0.2,0.6
			C12,17.4,12.3,17.3,12.4,17.1z"/>
	</g>
</g>
</svg>
