<?xml version="1.0" encoding="utf-8"?>
<!-- Generator: Adobe Illustrator 24.1.1, SVG Export Plug-In . SVG Version: 6.00 Build 0)  -->
<svg version="1.1" id="Layer_1" xmlns="http://www.w3.org/2000/svg" xmlns:xlink="http://www.w3.org/1999/xlink" x="0px" y="0px"
	 viewBox="0 0 24 24" style="enable-background:new 0 0 24 24;" xml:space="preserve">
<style type="text/css">
	.st0{fill:#157DC3;}
</style>
<g>
	<g>
		<g>
			<path class="st0" d="M23.3,5.7L12.1,0.8c-0.1,0-0.2,0-0.3,0L0.6,5.7C0.4,5.8,0.3,6,0.4,6.2c0.1,0.1,0.2,0.2,0.3,0.2v0h1.1v1.1
				C1.9,7.8,2,8,2.3,8h0.4v12.1H2.3c-0.2,0-0.4,0.2-0.4,0.4V22H0.8v0.8h22.3V22H22v-1.5c0-0.2-0.2-0.4-0.4-0.4h-0.4V8h0.4
				C21.8,8,22,7.8,22,7.6V6.4h1.1v0c0.2,0,0.4-0.2,0.4-0.4C23.5,5.9,23.4,5.7,23.3,5.7z M10.1,7.2V6.4h3.7v0.8H10.1z M13,8v12.1
				h-2.2V8H13z M2.6,7.2V6.4h3.7v0.8H2.6z M5.6,8v12.1H3.4V8H5.6z M6.3,21.6H2.6v-0.8h3.7V21.6z M9.3,20.4V22H7.1v-1.5
				c0-0.2-0.2-0.4-0.4-0.4H6.3V8h0.4c0.2,0,0.4-0.2,0.4-0.4V6.4h2.2v1.1C9.3,7.8,9.5,8,9.7,8h0.4v12.1H9.7
				C9.5,20.1,9.3,20.2,9.3,20.4z M13.8,21.6h-3.7v-0.8h3.7V21.6z M16.8,20.4V22h-2.2v-1.5c0-0.2-0.2-0.4-0.4-0.4h-0.4V8h0.4
				c0.2,0,0.4-0.2,0.4-0.4V6.4h2.2v1.1c0,0.2,0.2,0.4,0.4,0.4h0.4v12.1h-0.4C16.9,20.1,16.8,20.2,16.8,20.4z M21.2,21.6h-3.7v-0.8
				h3.7V21.6z M18.3,20.1V8h2.2v12.1H18.3z M21.2,7.2h-3.7V6.4h3.7V7.2z M11.9,1.5l9.4,4.1H2.6L11.9,1.5z"/>
		</g>
	</g>
</g>
</svg>
