<?xml version="1.0" encoding="utf-8"?>
<!-- Generator: Adobe Illustrator 24.1.1, SVG Export Plug-In . SVG Version: 6.00 Build 0)  -->
<svg version="1.1" id="Layer_1" xmlns="http://www.w3.org/2000/svg" xmlns:xlink="http://www.w3.org/1999/xlink" x="0px" y="0px"
	 viewBox="0 0 24 24" style="enable-background:new 0 0 24 24;" xml:space="preserve">
<style type="text/css">
	.st0{fill:#157DC3;}
</style>
<path class="st0" d="M6.3,20.4v-1.3c0-0.2-0.1-0.3-0.3-0.3H5.6V8.4h0.3c0.2,0,0.3-0.1,0.3-0.3v-1h1.9v1c0,0.2,0.1,0.3,0.3,0.3h0.3
	v6.1c0.1,0,0.1,0,0.2,0h0.5V8.4h1.9v6.1H12V8.4h0.3c0.2,0,0.3-0.1,0.3-0.3v-1h1.9v1c0,0.2,0.1,0.3,0.3,0.3h0.3v6.1h0.6V8.4h1.9v6.1
	h0.6V8.4h0.3C18.9,8.4,19,8.2,19,8v-1h1V6.4H0.8v0.6h1v1c0,0.2,0.1,0.3,0.3,0.3h0.3v10.4H2.1c-0.2,0-0.3,0.1-0.3,0.3v1.3h-1V21h6.3
	v-0.6H6.3z M15.2,7.1h3.2v0.6h-3.2V7.1z M8.8,7.1H12v0.6H8.8V7.1z M2.4,7.1h3.2v0.6H2.4V7.1z M5,8.4v10.4H3.1V8.4H5z M5.6,20H2.4
	v-0.6h3.2V20z"/>
<g>
	<path class="st0" d="M21.4,22.8H8.9c-1.2,0-2.1-1-2.1-2.1v-4.5c0-1.2,1-2.1,2.1-2.1h12.5c1.2,0,2.1,1,2.1,2.1v4.5
		C23.5,21.8,22.5,22.8,21.4,22.8z M8.9,14.8c-0.8,0-1.4,0.6-1.4,1.4v4.5c0,0.8,0.6,1.4,1.4,1.4h12.5c0.8,0,1.4-0.6,1.4-1.4v-4.5
		c0-0.8-0.6-1.4-1.4-1.4H8.9z"/>
</g>
<path class="st0" d="M10.5,17.2l0.4,1.1H12L11.1,19l0.4,1.1l-0.9-0.7l-0.9,0.7L9.9,19L9,18.3h1.2L10.5,17.2z"/>
<path class="st0" d="M15.6,17.2l0.4,1.1h1.2L16.2,19l0.4,1.1l-0.9-0.7l-0.9,0.7L15,19l-0.9-0.7h1.2L15.6,17.2z"/>
<path class="st0" d="M20.7,17.2l0.4,1.1h1.2L21.3,19l0.4,1.1l-0.9-0.7l-0.9,0.7l0.4-1.1l-0.9-0.7h1.2L20.7,17.2z"/>
<path class="st0" d="M20.1,5.5l-9.6-4.2c-0.1,0-0.2,0-0.3,0L0.7,5.5C0.5,5.5,0.5,5.7,0.5,5.9C0.6,6,0.7,6.1,0.8,6.1H20
	c0.2,0,0.3-0.1,0.3-0.3C20.3,5.6,20.2,5.5,20.1,5.5z M2.4,5.4l8-3.5l8,3.5H2.4z"/>
</svg>
