<?xml version="1.0" encoding="utf-8"?>
<!-- Generator: Adobe Illustrator 24.1.1, SVG Export Plug-In . SVG Version: 6.00 Build 0)  -->
<svg version="1.1" id="Layer_1" xmlns="http://www.w3.org/2000/svg" xmlns:xlink="http://www.w3.org/1999/xlink" x="0px" y="0px"
	 viewBox="0 0 24 24" style="enable-background:new 0 0 24 24;" xml:space="preserve">
<style type="text/css">
	.st0{fill:#E8F2F9;}
	.st1{fill:#167EC4;}
</style>
<g>
	<g>
		<ellipse class="st0" cx="12" cy="12.1" rx="11.7" ry="11.7"/>
	</g>
</g>
<g>
	<path class="st1" d="M6.5,9.9L12,7l5,2.8l0.4,0.1l-5.4-3.6L10.4,7c0-0.3,0-0.8,0-1.1c0-0.2,0.1-0.4,0.3-0.5
		c0.2-0.1,0.2-0.1,0.2-0.3c0-0.1,0-0.1-0.1-0.1c-0.7,0-1.4,0-2.1,0C8.6,5,8.5,5,8.5,5C8.4,5,8.4,5,8.4,5.1c0,0.1,0,0.2,0,0.2
		c0,0,0.1,0,0.1,0.1h0c0,0,0,0,0,0c0.2,0.1,0.3,0.3,0.3,0.5c0,0.1,0,0.3,0,0.4c0,0.3,0,1.2,0,1.5L6.5,9L6.5,9.9z"/>
	<path class="st1" d="M10.2,8.6L12,7.6l4.5,2.1l-4.4-2.4L7.3,9.9l1.5-0.6L10.2,8.6z"/>
	<path class="st1" d="M12.3,14.3l-0.6,0l0,0.7h0.6c0.1,0,0.1,0,0.1-0.1L12.3,14.3C12.4,14.4,12.3,14.3,12.3,14.3z"/>
	<path class="st1" d="M17.6,11.8c-0.3,0-0.6,0-0.9,0c-0.1,0-0.1,0-0.2-0.1c-0.2-0.4-0.4-0.7-0.6-1.1c-0.2-0.4-0.5-0.7-0.8-0.9
		c-0.3-0.1-0.6-0.2-0.9-0.2c-0.1,0-0.9,0-1,0c-1.1,0-2.2,0-3.3,0C9.6,9.5,9.3,9.6,9,9.7C8.7,9.8,8.5,10,8.3,10.3
		c-0.3,0.4-0.5,0.9-0.8,1.4c0,0.1-0.1,0.1-0.2,0.1c-0.3,0-0.6,0-0.9,0c-0.3,0-0.5,0.1-0.6,0.4c-0.1,0.2,0,0.5,0.2,0.6
		c0.2,0.1,0.3,0.1,0.5,0.2c0.1,0,0.1,0.1,0.1,0.1c0,0,0,0,0,0.1c-0.1,0.1-0.2,0.3-0.3,0.5c-0.2,0.3-0.2,0.7-0.3,1.1
		c0,0.3,0,0.6-0.1,1c0,1,0,2.2,0,3.2c0,0.3,0.1,0.4,0.4,0.4c0.4,0,0.8,0,1.2,0C7.9,19.2,8,19,8,18.8c0-0.2,0-0.5,0-0.7
		c0-0.1,0-0.1,0.1-0.1c1.3,0,2.6,0,3.9,0c0.8,0,1.6,0,2.3,0c0.5,0,1,0,1.5,0c0.1,0,0.1,0,0.1,0.2c0,0.2,0,0.5,0,0.7
		c0,0.2,0.2,0.4,0.4,0.4c0.4,0,0.8,0,1.1,0c0.3,0,0.4-0.1,0.4-0.4c0-0.5,0-1.2,0-1.8c0-0.9,0-1.8-0.1-2.7c0-0.3-0.1-0.5-0.2-0.8
		c-0.1-0.2-0.2-0.3-0.3-0.5c0-0.1,0-0.1,0-0.1c0.1,0,0.3-0.1,0.4-0.1c0.2-0.1,0.3-0.2,0.3-0.3C18.2,12.1,18,11.7,17.6,11.8z
		 M8.7,15.5c-0.2,0.1-0.5,0-0.6,0c-0.2,0-0.4,0-0.6,0c-0.3,0-0.5-0.1-0.6-0.4c-0.2-0.4,0-0.8,0.4-1c0.1,0,0.3-0.1,0.4,0
		c0.4,0.1,0.7,0.3,1.1,0.4C9,14.7,9.1,15,9.1,15.1C9,15.3,8.9,15.5,8.7,15.5z M13.2,14.9c0,0.5-0.4,0.9-0.9,0.9h-0.6l0,1.5l-0.8,0
		l0-3.8l1.5,0c0.5,0,0.9,0.4,0.9,0.9L13.2,14.9z M7.9,12.9c-0.1,0-0.2,0-0.2-0.1c0-0.1,0-0.2,0-0.3c0.3-0.6,0.7-1.1,1-1.7
		c0.2-0.3,0.5-0.6,0.8-0.7c0.1,0,0.2,0,0.2,0c1.5,0,3,0,4.5,0c0.4,0,0.8,0.2,1,0.6c0.3,0.5,0.6,0.9,0.8,1.4c0.1,0.2,0.2,0.3,0.3,0.5
		c0.1,0.1,0,0.3-0.2,0.3c-0.1,0-0.1,0-0.2,0C14,12.9,8.2,12.9,7.9,12.9z M16.8,15.4c-0.1,0.1-0.2,0.1-0.3,0.1c-0.2,0-0.3,0-0.5,0
		c-0.2,0-0.4,0-0.5,0c-0.2,0-0.3-0.1-0.4-0.3c-0.1-0.3,0-0.6,0.2-0.7c0.4-0.1,0.7-0.3,1.1-0.4c0.3-0.1,0.6,0.1,0.7,0.4
		C17.2,14.9,17.1,15.3,16.8,15.4z"/>
</g>
</svg>
