<?xml version="1.0" encoding="utf-8"?>
<!-- Generator: Adobe Illustrator 24.1.1, SVG Export Plug-In . SVG Version: 6.00 Build 0)  -->
<svg version="1.1" id="Layer_1" xmlns="http://www.w3.org/2000/svg" xmlns:xlink="http://www.w3.org/1999/xlink" x="0px" y="0px"
	 viewBox="0 0 24 24" style="enable-background:new 0 0 24 24;" xml:space="preserve">
<style type="text/css">
	.st0{fill:#157DC3;}
</style>
<g>
	<g>
		<g>
			<path class="st0" d="M8.9,14.1C8.8,14.1,8.8,14.1,8.9,14.1C8.8,14,8.8,14,8.8,14c-0.1-0.1-0.3-0.2-0.4-0.1c0,0-0.1,0-0.1,0
				c0,0-0.1,0-0.1,0c0,0,0,0-0.1,0.1c0,0,0,0-0.1,0.1c0,0,0,0.1,0,0.1c0,0,0,0.1,0,0.1c0,0,0,0.1,0,0.1c0,0,0,0.1,0,0.1
				c0,0,0,0.1,0,0.1c0,0,0,0.1,0,0.1c0,0,0,0,0.1,0.1c0,0,0,0,0.1,0.1c0,0,0.1,0,0.1,0c0,0,0.1,0,0.1,0c0,0,0.1,0,0.1,0
				c0.1,0,0.2,0,0.3-0.1c0,0,0,0,0.1-0.1c0,0,0-0.1,0-0.1c0,0,0-0.1,0-0.1c0,0,0-0.1,0-0.1C8.9,14.3,8.9,14.3,8.9,14.1
				C8.9,14.2,8.9,14.2,8.9,14.1z M23.3,22.1h-0.9v-6.9c0-0.8-0.6-1.4-1.4-1.4h-0.8V9.4c0-0.8-0.6-1.4-1.4-1.4h-1.4V6.7
				c0.3-0.1,0.6-0.2,0.9-0.5C18.8,5.6,19,4.8,18.6,4l-1.3-2.5c-0.1-0.2-0.2-0.3-0.4-0.3c-0.2,0-0.3,0.1-0.4,0.3L15.3,4
				c-0.4,0.7-0.2,1.6,0.4,2.1c0.2,0.2,0.5,0.4,0.9,0.5V8h-4V6c0.3-0.1,0.6-0.2,0.9-0.5C13.9,5,14,4.1,13.7,3.4l-1.3-2.5
				c-0.1-0.2-0.2-0.3-0.4-0.3c-0.2,0-0.3,0.1-0.4,0.3l-1.3,2.5C10,4.1,10.2,5,10.7,5.5C11,5.8,11.3,5.9,11.6,6v2h-4V6.7
				c0.3-0.1,0.6-0.2,0.9-0.5C9,5.6,9.1,4.8,8.8,4L7.5,1.5C7.4,1.4,7.3,1.3,7.1,1.3S6.8,1.4,6.7,1.5L5.5,4C5.1,4.8,5.2,5.6,5.8,6.2
				C6,6.4,6.3,6.6,6.7,6.7V8H5.3C4.5,8,3.9,8.6,3.9,9.4v4.5H3.1c-0.8,0-1.4,0.6-1.4,1.4v6.9H0.8c-0.3,0-0.5,0.2-0.5,0.5
				c0,0.3,0.2,0.5,0.5,0.5h22.5c0.3,0,0.5-0.2,0.5-0.5C23.7,22.3,23.5,22.1,23.3,22.1z M16.3,5.5c-0.3-0.3-0.4-0.7-0.2-1.1l0.8-1.7
				l0.8,1.7c0.2,0.4,0.1,0.8-0.2,1.1c-0.1,0.1-0.1,0.1-0.2,0.2c-0.3,0.2-0.6,0.2-0.9,0C16.4,5.6,16.3,5.6,16.3,5.5z M11.4,4.9
				c-0.3-0.3-0.4-0.7-0.2-1.1L12,2.1l0.8,1.7c0.2,0.4,0.1,0.8-0.2,1.1C12.6,5,12.6,5,12.5,5c-0.3,0.2-0.6,0.2-0.9,0
				C11.5,5,11.4,5,11.4,4.9z M6.4,5.5C6.2,5.2,6.1,4.8,6.3,4.4l0.8-1.7L8,4.4c0.2,0.4,0.1,0.8-0.2,1.1C7.7,5.6,7.6,5.6,7.6,5.7
				c-0.3,0.2-0.6,0.2-0.9,0C6.6,5.6,6.5,5.6,6.4,5.5z M5.3,8.9h13.5c0.3,0,0.5,0.2,0.5,0.5v1.4c-0.2,0.1-0.4,0.1-0.7,0.1
				c-0.7,0-1-0.2-1.4-0.5c-0.4-0.3-0.9-0.6-1.9-0.6c-1,0-1.5,0.3-1.9,0.6c-0.4,0.3-0.7,0.5-1.4,0.5c-0.7,0-1-0.2-1.4-0.5
				c-0.4-0.3-0.9-0.6-1.9-0.6s-1.5,0.3-1.9,0.6c-0.4,0.3-0.7,0.5-1.4,0.5c-0.3,0-0.5,0-0.7-0.1V9.4h0C4.8,9.1,5,8.9,5.3,8.9z
				 M21.4,22.1H2.7v-4.4C3,17.8,3.3,18,3.6,18.2c0.4,0.3,0.9,0.6,1.9,0.6s1.5-0.3,1.9-0.6c0.4-0.3,0.7-0.5,1.4-0.5
				c0.7,0,1,0.2,1.4,0.5c0.4,0.3,0.9,0.6,1.9,0.6c1,0,1.5-0.3,1.9-0.6c0.4-0.3,0.7-0.5,1.4-0.5c0.7,0,1,0.2,1.4,0.5
				c0.4,0.3,0.9,0.6,1.9,0.6c1,0,1.5-0.3,1.9-0.6c0.3-0.2,0.5-0.4,0.9-0.4V22.1z M21.4,16.8c-0.7,0.1-1.1,0.4-1.4,0.6
				c-0.4,0.3-0.7,0.5-1.4,0.5c-0.7,0-1-0.2-1.4-0.5c-0.4-0.3-0.9-0.6-1.9-0.6c-1,0-1.5,0.3-1.9,0.6c-0.4,0.3-0.7,0.5-1.4,0.5
				c-0.7,0-1-0.2-1.4-0.5c-0.4-0.3-0.9-0.6-1.9-0.6c-1,0-1.5,0.3-1.9,0.6c-0.4,0.3-0.7,0.5-1.4,0.5c-0.7,0-1-0.2-1.4-0.5
				c-0.4-0.2-0.8-0.5-1.4-0.6v-1.6c0-0.3,0.2-0.5,0.5-0.5h3.5c0.3,0,0.5-0.2,0.5-0.5c0-0.3-0.2-0.5-0.5-0.5H4.8v-2.1
				c0.2,0,0.4,0.1,0.7,0.1c1,0,1.5-0.3,1.9-0.6c0.4-0.3,0.7-0.5,1.4-0.5c0.7,0,1,0.2,1.4,0.5c0.4,0.3,0.9,0.6,1.9,0.6
				c1,0,1.5-0.3,1.9-0.6c0.4-0.3,0.7-0.5,1.4-0.5c0.7,0,1,0.2,1.4,0.5c0.4,0.3,0.9,0.6,1.9,0.6c0.2,0,0.5,0,0.7-0.1v2.1h-9
				c-0.3,0-0.5,0.2-0.5,0.5c0,0.3,0.2,0.5,0.5,0.5h10.7c0.3,0,0.5,0.2,0.5,0.5V16.8z M4.8,20.9C4.8,20.9,4.7,20.8,4.8,20.9
				c-0.1-0.1-0.1-0.1-0.1-0.1c0,0,0,0-0.1-0.1c0,0-0.1,0-0.1,0c0,0-0.1,0-0.1,0c-0.1,0-0.3,0-0.4,0.1c0,0,0,0-0.1,0.1
				c0,0,0,0.1,0,0.1c0,0,0,0.1,0,0.1c0,0,0,0.1,0,0.1c0,0,0,0.1,0,0.1c0,0,0,0.1,0,0.1c0,0,0,0.1,0,0.1c0,0,0,0,0.1,0.1
				c0.1,0.1,0.2,0.1,0.3,0.1c0,0,0.1,0,0.1,0c0,0,0.1,0,0.1,0c0,0,0.1,0,0.1,0c0,0,0,0,0.1-0.1c0,0,0,0,0.1-0.1c0,0,0-0.1,0-0.1
				c0,0,0-0.1,0-0.1c0,0,0-0.1,0-0.1C4.8,21,4.8,21,4.8,20.9C4.8,20.9,4.8,20.9,4.8,20.9z M9.7,19.5C9.7,19.5,9.6,19.5,9.7,19.5
				c-0.1-0.1-0.1-0.1-0.1-0.1c0,0,0,0-0.1-0.1c0,0-0.1,0-0.1,0c0,0-0.1,0-0.1,0c-0.1,0-0.1,0-0.2,0c0,0-0.1,0-0.1,0c0,0-0.1,0-0.1,0
				c0,0,0,0-0.1,0.1c0,0,0,0-0.1,0.1c0,0,0,0.1,0,0.1c0,0,0,0.1,0,0.1c0,0,0,0.1,0,0.1c0,0,0,0.1,0,0.1c0,0,0,0.1,0,0.1
				c0,0,0,0.1,0,0.1c0,0,0,0,0.1,0.1c0,0,0,0,0.1,0.1c0,0,0.1,0,0.1,0c0,0,0.1,0,0.1,0c0,0,0.1,0,0.1,0c0,0,0.1,0,0.1,0
				c0,0,0.1,0,0.1,0c0,0,0.1,0,0.1,0c0,0,0,0,0.1-0.1c0,0,0,0,0.1-0.1c0,0,0-0.1,0-0.1c0,0,0-0.1,0-0.1c0,0,0-0.1,0-0.1
				C9.7,19.7,9.7,19.6,9.7,19.5C9.7,19.6,9.7,19.6,9.7,19.5z M15,20.9C14.9,20.9,14.9,20.8,15,20.9c-0.1-0.1-0.1-0.1-0.1-0.1
				c0,0,0,0-0.1-0.1c0,0-0.1,0-0.1,0c0,0-0.1,0-0.1,0c-0.1,0-0.1,0-0.2,0c0,0-0.1,0-0.1,0c0,0-0.1,0-0.1,0c0,0,0,0-0.1,0.1
				c0,0,0,0-0.1,0.1c0,0,0,0.1,0,0.1c0,0,0,0.1,0,0.1c0,0,0,0.1,0,0.1c0,0,0,0.1,0,0.1c0,0,0,0.1,0,0.1c0,0,0,0.1,0,0.1
				c0,0,0,0,0.1,0.1c0,0,0,0,0.1,0.1c0,0,0.1,0,0.1,0c0,0,0.1,0,0.1,0c0,0,0.1,0,0.1,0c0.1,0,0.2,0,0.3-0.1c0,0,0,0,0.1-0.1
				c0,0,0-0.1,0-0.1c0,0,0-0.1,0-0.1c0,0,0-0.1,0-0.1C15,21,15,21,15,20.9C15,20.9,15,20.9,15,20.9z M20.1,19.8
				C20.1,19.8,20.1,19.7,20.1,19.8c-0.1-0.1-0.1-0.1-0.1-0.1c-0.1-0.1-0.2-0.1-0.3-0.1c-0.1,0-0.2,0-0.3,0.1c0,0,0,0-0.1,0.1
				c0,0,0,0.1,0,0.1c0,0,0,0.1,0,0.1c0,0,0,0.1,0,0.1c0,0,0,0.1,0,0.1c0,0,0,0.1,0,0.1c0,0,0,0.1,0,0.1c0,0,0,0,0.1,0.1
				c0,0,0,0,0.1,0.1c0,0,0.1,0,0.1,0c0,0,0.1,0,0.1,0c0,0,0.1,0,0.1,0c0.1,0,0.2,0,0.3-0.1c0,0,0,0,0.1-0.1c0,0,0-0.1,0-0.1
				c0,0,0-0.1,0-0.1c0,0,0-0.1,0-0.1C20.2,19.9,20.2,19.9,20.1,19.8C20.2,19.9,20.1,19.8,20.1,19.8z M14.7,12.7
				C14.8,12.7,14.8,12.7,14.7,12.7c0.1,0.1,0.1,0.1,0.1,0.1c0,0,0,0,0.1,0.1c0,0,0.1,0,0.1,0c0,0,0.1,0,0.1,0c0,0,0.1,0,0.1,0
				c0,0,0.1,0,0.1,0c0,0,0.1,0,0.1,0c0,0,0.1,0,0.1,0c0,0,0,0,0.1-0.1c0,0,0,0,0.1-0.1c0,0,0-0.1,0-0.1c0,0,0-0.1,0-0.1
				c0,0,0-0.1,0-0.1c0,0,0-0.1,0-0.1c0,0,0-0.1,0-0.1c0,0,0-0.1,0-0.1c0,0,0,0-0.1-0.1c0,0,0,0-0.1-0.1c0,0-0.1,0-0.1,0
				c0,0-0.1,0-0.1,0c-0.1,0-0.1,0-0.2,0c0,0-0.1,0-0.1,0c0,0-0.1,0-0.1,0c0,0,0,0-0.1,0.1c0,0,0,0-0.1,0.1c0,0,0,0.1,0,0.1
				c0,0,0,0.1,0,0.1c0,0,0,0.1,0,0.1C14.7,12.5,14.7,12.6,14.7,12.7C14.7,12.6,14.7,12.7,14.7,12.7z M9.6,11.7
				C9.6,11.7,9.6,11.7,9.6,11.7c-0.1-0.1-0.1-0.1-0.1-0.1c0,0,0,0-0.1-0.1c0,0-0.1,0-0.1,0c0,0-0.1,0-0.1,0c-0.1,0-0.1,0-0.2,0
				c0,0-0.1,0-0.1,0c0,0-0.1,0-0.1,0c0,0,0,0-0.1,0.1c0,0,0,0-0.1,0.1c0,0,0,0.1,0,0.1c0,0,0,0.1,0,0.1c0,0,0,0.1,0,0.1
				c0,0,0,0.1,0,0.1c0,0,0,0.1,0,0.1c0,0,0,0.1,0,0.1c0,0,0,0,0.1,0.1c0,0,0,0,0.1,0.1c0,0,0.1,0,0.1,0c0,0,0.1,0,0.1,0
				c0,0,0.1,0,0.1,0c0,0,0.1,0,0.1,0c0,0,0.1,0,0.1,0c0,0,0.1,0,0.1,0c0,0,0,0,0.1-0.1c0,0,0,0,0.1-0.1c0,0,0-0.1,0-0.1
				c0,0,0-0.1,0-0.1c0,0,0-0.1,0-0.1C9.7,11.9,9.7,11.8,9.6,11.7C9.6,11.8,9.6,11.7,9.6,11.7z"/>
		</g>
	</g>
</g>
</svg>
