<?xml version="1.0" encoding="utf-8"?>
<!-- Generator: Adobe Illustrator 24.1.1, SVG Export Plug-In . SVG Version: 6.00 Build 0)  -->
<svg version="1.1" id="Layer_1" xmlns="http://www.w3.org/2000/svg" xmlns:xlink="http://www.w3.org/1999/xlink" x="0px" y="0px"
	 viewBox="0 0 24 24" style="enable-background:new 0 0 24 24;" xml:space="preserve">
<style type="text/css">
	.st0{fill:#C9F3FF;}
	.st1{fill:url(#XMLID_2_);}
	.st2{fill:#FFFFFF;}
	.st3{fill:#34343A;}
	.st4{fill:#FF5D5D;}
</style>
<g id="XMLID_1389_">
	<g id="XMLID_1420_">
		<path id="XMLID_1479_" class="st0" d="M2.8,16.5L3.5,14c0.3-1.1,1.3-1.8,2.5-1.8h3c1.5,0,2.9,0.6,3.8,1.7l2.3,2.6L2.8,16.5z"/>
		<linearGradient id="XMLID_2_" gradientUnits="userSpaceOnUse" x1="1.1116" y1="18.9276" x2="18.9345" y2="18.9276">
			<stop  offset="0" style="stop-color:#60CCEA"/>
			<stop  offset="1" style="stop-color:#157DC3"/>
		</linearGradient>
		<path id="XMLID_1478_" class="st1" d="M17.4,21.3h1.5v-1c0-2.1-1.7-3.8-3.8-3.8H2.4h0c-0.7,0-1.3,0.6-1.3,1.3v3.6h1.7H17.4z"/>
		<path id="XMLID_2721_" class="st2" d="M2.9,16.5H2.4h0c-0.7,0-1.3,0.6-1.3,1.3v0.5h0.8c0.5,0,1-0.4,1-1V16.5z"/>
		<circle id="XMLID_1477_" class="st3" cx="4.5" cy="21.3" r="1.6"/>
		<circle id="XMLID_1476_" class="st3" cx="14.8" cy="21.3" r="1.6"/>
		<path id="XMLID_1475_" class="st4" d="M16.1,16.6v1.1c0,0.5,0.4,0.9,0.9,0.9h1.6C18,17.7,17.1,17,16.1,16.6z"/>
	</g>
	<path id="XMLID_1529_" class="st4" d="M23.2,5c0-2.3-1.9-4.2-4.2-4.2S14.8,2.7,14.8,5c0,1,0.4,1.9,0.9,2.7h0l3.3,4.2l3.3-4.2h0
		C22.9,7,23.2,6,23.2,5z"/>
	<circle id="XMLID_1526_" class="st2" cx="19" cy="5" r="1.8"/>
	<g id="XMLID_1453_">
		<path id="XMLID_1465_" d="M15.3,16.1l-1.1-1.3h3.4c0.2,0,0.4-0.1,0.4-0.3c0.1-0.2,0-0.4-0.1-0.5L10,7.6h1.5c0.2,0,0.5-0.2,0.5-0.5
			c0-0.2-0.2-0.5-0.5-0.5H8.7C8.5,6.7,8.4,6.8,8.3,7c-0.1,0.2,0,0.4,0.1,0.5l7.9,6.4h-2.9l-0.2-0.3c-1-1.2-2.6-1.9-4.2-1.9H6
			c-0.7,0-1.3,0.2-1.8,0.6s-0.9,0.9-1.1,1.6l-0.7,2.2H2.4c-1,0-1.7,0.8-1.7,1.7v3.6c0,0.2,0.2,0.5,0.5,0.5h1.5c0.2,0.9,1,1.6,2,1.6
			c1,0,1.8-0.7,2-1.6h6.3c0.2,0.9,1,1.6,2,1.6s1.8-0.7,2-1.6h2.2c0.2,0,0.5-0.2,0.5-0.5v-1C19.4,18,17.6,16.2,15.3,16.1z M17.7,18.1
			H17c-0.2,0-0.4-0.2-0.4-0.4v-0.5C17,17.5,17.4,17.8,17.7,18.1z M12.5,14.2l1.6,1.9H8.6v-3.4H9C10.4,12.6,11.6,13.2,12.5,14.2z
			 M4,14.1c0.3-0.9,1.1-1.5,2-1.5h1.7v3.4H3.4L4,14.1z M2.4,17L2.4,17l0,0.3c0,0.3-0.2,0.5-0.5,0.5H1.6v0C1.6,17.3,1.9,17,2.4,17z
			 M4.5,22.5c-0.6,0-1.1-0.5-1.1-1.1c0-0.6,0.5-1.1,1.1-1.1s1.1,0.5,1.1,1.1C5.7,22,5.2,22.5,4.5,22.5z M4.5,19.3
			c-1,0-1.8,0.7-2,1.6h-1v-2.2h0.3c0.8,0,1.4-0.6,1.4-1.4V17h4.4v3.9H6.5C6.3,20,5.5,19.3,4.5,19.3z M14.8,22.5
			c-0.6,0-1.1-0.5-1.1-1.1c0-0.6,0.5-1.1,1.1-1.1c0.6,0,1.1,0.5,1.1,1.1C15.9,22,15.4,22.5,14.8,22.5z M18.5,20.9h-1.7
			c-0.2-0.9-1-1.6-2-1.6s-1.8,0.7-2,1.6H8.6V17h6.5c0.2,0,0.4,0,0.6,0v0.8c0,0.7,0.6,1.3,1.3,1.3h1.3c0.2,0.4,0.2,0.8,0.2,1.3
			L18.5,20.9L18.5,20.9z"/>
		<path id="XMLID_1486_" d="M9.9,17.7c-0.1,0-0.2,0-0.3,0.1c-0.1,0.1-0.1,0.2-0.1,0.3c0,0.1,0,0.2,0.1,0.3c0.1,0.1,0.2,0.1,0.3,0.1
			c0.1,0,0.2,0,0.3-0.1c0.1-0.1,0.1-0.2,0.1-0.3c0-0.1,0-0.2-0.1-0.3C10.1,17.7,10,17.7,9.9,17.7z"/>
		<path id="XMLID_1487_" d="M14.8,20.9c-0.1,0-0.2,0-0.3,0.1c-0.1,0.1-0.1,0.2-0.1,0.3c0,0.1,0,0.2,0.1,0.3c0.1,0.1,0.2,0.1,0.3,0.1
			c0.1,0,0.2,0,0.3-0.1c0.1-0.1,0.1-0.2,0.1-0.3c0-0.1,0-0.2-0.1-0.3C15,20.9,14.9,20.9,14.8,20.9z"/>
		<path id="XMLID_1527_" d="M4.5,20.9c-0.1,0-0.2,0-0.3,0.1c-0.1,0.1-0.1,0.2-0.1,0.3c0,0.1,0,0.2,0.1,0.3c0.1,0.1,0.2,0.1,0.3,0.1
			c0.1,0,0.2,0,0.3-0.1C4.9,21.6,5,21.5,5,21.3c0-0.1,0-0.2-0.1-0.3C4.8,20.9,4.7,20.9,4.5,20.9z"/>
		<path id="XMLID_1539_" d="M19,0.3c-2.6,0-4.7,2.1-4.7,4.7c0,1.1,0.4,2.1,1,2.9c0,0,0,0,0,0l3.3,4.2c0.1,0.1,0.2,0.2,0.4,0.2
			c0,0,0,0,0,0c0.1,0,0.3-0.1,0.4-0.2L22.6,8c0,0,0,0,0,0c0.7-0.8,1-1.9,1-2.9C23.7,2.4,21.6,0.3,19,0.3z M21.9,7.4
			C21.9,7.4,21.9,7.4,21.9,7.4L19,11.1l-2.9-3.7c0,0,0,0,0,0c-0.5-0.7-0.8-1.5-0.8-2.4c0-2.1,1.7-3.8,3.8-3.8s3.8,1.7,3.8,3.8
			C22.8,5.9,22.5,6.7,21.9,7.4z"/>
		<path id="XMLID_1549_" d="M19,2.8c-1.2,0-2.3,1-2.3,2.3s1,2.3,2.3,2.3c1.2,0,2.3-1,2.3-2.3S20.3,2.8,19,2.8z M19,6.4
			c-0.7,0-1.4-0.6-1.4-1.4s0.6-1.4,1.4-1.4s1.4,0.6,1.4,1.4S19.8,6.4,19,6.4z"/>
		<path id="XMLID_1550_" d="M13.3,7.6c0.1,0,0.2,0,0.3-0.1c0.1-0.1,0.1-0.2,0.1-0.3c0-0.1,0-0.2-0.1-0.3c-0.1-0.1-0.2-0.1-0.3-0.1
			c-0.1,0-0.2,0-0.3,0.1c-0.1,0.1-0.1,0.2-0.1,0.3c0,0.1,0,0.2,0.1,0.3C13.1,7.5,13.2,7.6,13.3,7.6z"/>
	</g>
</g>
</svg>
