<?xml version="1.0" encoding="utf-8"?>
<!-- Generator: Adobe Illustrator 24.1.1, SVG Export Plug-In . SVG Version: 6.00 Build 0)  -->
<svg version="1.1" id="Layer_1" xmlns="http://www.w3.org/2000/svg" xmlns:xlink="http://www.w3.org/1999/xlink" x="0px" y="0px"
	 viewBox="0 0 480 480" style="enable-background:new 0 0 480 480;" xml:space="preserve">
<style type="text/css">
	.st0{fill:#1D86C7;}
	.st1{fill:#FFFFFF;}
</style>
<path class="st0" d="M301.9,464.3H31.2c-8.5,0-15.5-6.9-15.5-15.5V31.2c0-8.5,6.9-15.5,15.5-15.5h270.7c8.5,0,15.5,6.9,15.5,15.5
	v417.6C317.3,457.3,310.4,464.3,301.9,464.3z"/>
<g>
	<path d="M301.9,8H93.1H62.1H31.2C18.4,8,8,18.4,8,31.2v417.6C8,461.6,18.4,472,31.2,472h270.7c12.8,0,23.2-10.4,23.2-23.2V31.2
		C325.1,18.4,314.7,8,301.9,8z M309.6,448.8c0,4.3-3.5,7.7-7.7,7.7H31.2c-4.3,0-7.7-3.5-7.7-7.7V31.2c0-4.3,3.5-7.7,7.7-7.7h15.5
		v108.3c0,8.5,6.9,15.5,15.5,15.5h7.7c8.5,0,15.5-6.9,15.5-15.5V46.7c0-4.3-3.5-7.7-7.7-7.7s-7.7,3.5-7.7,7.7v85.1h-7.7V23.5h30.9
		V124c0,4.3,3.5,7.7,7.7,7.7c4.3,0,7.7-3.5,7.7-7.7V23.5h193.3c4.3,0,7.7,3.5,7.7,7.7V448.8z"/>
	<path d="M54.4,193.6h61.9c4.3,0,7.7-3.5,7.7-7.7s-3.5-7.7-7.7-7.7H54.4c-4.3,0-7.7,3.5-7.7,7.7S50.1,193.6,54.4,193.6z"/>
	<path d="M147.2,224.5H54.4c-4.3,0-7.7,3.5-7.7,7.7s3.5,7.7,7.7,7.7h92.8c4.3,0,7.7-3.5,7.7-7.7S151.5,224.5,147.2,224.5z"/>
	<path d="M54.4,286.4h61.9c4.3,0,7.7-3.5,7.7-7.7c0-4.3-3.5-7.7-7.7-7.7H54.4c-4.3,0-7.7,3.5-7.7,7.7
		C46.7,282.9,50.1,286.4,54.4,286.4z"/>
	<path d="M147.2,317.3H54.4c-4.3,0-7.7,3.5-7.7,7.7c0,4.3,3.5,7.7,7.7,7.7h92.8c4.3,0,7.7-3.5,7.7-7.7
		C154.9,320.8,151.5,317.3,147.2,317.3z"/>
	<path d="M54.4,379.2h61.9c4.3,0,7.7-3.5,7.7-7.7c0-4.3-3.5-7.7-7.7-7.7H54.4c-4.3,0-7.7,3.5-7.7,7.7
		C46.7,375.7,50.1,379.2,54.4,379.2z"/>
	<path d="M147.2,410.1H54.4c-4.3,0-7.7,3.5-7.7,7.7c0,4.3,3.5,7.7,7.7,7.7h92.8c4.3,0,7.7-3.5,7.7-7.7
		C154.9,413.6,151.5,410.1,147.2,410.1z"/>
</g>
<g>
	<path class="st1" d="M379.2,464.3H201.3c-8.5,0-15.5-6.9-15.5-15.5V93.1c0-8.5,6.9-15.5,15.5-15.5h247.5c8.5,0,15.5,6.9,15.5,15.5
		v286.1L379.2,464.3z"/>
	<path d="M379.2,464.3v-69.6c0-8.5,6.9-15.5,15.5-15.5h69.6L379.2,464.3z"/>
</g>
<g>
	<path d="M232.3,147.2h185.6c4.3,0,7.7-3.5,7.7-7.7c0-4.3-3.5-7.7-7.7-7.7H232.3c-4.3,0-7.7,3.5-7.7,7.7
		C224.5,143.7,228,147.2,232.3,147.2z"/>
	<path d="M332.8,410.1H232.3c-4.3,0-7.7,3.5-7.7,7.7c0,4.3,3.5,7.7,7.7,7.7h100.5c4.3,0,7.7-3.5,7.7-7.7
		C340.5,413.6,337.1,410.1,332.8,410.1z"/>
	<path d="M417.9,224.5H356c-4.3,0-7.7,3.5-7.7,7.7s3.5,7.7,7.7,7.7h61.9c4.3,0,7.7-3.5,7.7-7.7S422.1,224.5,417.9,224.5z"/>
	<path d="M232.3,240h92.8c4.3,0,7.7-3.5,7.7-7.7s-3.5-7.7-7.7-7.7h-92.8c-4.3,0-7.7,3.5-7.7,7.7S228,240,232.3,240z"/>
	<path d="M232.3,286.4h61.9c4.3,0,7.7-3.5,7.7-7.7c0-4.3-3.5-7.7-7.7-7.7h-61.9c-4.3,0-7.7,3.5-7.7,7.7
		C224.5,282.9,228,286.4,232.3,286.4z"/>
	<path d="M417.9,270.9h-92.8c-4.3,0-7.7,3.5-7.7,7.7c0,4.3,3.5,7.7,7.7,7.7h92.8c4.3,0,7.7-3.5,7.7-7.7
		C425.6,274.4,422.1,270.9,417.9,270.9z"/>
	<path d="M348.3,363.7h-116c-4.3,0-7.7,3.5-7.7,7.7c0,4.3,3.5,7.7,7.7,7.7h116c4.3,0,7.7-3.5,7.7-7.7
		C356,367.2,352.5,363.7,348.3,363.7z"/>
	<path d="M232.3,193.6h61.9c4.3,0,7.7-3.5,7.7-7.7s-3.5-7.7-7.7-7.7h-61.9c-4.3,0-7.7,3.5-7.7,7.7S228,193.6,232.3,193.6z"/>
	<path d="M417.9,178.1h-92.8c-4.3,0-7.7,3.5-7.7,7.7s3.5,7.7,7.7,7.7h92.8c4.3,0,7.7-3.5,7.7-7.7S422.1,178.1,417.9,178.1z"/>
	<path d="M417.9,317.3H356c-4.3,0-7.7,3.5-7.7,7.7c0,4.3,3.5,7.7,7.7,7.7h61.9c4.3,0,7.7-3.5,7.7-7.7
		C425.6,320.8,422.1,317.3,417.9,317.3z"/>
	<path d="M232.3,332.8h92.8c4.3,0,7.7-3.5,7.7-7.7c0-4.3-3.5-7.7-7.7-7.7h-92.8c-4.3,0-7.7,3.5-7.7,7.7
		C224.5,329.3,228,332.8,232.3,332.8z"/>
	<path d="M471.9,379.7c0-0.2,0.1-0.3,0.1-0.5V93.1c0-12.8-10.4-23.2-23.2-23.2H201.3c-12.8,0-23.2,10.4-23.2,23.2v355.7
		c0,12.8,10.4,23.2,23.2,23.2h177.9c1,0,2-0.2,2.9-0.6s1.8-1,2.5-1.7l85.1-85.1c0.7-0.7,1.1-1.4,1.5-2.3c0.1-0.2,0.2-0.5,0.3-0.7
		C471.7,381,471.9,380.4,471.9,379.7z M193.6,448.8V93.1c0-4.3,3.5-7.7,7.7-7.7h247.5c4.3,0,7.7,3.5,7.7,7.7v278.4h-61.9
		c-12.8,0-23.2,10.4-23.2,23.2v61.9H201.3C197.1,456.5,193.6,453.1,193.6,448.8z M386.9,445.6v-50.9c0-4.3,3.5-7.7,7.7-7.7h50.9
		L386.9,445.6z"/>
</g>
</svg>
