<?xml version="1.0" encoding="utf-8"?>
<!-- Generator: Adobe Illustrator 24.1.1, SVG Export Plug-In . SVG Version: 6.00 Build 0)  -->
<svg version="1.1" id="Layer_1" xmlns="http://www.w3.org/2000/svg" xmlns:xlink="http://www.w3.org/1999/xlink" x="0px" y="0px"
	 viewBox="0 0 24 24" style="enable-background:new 0 0 24 24;" xml:space="preserve">
<style type="text/css">
	.st0{fill:#157DC3;}
</style>
<g>
	<g>
		<path class="st0" d="M23.47,9.38c0-0.03-0.01-0.09-0.02-0.12c-0.04-0.13-0.11-0.24-0.23-0.33l-3.29-2.28V4.21
			c0-0.32-0.26-0.59-0.59-0.59h-3.78l-3.22-2.24c-0.2-0.14-0.47-0.14-0.67,0L8.43,3.62H4.66c-0.32,0-0.59,0.26-0.59,0.59v2.42
			L0.77,8.91C0.6,9.02,0.51,9.2,0.51,9.38c0,0,0,0.01,0,0.01l0.02,12.74c0,0.16,0.06,0.31,0.17,0.42c0.11,0.11,0.26,0.17,0.42,0.17
			c0,0,0,0,0,0l21.78-0.03c0.32,0,0.59-0.26,0.59-0.59L23.47,9.38z M19.93,8.09l1.88,1.31l-1.88,1.31V8.09z M12,2.58l1.49,1.04h-3
			L12,2.58z M5.25,4.79h13.51v6.72l-4.53,3.15l-1.85-1.43c0,0-0.01,0-0.01-0.01c-0.21-0.15-0.5-0.16-0.71,0.01l-1.86,1.44
			l-4.54-3.13V4.79z M4.07,8.05v2.67L2.13,9.39L4.07,8.05z M1.69,10.51l7.12,4.92L1.7,20.94L1.69,10.51z M2.84,21.55l9.17-7.11
			l9.14,7.08L2.84,21.55z M15.19,15.42l7.1-4.93l0.01,10.45L15.19,15.42z M8.02,8.32h7.97c0.32,0,0.59-0.26,0.59-0.59
			c0-0.32-0.26-0.59-0.59-0.59H8.02c-0.32,0-0.59,0.26-0.59,0.59C7.43,8.06,7.69,8.32,8.02,8.32z M16.57,10.79
			c0-0.32-0.26-0.59-0.59-0.59H8.02c-0.32,0-0.59,0.26-0.59,0.59c0,0.32,0.26,0.59,0.59,0.59h7.97
			C16.31,11.38,16.57,11.11,16.57,10.79z"/>
	</g>
</g>
</svg>
