<?xml version="1.0" encoding="utf-8"?>
<!-- Generator: Adobe Illustrator 24.1.1, SVG Export Plug-In . SVG Version: 6.00 Build 0)  -->
<svg version="1.1" id="Layer_1" xmlns="http://www.w3.org/2000/svg" xmlns:xlink="http://www.w3.org/1999/xlink" x="0px" y="0px"
	 viewBox="0 0 24 24" style="enable-background:new 0 0 24 24;" xml:space="preserve">
<style type="text/css">
	.st0{fill:#333D49;}
	.st1{fill:url(#SVGID_1_);}
</style>
<g>
	<g>
		<path class="st0" d="M16.8,6.1c0,0-0.1,0-0.1,0l-0.5,0.1l-0.5-1.4c-0.2-0.4-0.6-0.7-1-0.7h-5c-0.4,0-0.8,0.3-1,0.7L8.2,6.3
			L7.7,6.2c0,0-0.1,0-0.1,0c-0.2,0-0.4,0.2-0.4,0.5v0.3c0,0.3,0.2,0.6,0.5,0.6h0.1L7.6,7.7C7.5,8.1,7.4,8.7,7.4,9v2.7
			c0,0.3,0.2,0.6,0.5,0.6h0.7c0.3,0,0.5-0.3,0.5-0.6v-0.7h6v0.7c0,0.3,0.2,0.6,0.5,0.6h0.7c0.3,0,0.5-0.3,0.5-0.6V9
			c0-0.4-0.1-1-0.3-1.3l-0.1-0.2h0.1c0.3,0,0.5-0.3,0.5-0.6V6.6C17.2,6.3,17.1,6.1,16.8,6.1z M8.6,7.2l0.8-2.1
			C9.5,4.9,9.7,4.7,10,4.7h4.4c0.2,0,0.5,0.2,0.6,0.4l0.8,2.1c0.1,0.2,0,0.4-0.3,0.4H8.8C8.6,7.6,8.5,7.4,8.6,7.2z M10.4,9.8
			c0,0.1-0.1,0.2-0.2,0.2H8.6c-0.1,0-0.2-0.1-0.2-0.2V9c0-0.1,0.1-0.2,0.2-0.2h1.5c0.1,0,0.2,0.1,0.2,0.2V9.8z M15.9,9.8
			c0,0.1-0.1,0.2-0.2,0.2h-1.5C14.1,10,14,9.9,14,9.8V9c0-0.1,0.1-0.2,0.2-0.2h1.5c0.1,0,0.2,0.1,0.2,0.2V9.8z"/>
	</g>
</g>
<linearGradient id="SVGID_1_" gradientUnits="userSpaceOnUse" x1="6.5301" y1="8.0819" x2="20.188" y2="15.9599">
	<stop  offset="0" style="stop-color:#65D2ED"/>
	<stop  offset="1" style="stop-color:#2089C9"/>
</linearGradient>
<path class="st1" d="M12.2,23.4l6.3-9.3c2.4-3.2,2-8.5-0.7-11.3c-1.5-1.5-3.5-2.4-5.6-2.4c-2.1,0-4.1,0.8-5.6,2.4
	c-2.8,2.8-3.1,8.1-0.7,11.3L12.2,23.4z M12.1,2.1c3.6,0,6.6,3,6.6,6.6c0,3.7-2.9,6.6-6.6,6.6c-3.6,0-6.6-3-6.6-6.6
	C5.5,5.1,8.5,2.1,12.1,2.1z"/>
</svg>
