<?xml version="1.0" encoding="utf-8"?>
<!-- Generator: Adobe Illustrator 24.1.1, SVG Export Plug-In . SVG Version: 6.00 Build 0)  -->
<svg version="1.1" id="Layer_1" xmlns="http://www.w3.org/2000/svg" xmlns:xlink="http://www.w3.org/1999/xlink" x="0px" y="0px"
	 viewBox="0 0 24 24" style="enable-background:new 0 0 24 24;" xml:space="preserve">
<style type="text/css">
	.st0{fill:#157DC3;}
</style>
<g>
	<g>
		<path class="st0" d="M11.94,12.8h0.15c1.34-0.02,2.43-0.5,3.23-1.42c1.77-2.02,1.47-5.49,1.44-5.83
			c-0.11-2.49-1.27-3.68-2.22-4.23c-0.71-0.42-1.54-0.64-2.47-0.66h-0.08c-0.51,0-1.51,0.08-2.47,0.64
			C8.55,1.86,7.38,3.04,7.27,5.55c-0.03,0.33-0.33,3.8,1.44,5.83C9.5,12.29,10.59,12.77,11.94,12.8z M8.49,5.67
			c0-0.01,0-0.03,0-0.04c0.15-3.34,2.49-3.7,3.49-3.7h0.06c1.24,0.03,3.34,0.54,3.49,3.7c0,0.01,0,0.03,0,0.04
			c0,0.03,0.33,3.2-1.13,4.87c-0.58,0.66-1.35,0.99-2.36,1h-0.05c-1.01-0.01-1.78-0.34-2.36-1C8.17,8.88,8.49,5.69,8.49,5.67z
			 M21.43,18.55v-0.01c0-0.04,0-0.07,0-0.12c-0.03-0.92-0.09-3.08-2.08-3.77c-0.01,0-0.03-0.01-0.05-0.01
			c-2.07-0.54-3.79-1.75-3.81-1.76c-0.28-0.2-0.67-0.13-0.86,0.15c-0.2,0.28-0.13,0.68,0.15,0.88c0.08,0.06,1.9,1.35,4.19,1.95
			c1.07,0.39,1.19,1.55,1.22,2.61c0,0.04,0,0.08,0,0.12c0,0.42-0.02,1.07-0.1,1.44c-0.74,0.43-3.66,1.91-8.09,1.91
			c-4.41,0-7.34-1.49-8.09-1.92c-0.07-0.37-0.11-1.02-0.1-1.44c0-0.04,0-0.07,0-0.12c0.03-1.06,0.15-2.22,1.22-2.61
			c2.28-0.6,4.11-1.89,4.19-1.94c0.28-0.2,0.35-0.59,0.15-0.88c-0.2-0.28-0.58-0.35-0.86-0.15c-0.02,0.01-1.73,1.23-3.81,1.76
			c-0.02,0-0.03,0.01-0.05,0.01c-1.99,0.69-2.05,2.85-2.08,3.77c0,0.04,0,0.08,0,0.12v0.01c0,0.24-0.01,1.49,0.23,2.11
			c0.05,0.12,0.13,0.22,0.24,0.29c0.14,0.09,3.44,2.23,8.95,2.23c5.52,0,8.82-2.14,8.95-2.23c0.11-0.07,0.19-0.17,0.24-0.29
			C21.44,20.04,21.44,18.8,21.43,18.55z"/>
	</g>
</g>
</svg>
