<?xml version="1.0" encoding="utf-8"?>
<!-- Generator: Adobe Illustrator 24.1.1, SVG Export Plug-In . SVG Version: 6.00 Build 0)  -->
<svg version="1.1" id="Layer_1" xmlns="http://www.w3.org/2000/svg" xmlns:xlink="http://www.w3.org/1999/xlink" x="0px" y="0px"
	 viewBox="0 0 567.7 365.5" style="enable-background:new 0 0 567.7 365.5;" xml:space="preserve">
<style type="text/css">
	.st0{fill:#FFFFFF;}
	.st1{fill:#333D49;}
	.st2{fill:#157DC3;}
	.st3{fill:url(#SVGID_1_);}
	.st4{opacity:0.25;}
	.st5{font-family:'MyriadPro-Regular';}
	.st6{font-size:18.0986px;}
	.st7{font-family:'OpenSans-SemiBold';}
	.st8{font-size:28.1534px;}
	.st9{fill:#A15D30;}
	.st10{fill:#8F4F24;}
	.st11{fill:#FECB66;}
	.st12{fill:#FEDAC6;}
	.st13{fill:#F5C4B0;}
	.st14{fill:#F5AD76;}
	.st15{fill:#EBEBEB;}
</style>
<g>
	<path class="st0" d="M45.4,353.7c-19.1,0-34.6-15.5-34.6-34.6V44.1C10.8,25,26.3,9.5,45.4,9.5h477.8c19.1,0,34.6,15.5,34.6,34.6
		v275.1c0,19.1-15.5,34.6-34.6,34.6H45.4z"/>
	<path class="st1" d="M523.2,15.5c15.8,0,28.5,12.8,28.5,28.5v275.1c0,15.8-12.8,28.5-28.5,28.5H45.4c-15.8,0-28.5-12.8-28.5-28.5
		V44.1c0-15.8,12.8-28.5,28.5-28.5H523.2 M523.2,3.5H45.4C23,3.5,4.8,21.7,4.8,44.1v275.1c0,22.4,18.2,40.6,40.6,40.6h477.8
		c22.4,0,40.6-18.2,40.6-40.6V44.1C563.8,21.7,545.6,3.5,523.2,3.5L523.2,3.5z"/>
</g>
<path class="st2" d="M551.7,82.6V43.7c0-15.8-12.8-28.5-28.5-28.5H45.4c-15.8,0-28.5,12.8-28.5,28.5v38.9H551.7z"/>
<linearGradient id="SVGID_1_" gradientUnits="userSpaceOnUse" x1="44.5625" y1="269.792" x2="201.2115" y2="113.143">
	<stop  offset="0" style="stop-color:#81E7FF"/>
	<stop  offset="1" style="stop-color:#157DC3"/>
</linearGradient>
<rect x="49.2" y="108.5" class="st3" width="147.3" height="166"/>
<rect x="252.5" y="135" class="st4" width="69.6" height="18"/>
<rect x="336.9" y="135" class="st4" width="154.7" height="18"/>
<rect x="422" y="164.4" transform="matrix(-1 -1.224647e-16 1.224647e-16 -1 913.5072 346.8803)" class="st4" width="69.6" height="18"/>
<rect x="252.2" y="164.4" class="st4" width="154.7" height="18"/>
<rect x="252.5" y="253.7" transform="matrix(-1 -1.224647e-16 1.224647e-16 -1 744.0088 525.3859)" class="st4" width="239.1" height="18"/>
<rect x="252.5" y="194.3" transform="matrix(-1 -1.224647e-16 1.224647e-16 -1 744.0088 406.6551)" class="st4" width="239.1" height="18"/>
<rect x="252.5" y="225.8" transform="matrix(-1 -1.224647e-16 1.224647e-16 -1 574.5103 469.7052)" class="st4" width="69.6" height="18"/>
<rect x="336.9" y="225.8" transform="matrix(-1 -1.224647e-16 1.224647e-16 -1 828.4545 469.7052)" class="st4" width="154.7" height="18"/>
<g>
	<path d="M261.9,299.7h1.7v24.1h-1.7V299.7z M244,323.8h8.1v-24.1H244V323.8z M298.3,323.8h2v-24.1h-2V323.8z M303.8,323.8h8.1
		v-24.1h-8.1V323.8z M281.3,323.8h8.1v-24.1h-8.1V323.8z M269.7,323.8h1.7v-24.1h-1.7V323.8z M275.2,323.8h1.7v-24.1h-1.7V323.8z
		 M335.1,323.8h8.1v-24.1h-8.1V323.8z M358.5,323.8h1.7v-24.1h-1.7V323.8z M353,323.8h1.7v-24.1H353V323.8z M318,323.8h1.7v-24.1
		H318V323.8z M323.5,323.8h8.1v-24.1h-8.1V323.8z M388.9,323.8h8.1v-24.1h-8.1V323.8z M400.5,299.7v24.1h8.1v-24.1H400.5z
		 M377.9,323.8h2v-24.1h-2V323.8z M366.3,323.8h1.7v-24.1h-1.7V323.8z M371.8,323.8h1.7v-24.1h-1.7V323.8z"/>
</g>
<g>
	<path d="M430,299.7h1.7v24.1H430V299.7z M412.1,323.8h8.1v-24.1h-8.1V323.8z M466.4,323.8h2v-24.1h-2V323.8z M471.9,323.8h8.1
		v-24.1h-8.1V323.8z M449.4,323.8h8.1v-24.1h-8.1V323.8z M437.8,323.8h1.7v-24.1h-1.7V323.8z M443.3,323.8h1.7v-24.1h-1.7V323.8z
		 M503.2,323.8h8.1v-24.1h-8.1V323.8z M486.1,323.8h1.7v-24.1h-1.7V323.8z M491.6,323.8h8.1v-24.1h-8.1V323.8z"/>
</g>
<text transform="matrix(1.0324 0 0 1 245.9849 118.4575)" class="st5 st6">B202020202020</text>
<text transform="matrix(1.0324 0 0 1 170.4673 60.5541)" class="st0 st7 st8">Driver’s License</text>
<text transform="matrix(1.0324 0 0 1 64.0997 318.227)" class="st5 st6">B11010101010</text>
<g>
	<path class="st9" d="M149.6,149.3l-0.7-0.3c-2.9-8.6-10.9-14.4-20-14.4h-40l4.8,14.4c-5.6,2.8-8.4,9.1-6.8,15.1l4.4,13.7h4.8v-12
		c0,0,14.4,0,21.6-2.4l21.6-7.2l9.6,16.8v4.8h4.8l2.8-14.2C157.7,157.9,154.9,152,149.6,149.3z"/>
	<path class="st10" d="M93.7,149c-5.6,2.8-8.4,9.1-6.7,15.1l4.3,13.7h4.8v-12c0,0,5.6,0,11.6-0.6C101.6,161.3,96.8,155.7,93.7,149z"
		/>
	<path class="st11" d="M160.4,233.8l-16.7-2.2l-1.2,2.7c-4.8,11.1-17.6,16.2-28.7,11.4c-5.1-2.2-9.2-6.3-11.4-11.4l-1.2-2.7
		l-16.7,2.2c-7.2,1-12.5,7-12.5,14.3v25.8H173V248C172.9,240.8,167.6,234.7,160.4,233.8z"/>
	<path class="st12" d="M122.5,247.4c8.7,0,16.6-5.2,20.1-13.2l1.2-2.7l-2.6-0.4c-2.4-0.3-4.2-2.4-4.2-4.8v-10.2h-28.8v10.3
		c0,2.4-1.8,4.5-4.2,4.8l-2.6,0.4l1.2,2.7C106,242.3,113.8,247.5,122.5,247.4z"/>
	<path class="st13" d="M137.2,228c-0.2-0.5-0.3-1-0.3-1.6v-10.2h-28.8v10.3c0,0.5-0.1,1.1-0.3,1.6C117.1,232.8,128,232.7,137.2,228z
		"/>
	<path class="st14" d="M81.7,234.5c-5.7,2-9.6,7.4-9.6,13.5v25.8h9.6V234.5z"/>
	<path class="st12" d="M148.9,175.4h-2.4v14.4h2.4c4,0,7.2-3.2,7.2-7.2C156.1,178.6,152.9,175.4,148.9,175.4z"/>
	<path class="st13" d="M88.9,182.6c0,4,3.2,7.2,7.2,7.2h2.4v-14.4h-2.4C92.2,175.4,88.9,178.6,88.9,182.6z"/>
	<path class="st12" d="M148.9,198.9c0,3.5-1.2,6.9-3.6,9.6L135,220.3c-1.8,2.1-4.4,3.3-7.2,3.3h-10.5c-2.8,0-5.4-1.2-7.2-3.3
		l-10.4-11.9c-2.3-2.7-3.6-6.1-3.6-9.6v-33c0,0,14.4,0,21.6-2.4l21.6-7.2L149,173L148.9,198.9z"/>
	<path class="st13" d="M105.7,165.4c-5.2,0.4-9.6,0.4-9.6,0.4v33.1c0,3.5,1.2,6.9,3.6,9.6l6,6.8L105.7,165.4L105.7,165.4z"/>
	<g>
		<path class="st15" d="M96.1,173h21.6l0,0v7.2c0,4-3.2,7.2-7.2,7.2h-7.2c-4,0-7.2-3.2-7.2-7.2L96.1,173L96.1,173z"/>
		<path class="st15" d="M127.3,173h21.6l0,0v7.2c0,4-3.2,7.2-7.2,7.2h-7.2c-4,0-7.2-3.2-7.2-7.2L127.3,173L127.3,173z"/>
	</g>
	<path d="M74.5,273.8h-4.8v-25.7c0-8.5,6.3-15.6,14.7-16.7l19.2-2.6c1.2-0.2,2.1-1.2,2.1-2.4v-7.8h4.8v7.8c0,3.6-2.7,6.7-6.3,7.2
		l-19.2,2.6c-6,0.8-10.6,5.9-10.5,11.9L74.5,273.8L74.5,273.8z"/>
	<path d="M175.4,273.8h-4.8v-25.7c0-6.1-4.5-11.2-10.5-11.9l-19.2-2.6c-3.6-0.5-6.3-3.6-6.3-7.2v-7.8h4.8v7.8c0,1.2,0.9,2.3,2.1,2.4
		l19.2,2.6c8.4,1,14.7,8.2,14.7,16.7L175.4,273.8L175.4,273.8z"/>
	<path d="M148.9,192.2h-2.4v-4.8h2.4c2.6,0,4.8-2.2,4.8-4.8c0-2.6-2.2-4.8-4.8-4.8h-2.4V173h2.4c5.3,0,9.6,4.3,9.6,9.6
		S154.2,192.2,148.9,192.2z"/>
	<path d="M98.5,192.2h-2.4c-5.3,0-9.6-4.3-9.6-9.6s4.3-9.6,9.6-9.6h2.4v4.8h-2.4c-2.6,0-4.8,2.2-4.8,4.8c0,2.6,2.2,4.8,4.8,4.8h2.4
		V192.2z"/>
	<path d="M122.6,249.8C122.5,249.8,122.5,249.8,122.6,249.8c-9.7,0-18.5-5.8-22.3-14.7l-1.5-3.6l4.4-1.9l1.5,3.6
		c3.1,7.2,10.1,11.8,17.8,11.8c0,0,0,0,0,0c7.8,0,14.8-4.6,17.9-11.8l1.5-3.6l4.4,1.9l-1.5,3.6C141,244.1,132.3,249.8,122.6,249.8z"
		/>
	<path d="M124.9,194.6h-9.6c-0.7,0-1.4-0.3-1.9-0.9c-0.5-0.6-0.6-1.3-0.4-2.1l4.8-19.1l4.7,1.2l-4,16.1h6.5V194.6z"/>
	<path d="M119.6,204.2h-4.2v-4.8h4.2c3.1,0,6.3-0.8,9.1-2.2l2.1,4.3C127.3,203.3,123.5,204.2,119.6,204.2z"/>
	<path d="M127.8,225.9h-10.5c-3.5,0-6.7-1.5-9-4.1L97.9,210c-2.7-3.1-4.2-7.1-4.1-11.2v-33c0-1.3,1.1-2.4,2.4-2.4
		c0.1,0,14.1,0,20.8-2.3l21.6-7.2c1.1-0.4,2.3,0.1,2.8,1.1l9.6,16.8c0.2,0.4,0.3,0.8,0.3,1.2l-0.1,25.9c0,4.1-1.4,8.1-4.1,11.2
		l-10.4,11.7C134.6,224.4,131.3,225.9,127.8,225.9z M98.6,168.2v30.6c0,3,1,5.8,3,8l10.4,11.9c1.4,1.6,3.3,2.4,5.4,2.4h10.5
		c2.1,0,4-0.9,5.4-2.5l10.4-11.7c1.9-2.2,3-5.1,2.9-8c0,0,0,0,0,0l0-25.3l-8.3-14.5l-19.7,6.6C112.8,167.6,103.1,168.1,98.6,168.2z"
		/>
	<path d="M89.1,178.5l-4.4-13.7c-1.8-6.5,0.8-13.3,6.2-17l-4.2-12.6c-0.2-0.7-0.1-1.5,0.3-2.2c0.5-0.6,1.2-1,1.9-1h40
		c9.8,0,18.5,6,21.9,15.1c6.1,3.1,9.4,10,8,16.8l-2.8,14.2l-4.7-0.9l2.8-14.2c1-4.7-1.4-9.5-5.7-11.7l-0.7-0.4
		c-0.6-0.3-1-0.8-1.2-1.4c-2.5-7.6-9.7-12.8-17.7-12.8H92.3l3.7,11.2c0.4,1.1-0.1,2.4-1.2,2.9c-4.5,2.3-6.9,7.5-5.5,12.4l4.3,13.6
		L89.1,178.5z"/>
	<path d="M110.5,189.8h-7.2c-5.3,0-9.6-4.3-9.6-9.6V173c0-1.3,1.1-2.4,2.4-2.4h21.6c1.3,0,2.4,1.1,2.4,2.4v7.2
		C120.1,185.5,115.8,189.8,110.5,189.8z M98.5,175.4v4.8c0,2.6,2.2,4.8,4.8,4.8h7.2c2.6,0,4.8-2.2,4.8-4.8v-4.8H98.5z"/>
	<path d="M141.7,189.8h-7.2c-5.3,0-9.6-4.3-9.6-9.6V173c0-1.3,1.1-2.4,2.4-2.4h21.6c1.3,0,2.4,1.1,2.4,2.4v7.2
		C151.3,185.5,147,189.8,141.7,189.8z M129.7,175.4v4.8c0,2.6,2.2,4.8,4.8,4.8h7.2c2.6,0,4.8-2.2,4.8-4.8v-4.8H129.7z"/>
	<rect x="117.7" y="170.6" width="9.6" height="4.8"/>
</g>
</svg>
