<?xml version="1.0" encoding="utf-8"?>
<!-- Generator: Adobe Illustrator 24.1.1, SVG Export Plug-In . SVG Version: 6.00 Build 0)  -->
<svg version="1.1" id="Layer_1" xmlns="http://www.w3.org/2000/svg" xmlns:xlink="http://www.w3.org/1999/xlink" x="0px" y="0px"
	 viewBox="0 0 567.7 365.5" style="enable-background:new 0 0 567.7 365.5;" xml:space="preserve">
<style type="text/css">
	.st0{fill:#333D49;}
	.st1{opacity:0.26;}
	.st2{fill:#FFFFFF;}
	.st3{fill:#FCC12C;}
	.st4{fill:#157DC1;}
	.st5{fill:#BCBEC0;}
	.st6{fill:#33435A;}
	.st7{fill:#06529C;}
	.st8{opacity:6.000000e-02;}
	.st9{fill:#D0E8F4;}
	.st10{fill:#FC7134;}
	.st11{opacity:0.2;}
	.st12{fill:#FFFFF0;}
	.st13{opacity:0.1;}
	.st14{fill:#30353D;}
	.st15{fill:#F6F6F6;}
</style>
<g>
	<rect x="156.3" y="45.6" class="st0" width="231.1" height="308.4"/>
	<polygon class="st1" points="173.6,340.8 177,340.8 381.1,347.1 375.8,55.4 366.3,58.2 	"/>
	<rect x="168" y="55.4" class="st2" width="207.8" height="285.4"/>
	<g>
		<g>
			<path class="st3" d="M298.5,28.3h-1.4v-0.9c0-8.9-8.3-16.1-18.5-16.1h-13.5c-10.2,0-18.5,7.2-18.5,16.1v0.9h-1.4
				c-10.2,0-18.5,7.2-18.5,16.1v18H317v-18C317,35.5,308.7,28.3,298.5,28.3z M283.8,28.7H260c-2.4,0-4.4-2-4.4-4.4
				c0-2.4,2-4.4,4.4-4.4h23.8c2.4,0,4.4,2,4.4,4.4C288.2,26.7,286.2,28.7,283.8,28.7z"/>
		</g>
		<rect x="226.7" y="53.9" class="st4" width="90.3" height="8.5"/>
	</g>
	<g>
		<rect x="195" y="159.7" class="st5" width="156.2" height="4.2"/>
		<rect x="195" y="190.7" class="st5" width="156.2" height="4.2"/>
		<rect x="195" y="221.7" class="st5" width="156.2" height="4.2"/>
		<rect x="195" y="252.6" class="st5" width="156.2" height="4.2"/>
	</g>
	<rect x="194.9" y="315.4" class="st5" width="57.4" height="1.5"/>
	<path class="st5" d="M333,289.1c-2.8-1-5.8-0.8-8.4,0.5c-0.4-0.2-0.8-0.4-1.2-0.5c-4.1-1.5-9-0.2-11.7,3.2
		c-2.7,3.4-3.1,8.2-0.9,11.9c2.2,3.8,6.7,5.7,11,4.9c1-0.2,2-0.5,2.9-1c2,1,4.4,1.4,6.7,1c4.9-0.9,8.4-5.3,8.5-10.3
		C339.8,294.5,337.1,290.6,333,289.1z M322.8,307.1c-3.4,1.2-7.3,0.2-9.7-2.6c-2.4-2.8-2.7-7-0.8-10.1c1.9-3.2,5.6-4.8,9.2-4.1
		c0.5,0.1,1,0.2,1.4,0.4c-0.6,0.5-1.2,1-1.6,1.6c-2.7,3.4-3.1,8.2-0.9,11.9c0.7,1.1,1.5,2.1,2.5,2.9
		C322.9,307.1,322.8,307.1,322.8,307.1z M328.6,298.9c-0.1,3-1.5,5.7-3.9,7.3c-0.7-0.5-1.3-1-1.9-1.7c-2.4-2.8-2.7-7-0.8-10.1
		c0.7-1.2,1.6-2.1,2.7-2.8C327,293.2,328.5,295.9,328.6,298.9z M332.4,307.1c-2,0.7-4.2,0.7-6.1-0.1c2.4-2,3.9-5,4-8.2
		c-0.1-3.2-1.5-6.2-4-8.2c1.5-0.6,3.2-0.8,4.8-0.4c4.1,0.8,7,4.5,7,8.6C338.1,302.5,335.9,305.9,332.4,307.1z"/>
</g>
<g>
	<path class="st6" d="M196.5,87.3h2.5v21.2h-2.5V87.3z"/>
	<path class="st6" d="M218,87.3h2.5v21.2h-2.8l-10.1-16.9v16.9h-2.5V87.3h2.8l10.1,16.9V87.3z"/>
	<path class="st6" d="M238.1,99c0.8,0.8,1.3,2.1,1.3,3.8c0,1.7-0.6,3.1-1.8,4.3c-1.2,1.1-3,1.7-5.2,1.7c-2.3,0-4-0.5-5-1.4
		c-1.1-0.9-1.7-2.3-2-4.1l2.1-0.4c0.4,2.6,1.9,3.8,4.7,3.8c3.1,0,4.7-1.2,4.7-3.7c0-1.1-0.3-1.9-0.9-2.4c-0.6-0.5-1.5-1-2.9-1.3
		l-1.9-0.6c-2-0.5-3.4-1.2-4.2-2.1c-0.8-0.8-1.2-2.1-1.2-3.9s0.6-3.2,1.7-4.3c1.2-1.1,2.8-1.7,5.1-1.7c2.2,0,3.8,0.5,4.8,1.4
		c1,0.9,1.6,2.3,1.9,4.1l-2.1,0.4c-0.4-2.5-1.8-3.8-4.4-3.8c-3,0-4.5,1.2-4.5,3.7c0,1.1,0.3,1.9,0.8,2.4c0.5,0.5,1.4,1,2.7,1.3
		l2,0.6C235.8,97.5,237.2,98.2,238.1,99z"/>
	<path class="st6" d="M256,87.3h2.5v14.2c0,1.3-0.2,2.4-0.5,3.3c-0.3,0.9-0.7,1.6-1.1,2.2c-0.5,0.5-1,0.9-1.8,1.2
		c-0.7,0.3-1.4,0.5-2,0.6c-0.6,0.1-1.3,0.1-2.1,0.1c-0.8,0-1.5,0-2.1-0.1c-0.6-0.1-1.3-0.3-2-0.6c-0.7-0.3-1.3-0.7-1.7-1.2
		c-0.5-0.5-0.8-1.2-1.1-2.2c-0.3-0.9-0.5-2-0.5-3.3V87.3h2.5v14.1c0,2.2,0.5,3.7,1.6,4.5c0.5,0.3,1,0.6,1.5,0.7
		c0.5,0.1,1.1,0.2,1.8,0.2c0.7,0,1.3-0.1,1.8-0.2c0.5-0.1,1-0.3,1.5-0.7c1.1-0.7,1.6-2.2,1.6-4.5V87.3z"/>
	<path class="st6" d="M264.2,87.3h6.4c1.3,0,2.3,0.2,3.2,0.6c0.9,0.4,1.6,0.9,2,1.5c0.8,1.2,1.2,2.6,1.2,4.2c0,3-1.2,5-3.7,5.8
		c0.5,0.4,1,1,1.4,1.9l3.1,7.2h-2.7l-2.9-6.9c-0.3-0.7-0.7-1.2-1.2-1.4c-0.5-0.3-1.1-0.4-1.9-0.4h-2.5v8.7h-2.5V87.3z M266.8,97.7
		h3.7c1.4,0,2.4-0.4,3.1-1.2c0.6-0.8,1-1.8,1-3c0-1.2-0.3-2.2-1-3c-0.6-0.8-1.7-1.2-3.1-1.2h-3.7V97.7z"/>
	<path class="st6" d="M287.1,87.3h3.4l6.9,21.2h-2.5l-2.1-6.4h-8.1l-2.1,6.4h-2.5L287.1,87.3z M288.8,89.5l-3.4,10.5h6.8L288.8,89.5
		z"/>
	<path class="st6" d="M313.8,87.3h2.5v21.2h-2.8l-10.1-16.9v16.9H301V87.3h2.8l10.1,16.9V87.3z"/>
	<path class="st6" d="M329.7,88.9c-1.8,0-3.1,0.5-4,1.5c-0.8,0.9-1.3,2.3-1.4,4.3c-0.1,0.8-0.1,1.9-0.1,3.1c0,1.2,0,2.3,0.1,3.1
		c0.1,0.9,0.2,1.7,0.5,2.4c0.2,0.8,0.6,1.4,1,1.9c0.9,1,2.2,1.5,4,1.5c3,0,4.5-1.6,4.6-4.8l2.1,0.1c-0.1,2.1-0.7,3.8-1.8,5
		c-1,1.2-2.7,1.8-4.9,1.8c-3.2,0-5.4-1-6.5-3c-0.6-1-1-2.1-1.3-3.4c-0.2-1.3-0.4-2.8-0.4-4.7c0-1.8,0.1-3.4,0.4-4.7
		c0.2-1.3,0.7-2.4,1.3-3.4c1.2-2,3.3-2.9,6.5-2.9c2.1,0,3.7,0.5,4.7,1.4c1,1,1.7,2.3,1.9,4.1l-2.1,0.4
		C333.9,90.2,332.4,88.9,329.7,88.9z"/>
	<path class="st6" d="M341,87.3h11.2v2h-8.7v7.4h8.1v2h-8.1v7.7h9.3v2H341V87.3z"/>
	<path class="st6" d="M239.8,135.3h-3.7v7.9h-2.5V122h6.2c4.4,0,6.5,2.2,6.5,6.7C246.3,133.1,244.1,135.3,239.8,135.3z M236.1,133.3
		h3.5c2.8,0,4.1-1.5,4.1-4.6c0-3.1-1.4-4.6-4.1-4.6h-3.5V133.3z"/>
	<path class="st6" d="M264.6,140.4c-0.6,1-1.5,1.8-2.6,2.4c-1.1,0.6-2.5,0.8-4.1,0.8c-1.6,0-3-0.3-4.1-0.8c-1.1-0.5-2-1.3-2.5-2.4
		c-0.6-1.1-1-2.2-1.2-3.4c-0.2-1.2-0.4-2.6-0.4-4.1c0-1.5,0.1-2.7,0.2-3.8c0.1-1,0.4-2,0.8-3c0.4-1,0.9-1.8,1.5-2.4
		c1.3-1.4,3.3-2.1,5.9-2.1c3.2,0,5.5,1.1,6.7,3.2c0.6,1,1,2.2,1.3,3.4c0.2,1.2,0.4,2.7,0.4,4.3c0,1.7-0.1,3.1-0.4,4.3
		C265.7,138.2,265.2,139.3,264.6,140.4z M258.1,141.5c1,0,1.9-0.2,2.7-0.7c0.8-0.5,1.4-1.1,1.8-1.9c0.4-0.8,0.7-1.8,0.9-2.8
		c0.2-1,0.3-2.2,0.3-3.5c0-1.3-0.1-2.5-0.3-3.5c-0.2-1-0.5-1.9-0.9-2.8c-0.9-1.7-2.4-2.6-4.6-2.6c-1.8,0-3.1,0.6-4.1,1.7
		c-1.1,1.4-1.7,3.8-1.7,7.2c0,3.4,0.6,5.8,1.7,7.2C254.8,140.9,256.2,141.5,258.1,141.5z"/>
	<path class="st6" d="M271.5,143.2V122h2.5v19.1h7.9v2H271.5z"/>
	<path class="st6" d="M285.5,122h2.5v21.2h-2.5V122z"/>
	<path class="st6" d="M301.4,123.7c-1.8,0-3.1,0.5-4,1.5c-0.8,0.9-1.3,2.3-1.4,4.3c-0.1,0.8-0.1,1.9-0.1,3.1c0,1.2,0,2.3,0.1,3.1
		c0.1,0.9,0.2,1.7,0.5,2.4c0.2,0.8,0.6,1.4,1,1.9c0.9,1,2.2,1.5,4,1.5c3,0,4.5-1.6,4.6-4.8l2.1,0.1c-0.1,2.1-0.7,3.8-1.8,5
		c-1,1.2-2.7,1.8-4.9,1.8c-3.2,0-5.4-1-6.5-3c-0.6-1-1-2.1-1.3-3.4c-0.2-1.3-0.4-2.8-0.4-4.7c0-1.8,0.1-3.4,0.4-4.7
		c0.2-1.3,0.7-2.4,1.3-3.4c1.2-2,3.3-2.9,6.5-2.9c2.1,0,3.7,0.5,4.7,1.4c1,1,1.7,2.3,1.9,4.1l-2.1,0.4
		C305.5,125,304,123.7,301.4,123.7z"/>
	<path class="st6" d="M318.8,143.2h-2.6v-7.4l-6.5-13.8h2.6l5.2,11.3l5.2-11.3h2.6l-6.5,13.8V143.2z"/>
</g>
<g>
	<g>
		<g>
			<g>
				<path class="st7" d="M418,208.5c-42.4,10.4-64.6-8.8-67.6-11.7c0,0-0.1-0.3-0.2-0.2c-0.1-0.1-0.2,0.2-0.2,0.2
					c-2.8,3-24,23.4-66.9,15.3c0,0-4.5,76.9,21.2,107.6c27.5,32.7,50.2,42.2,50.3,42.1c0.1,0.1,22.5-10.4,47.9-44.8
					C426.5,284.9,418,208.5,418,208.5z"/>
				<path class="st4" d="M412,216.6c-38.5,9.3-58.6-7.8-61.3-10.4c0,0-0.1-0.3-0.2-0.2c-0.1-0.1-0.2,0.2-0.2,0.2
					c-2.6,2.7-21.7,20.9-60.7,13.7c0,0-4.1,68.5,19.2,95.7c24.9,29.1,45.5,39.4,45.6,39.3c0.1,0.1,20.4-11.1,43.5-41.7
					C419.6,284.6,412,216.6,412,216.6z"/>
				<g class="st8">
					<path d="M350.5,213c0,0,0-0.3,0.2-0.2c0.1-0.1,0.2,0.2,0.2,0.2c2.8,2.6,23.1,19.9,61.9,11.4c-0.4-7-0.9-11.3-0.9-11.3
						c-38.5,9.3-58.6-7.8-61.3-10.4c0,0-0.1-0.3-0.2-0.2c-0.1-0.1-0.2,0.2-0.2,0.2c-2.6,2.7-21.7,20.9-60.7,13.7
						c0,0-0.3,4.4-0.3,11.3C328.5,234.1,347.9,215.7,350.5,213z"/>
				</g>
			</g>
			<path class="st9" d="M401.1,235.9c-29.1,7.1-47.8-6.7-49.8-8.6c0,0,0-0.2-0.1-0.1c-0.1-0.1-0.1,0.1-0.1,0.1
				c-1.9,2.1-19.7,16.8-49.1,11.3c0,0,0.2,52,17.8,73c18.8,22.4,34.4,28.9,34.5,28.9c0.1,0.1,15.4-7.2,32.8-30.7
				C403.3,287.7,401.1,235.9,401.1,235.9z"/>
		</g>
	</g>
	<g>
		<g>
			<path class="st10" d="M386.2,270.8l-4.3-4l-0.1,0c-0.2-0.5-0.5-1-0.7-1.5c-1.3-2.6-2.6-5.2-3.9-7.8c-1.1-2.3-2.2-6.2-5.3-6.2
				l-29.5,0.2c-3.3,0-6.3,2-7.6,5.2l-4.8,10.9l-0.5,0l-9.9,3.2c-3.5,1.7-5.6,5.3-5.6,9.1l0,5.8l75-0.5l-0.1-8.3
				C388.9,274.6,387.9,272.4,386.2,270.8z"/>
			<path class="st9" d="M357.3,266.2l19.7-0.1l-4.6-11c-0.2-0.5-0.7-0.9-1.3-0.9l-13.9,0.1L357.3,266.2z"/>
			<path class="st9" d="M353.8,254.3l-11.3,0.1c-2.4,0-4.6,1.5-5.6,3.8l-3.6,8.2l20.6-0.1L353.8,254.3z"/>
			<g class="st11">
				<path class="st12" d="M373,257.7c0.3,0.1,0.5,0.3,0.8,0.4l-1.2-3c-0.2-0.5-0.7-0.9-1.3-0.9l-4.8,0
					C368.6,255.4,370.8,256.6,373,257.7z"/>
				<path class="st12" d="M373.4,260.4c-3.6-1.9-7.5-4.1-11-6.1l-4.5,0.1c3.1,2.6,7.1,5,10.5,7.1c2.1,1.3,4.2,2.5,6.4,3.6
					c0.7,0.4,1.5,0.7,2.2,1l-2-4.8C374.5,260.9,374,260.6,373.4,260.4z"/>
				<path class="st12" d="M350.3,261.5c-1.5-1-3.1-1.9-4.7-2.7c-1.6-0.9-3.2-1.8-4.9-2.5c-0.6-0.2-1.1-0.5-1.7-0.7
					c-0.9,0.6-1.6,1.5-2,2.6l0,0.1c1.7,1.2,3.4,2.3,5.1,3.5c2.5,1.8,5.3,3.1,8,4.5l3.8,0l0-2.2C352.7,263.2,351.6,262.2,350.3,261.5
					z"/>
			</g>
			<g>
				<path class="st13" d="M342.3,285.6c0.1-0.3,0.1-0.7,0.1-1c0-3.5-3.4-6.3-7.5-6.2c-1.6,0-3.1,0.5-4.3,1.2
					c2.5,0.5,4.8,1.8,6.6,3.4c0.9,0.8,1.7,1.7,2.2,2.7L342.3,285.6z"/>
			</g>
			<g>
				<path class="st13" d="M381.2,285.3c0.1-0.3,0.1-0.7,0.1-1c0-3.5-3.3-6.3-7.3-6.2c-1.6,0-3,0.5-4.2,1.2c2.5,0.5,4.6,1.8,6.4,3.4
					c0.9,0.8,1.6,1.7,2.2,2.7L381.2,285.3z"/>
			</g>
			<g>
				
					<ellipse transform="matrix(0.7071 -0.7071 0.7071 0.7071 -103.7856 319.2462)" class="st14" cx="333.5" cy="284.9" rx="6.6" ry="6.6"/>
				<g>
					<g>
						<path class="st15" d="M332.1,288.4c-1.9-0.7-2.9-2.9-2.2-4.8c0.7-1.9,2.9-2.9,4.8-2.2c1.9,0.7,2.9,2.9,2.2,4.8
							C336.2,288.2,334.1,289.1,332.1,288.4z"/>
					</g>
					<path class="st13" d="M334.1,287.5c0.7-0.1,1.4-0.3,1.9-0.8c-0.2,0.7-0.8,1.2-1.4,1.4c-0.2,0.1-0.5,0.1-0.7,0.1
						c-0.2,0-0.5,0-0.7,0c-0.7-0.1-1.3-0.5-1.6-1.1c0.1,0.2,0.8,0.3,1,0.3C333.1,287.5,333.6,287.5,334.1,287.5z"/>
				</g>
			</g>
			<g>
				
					<ellipse transform="matrix(0.7071 -0.7071 0.7071 0.7071 -92.1833 346.7143)" class="st14" cx="372.4" cy="284.6" rx="6.6" ry="6.6"/>
				<g>
					<g>
						<path class="st15" d="M371.1,288.1c-1.9-0.7-2.9-2.9-2.2-4.8c0.7-1.9,2.9-2.9,4.8-2.2c1.9,0.7,2.9,2.9,2.2,4.8
							C375.2,287.9,373,288.9,371.1,288.1z"/>
					</g>
					<path class="st13" d="M373.1,287.2c0.7-0.1,1.4-0.3,1.9-0.8c-0.2,0.7-0.8,1.2-1.4,1.4c-0.2,0.1-0.5,0.1-0.7,0.1
						c-0.2,0-0.5,0-0.7,0c-0.7-0.1-1.3-0.5-1.6-1.1c0.1,0.2,0.8,0.3,1,0.3C372.1,287.2,372.6,287.3,373.1,287.2z"/>
				</g>
			</g>
		</g>
		<path class="st13" d="M351.8,271.1l-2.7,0c-0.2,0-0.4-0.2-0.4-0.4l0-0.7c0-0.2,0.2-0.4,0.4-0.4l2.7,0c0.2,0,0.4,0.2,0.4,0.4l0,0.7
			C352.3,270.9,352.1,271.1,351.8,271.1z"/>
	</g>
</g>
</svg>
