<?xml version="1.0" encoding="utf-8"?>
<!-- Generator: Adobe Illustrator 24.1.1, SVG Export Plug-In . SVG Version: 6.00 Build 0)  -->
<svg version="1.1" id="Layer_1" xmlns="http://www.w3.org/2000/svg" xmlns:xlink="http://www.w3.org/1999/xlink" x="0px" y="0px"
	 viewBox="0 0 50 50" style="enable-background:new 0 0 50 50;" xml:space="preserve">
<style type="text/css">
	.st0{opacity:0.4;}
	.st1{fill:#050505;}
</style>
<g class="st0">
	<g>
		<path class="st1" d="M10.11,4.41c-0.44,0-0.8,0.36-0.8,0.8s0.36,0.8,0.8,0.8h7.98c0.44,0,0.8-0.36,0.8-0.8s-0.36-0.8-0.8-0.8
			H10.11z M37.23,4.41H21.27c-0.44,0-0.8,0.36-0.8,0.8s0.36,0.8,0.8,0.8h15.95c0.44,0,0.8-0.36,0.8-0.8S37.67,4.41,37.23,4.41z
			 M20.89,42.68H8.51c-1.32,0-2.39-1.07-2.39-2.39V8.4c0.69,0.52,1.53,0.8,2.39,0.8h27.92v13.23c0,0.44,0.36,0.8,0.8,0.8
			c0.44,0,0.8-0.36,0.8-0.8V8.4c0-0.44-0.36-0.8-0.8-0.8H8.51c-1.32,0-2.39-1.07-2.39-2.39c0-1.32,1.07-2.39,2.39-2.39h28.71
			c0.44,0,0.8-0.36,0.8-0.8c0-0.44-0.36-0.8-0.8-0.8H8.51c-2.2,0-3.99,1.78-3.99,3.99v35.08c0,2.2,1.79,3.99,3.99,3.99h12.38
			c0.44,0,0.8-0.36,0.8-0.8C21.69,43.04,21.33,42.68,20.89,42.68z M45.68,34.35c-1.27-5.4-6.1-9.21-11.64-9.21
			c-2.59-0.01-5.11,0.83-7.18,2.39c-0.35,0.26-0.42,0.76-0.16,1.12c0.26,0.35,0.76,0.42,1.12,0.16c1.79-1.35,3.98-2.08,6.22-2.07
			c5.73,0,10.37,4.64,10.37,10.36c0,5.72-4.64,10.36-10.37,10.36c-5.73,0-10.37-4.64-10.37-10.36c0-2.24,0.73-4.41,2.07-6.19
			c0.27-0.35,0.2-0.86-0.15-1.13c-0.35-0.27-0.86-0.2-1.13,0.15c-3.33,4.44-3.17,10.58,0.39,14.84c3.56,4.26,9.57,5.51,14.54,3.03
			C44.35,45.32,46.95,39.75,45.68,34.35z M31.04,42.87c0.22,0.02,0.44-0.05,0.61-0.19l8.98-9.06c0.15-0.15,0.24-0.35,0.24-0.57
			c0-0.21-0.08-0.42-0.24-0.57c-0.31-0.31-0.81-0.31-1.12,0l-8.46,8.46l-2.82-2.82c-0.31-0.31-0.82-0.31-1.13,0
			c-0.31,0.31-0.31,0.82,0,1.13l3.39,3.42C30.63,42.82,30.83,42.88,31.04,42.87z M31.64,19.56v-4.78c0-0.44-0.36-0.8-0.8-0.8H13.3
			c-0.44,0-0.8,0.36-0.8,0.8v1.59c0,0.44,0.36,0.8,0.8,0.8c0.44,0,0.8-0.36,0.8-0.8v-0.8h15.95v3.19H13.3c-0.44,0-0.8,0.36-0.8,0.8
			s0.36,0.8,0.8,0.8h17.55C31.28,20.36,31.64,20,31.64,19.56z M13.3,23.55c-0.44,0-0.8,0.36-0.8,0.8s0.36,0.8,0.8,0.8h12.76
			c0.44,0,0.8-0.36,0.8-0.8s-0.36-0.8-0.8-0.8H13.3z M21.27,28.33H13.3c-0.44,0-0.8,0.36-0.8,0.8c0,0.44,0.36,0.8,0.8,0.8h7.98
			c0.44,0,0.8-0.36,0.8-0.8C22.07,28.69,21.71,28.33,21.27,28.33z M18.08,34.71c0.44,0,0.8-0.36,0.8-0.8c0-0.44-0.36-0.8-0.8-0.8
			H13.3c-0.44,0-0.8,0.36-0.8,0.8c0,0.44,0.36,0.8,0.8,0.8H18.08z"/>
	</g>
</g>
</svg>
