<?xml version="1.0" encoding="utf-8"?>
<!-- Generator: Adobe Illustrator 24.1.1, SVG Export Plug-In . SVG Version: 6.00 Build 0)  -->
<svg version="1.1" id="Layer_1" xmlns="http://www.w3.org/2000/svg" xmlns:xlink="http://www.w3.org/1999/xlink" x="0px" y="0px"
	 viewBox="0 0 50 50" style="enable-background:new 0 0 50 50;" xml:space="preserve">
<style type="text/css">
	.st0{fill:#157DC3;}
	.st1{fill:#FFFFFF;}
</style>
<path class="st0" d="M10.71,4.71c-0.45,0-0.82,0.37-0.82,0.82s0.37,0.82,0.82,0.82h8.23c0.45,0,0.82-0.37,0.82-0.82
	s-0.37-0.82-0.82-0.82H10.71z"/>
<path class="st0" d="M38.69,4.71H22.23c-0.45,0-0.82,0.37-0.82,0.82s0.37,0.82,0.82,0.82h16.46c0.45,0,0.82-0.37,0.82-0.82
	S39.15,4.71,38.69,4.71z"/>
<path class="st0" d="M35.4,27.87c-5.85,0-10.6,4.74-10.6,10.6s4.74,10.6,10.6,10.6S46,44.32,46,38.46S41.26,27.87,35.4,27.87z
	 M41.24,35.38l-7.95,8.03c-0.15,0.13-0.34,0.19-0.54,0.17c-0.18,0.01-0.36-0.05-0.49-0.17l-3-3.03c-0.28-0.28-0.28-0.73,0-1
	c0.28-0.28,0.73-0.28,1,0l2.49,2.5l7.5-7.5c0.28-0.27,0.72-0.27,1,0c0.13,0.13,0.21,0.31,0.21,0.5
	C41.45,35.07,41.37,35.25,41.24,35.38z"/>
<path class="st0" d="M38.63,8.5H8.81C7.47,8.48,6.38,6.76,6.38,5.41c0-1.36,1.11-2.47,2.47-2.47h29.63c0.45,0,0.82-0.37,0.82-0.82
	S38.94,1.3,38.49,1.3H8.85c-2.27,0-4.12,1.84-4.12,4.12c0,0.65,0.14,1.2,0.33,1.65C5.03,7.04,4.99,7.01,4.94,6.98v0.9v15.01v20.27
	c0,1.5,1.21,2.71,2.71,2.71h16.85c-1.42-2.09-2.26-4.6-2.28-7.31c-0.05-7.25,5.84-13.23,13.09-13.27c1.39-0.01,2.73,0.2,3.99,0.59
	v-3V9.18C39.32,8.8,39.01,8.5,38.63,8.5z M19.5,39.18h-4.84c-0.82,0-1.49-0.67-1.49-1.49c0-0.82,0.67-1.49,1.49-1.49h4.84
	c0.82,0,1.49,0.67,1.49,1.49C21,38.52,20.33,39.18,19.5,39.18z M22.03,31.14c0,0.82-0.67,1.49-1.49,1.49h-6.28
	c-0.82,0-1.49-0.67-1.49-1.49v0c0-0.82,0.67-1.49,1.49-1.49h6.28C21.36,29.65,22.03,30.31,22.03,31.14L22.03,31.14z M32.93,20.35
	c0,0.45-0.37,0.82-0.82,0.82H14c-0.45,0-0.82-1.09-0.82-1.54c0-0.45,0.37-0.82,0.82-0.82h17.29v-3.29H14.82v0.82
	c0,0.45-0.37,0.82-0.82,0.82s-0.82-0.37-0.82-0.82v-3.19c0-0.45,0.37-0.51,0.82-0.51h18.11c0.45,0,0.82,0.37,0.82,0.82V20.35z"/>
<path class="st1" d="M26.3,26.57H14.26c-0.82,0-1.49-0.67-1.49-1.49v0c0-0.82,0.67-1.49,1.49-1.49H26.3c0.82,0,1.49,0.67,1.49,1.49
	v0C27.79,25.9,27.12,26.57,26.3,26.57z"/>
</svg>
