<?xml version="1.0" encoding="utf-8"?>
<!-- Generator: Adobe Illustrator 24.1.1, SVG Export Plug-In . SVG Version: 6.00 Build 0)  -->
<svg version="1.1" id="Слой_1" xmlns="http://www.w3.org/2000/svg" xmlns:xlink="http://www.w3.org/1999/xlink" x="0px" y="0px"
	 viewBox="0 0 512 512" style="enable-background:new 0 0 512 512;" xml:space="preserve">
<style type="text/css">
	.st0{opacity:0.5;}
	.st1{opacity:0.43;fill:#DDD6FF;}
	.st2{fill:#DDD6FF;}
	.st3{fill:#D6D4FF;}
	.st4{opacity:0.25;}
	.st5{fill:none;stroke:#FFFFFF;stroke-width:0.7496;stroke-linecap:round;stroke-linejoin:round;stroke-miterlimit:10;}
	.st6{fill:#BFB8F4;}
	.st7{fill:#7A49C9;}
	.st8{fill:#581E96;}
	.st9{fill:#837FE5;}
	.st10{fill:#F8F8FF;}
	.st11{fill:#FFC359;}
	.st12{opacity:0.15;}
	.st13{fill:none;stroke:#0964AF;stroke-width:3.0528;stroke-linecap:round;stroke-linejoin:round;stroke-miterlimit:10;}
	.st14{fill:#9999EF;}
	.st15{opacity:0.5;fill:#FFFFFF;}
	.st16{opacity:0.3;}
	.st17{fill:#8989E8;}
	.st18{fill:#FFFFFF;}
	.st19{font-family:'Montserrat-SemiBold';}
	.st20{font-size:7.5797px;}
	.st21{opacity:0.3;fill:#FFC359;}
	.st22{opacity:0.3;fill:#FFFFFF;}
	.st23{fill:#FFC043;}
	.st24{fill:#E0902F;}
	.st25{fill:#FFDA40;}
	.st26{fill:#965C17;}
	.st27{fill:#38326D;}
	.st28{fill:#F6A388;}
	.st29{fill:#55499B;}
	.st30{fill:#452E17;}
	.st31{fill:#766CD3;}
	.st32{fill:#FFC4C0;}
	.st33{fill:#C98224;}
	.st34{fill:#262376;}
	.st35{fill:#191960;}
	.st36{clip-path:url(#SVGID_2_);}
	.st37{fill:#8883E5;}
	.st38{fill:#7D67CE;}
	.st39{fill:#131354;}
	.st40{fill:#6479AD;}
	.st41{fill:#664624;}
	.st42{fill:#E0856C;}
	.st43{fill:#934747;}
	.st44{clip-path:url(#SVGID_4_);}
	.st45{fill:#EA5C5C;}
	.st46{fill:#D1816B;}
	.st47{fill:none;stroke:#FFFFFF;stroke-width:1.0564;stroke-linecap:round;stroke-linejoin:round;stroke-miterlimit:10;}
	.st48{fill:none;stroke:#FFFFFF;stroke-width:1.6155;stroke-linecap:round;stroke-linejoin:round;stroke-miterlimit:10;}
	.st49{opacity:0.3;fill:#9999EF;}
	.st50{opacity:0.2;fill:#9999EF;}
	.st51{fill:#6786F4;}
	.st52{opacity:0.7;}
	.st53{fill:#C9C2FF;}
	.st54{fill:#F2F0FF;}
</style>
<g class="st0">
	<path class="st1" d="M183.07,334.69v-40.67l-27.58,30.15v50.13h-17.77v-71.84h-4.52l-12.87-12.02l-12.94,12.02h-4.44v96.95H67.42
		l0,0H37.56v52.81h188.59V334.69H183.07z M133.2,360.47h-25.73v-2.63h25.73V360.47z M133.2,355.22h-25.73v-2.63h25.73V355.22z
		 M133.2,349.98h-25.73v-2.62h25.73V349.98z M133.2,344.73h-25.73v-2.62h25.73V344.73z M133.2,339.49h-25.73v-2.63h25.73V339.49z
		 M133.2,334.25h-25.73v-2.63h25.73V334.25z M133.2,329h-25.73v-2.62h25.73V329z M133.2,323.76h-25.73v-2.62h25.73V323.76z
		 M133.2,318.51h-25.73v-2.62h25.73V318.51z M133.2,313.27h-25.73v-2.63h25.73V313.27z M133.2,308.02h-25.73v-2.62h25.73V308.02z
		 M179.57,435.77h-2.67V306.71l2.67-2.93V435.77z"/>
	<path class="st1" d="M377.85,334.69v-40.67l-27.58,30.15v50.13H332.5v-71.84h-4.52l-12.87-12.02l-12.94,12.02h-4.44v96.95H262.2
		l0,0h-29.85v52.81h188.6V334.69H377.85z M327.98,360.47h-25.73v-2.63h25.73V360.47z M327.98,355.22h-25.73v-2.63h25.73V355.22z
		 M327.98,349.98h-25.73v-2.62h25.73V349.98z M327.98,344.73h-25.73v-2.62h25.73V344.73z M327.98,339.49h-25.73v-2.63h25.73V339.49z
		 M327.98,334.25h-25.73v-2.63h25.73V334.25z M327.98,329h-25.73v-2.62h25.73V329z M327.98,323.76h-25.73v-2.62h25.73V323.76z
		 M327.98,318.51h-25.73v-2.62h25.73V318.51z M327.98,313.27h-25.73v-2.63h25.73V313.27z M327.98,308.02h-25.73v-2.62h25.73V308.02z
		 M374.35,435.77h-2.67V306.71l2.67-2.93V435.77z"/>
	<path class="st2" d="M307.46,403.01v-91.92h-4.14v-9.3h-32.04v9.3h-4.12v115.56h-30.07v-52.33H193.3v68.67h-21.16V319.98h-43.13
		v94.51h-5.06v-56.26h-7.8l-21.75-11.49v11.49h-4.76v69.48H79.07v-94.09H68.39v-33.01h-1.46v33.01H56.25v118.8h278.2v-49.41H307.46z
		 M76.5,394.08H58.87v-2.04H76.5V394.08z M76.5,389.34H58.87v-2.04H76.5V389.34z M76.5,384.61H58.87v-2.04H76.5V384.61z
		 M76.5,379.87H58.87v-2.04H76.5V379.87z M76.5,375.14H58.87v-2.04H76.5V375.14z M76.5,370.4H58.87v-2.04H76.5V370.4z M76.5,365.67
		H58.87v-2.04H76.5V365.67z M76.5,360.94H58.87v-2.04H76.5V360.94z M76.5,356.2H58.87v-2.04H76.5V356.2z M76.5,351.47H58.87v-2.04
		H76.5V351.47z M76.5,346.74H58.87v-2.04H76.5V346.74z M76.5,342H58.87v-2.04H76.5V342z M76.5,337.27H58.87v-2.04H76.5V337.27z
		 M138.3,365.45h-5.25v-5.24h5.25V365.45z M138.3,356.71h-5.25v-5.25h5.25V356.71z M138.3,347.96h-5.25v-5.24h5.25V347.96z
		 M138.3,339.22h-5.25v-5.25h5.25V339.22z M138.3,330.47h-5.25v-5.25h5.25V330.47z M148.27,365.45h-5.24v-5.24h5.24V365.45z
		 M148.27,356.71h-5.24v-5.25h5.24V356.71z M148.27,347.96h-5.24v-5.24h5.24V347.96z M148.27,339.22h-5.24v-5.25h5.24V339.22z
		 M148.27,330.47h-5.24v-5.25h5.24V330.47z M158.24,365.45h-5.25v-5.24h5.25V365.45z M158.24,356.71h-5.25v-5.25h5.25V356.71z
		 M158.24,347.96h-5.25v-5.24h5.25V347.96z M158.24,339.22h-5.25v-5.25h5.25V339.22z M158.24,330.47h-5.25v-5.25h5.25V330.47z
		 M168.2,365.45h-5.24v-5.24h5.24V365.45z M168.2,356.71h-5.24v-5.25h5.24V356.71z M168.2,347.96h-5.24v-5.24h5.24V347.96z
		 M168.2,339.22h-5.24v-5.25h5.24V339.22z M311.59,446.27h-5.45v-5.45h5.45V446.27z M311.59,435.35h-5.45v-5.45h5.45V435.35z
		 M311.59,424.43h-5.45v-5.45h5.45V424.43z M311.59,413.51h-5.45v-5.45h5.45V413.51z M321.71,446.27h-5.45v-5.45h5.45V446.27z
		 M321.71,435.35h-5.45v-5.45h5.45V435.35z M321.71,424.43h-5.45v-5.45h5.45V424.43z M321.71,413.51h-5.45v-5.45h5.45V413.51z
		 M331.82,446.27h-5.46v-5.45h5.46V446.27z M331.82,435.35h-5.46v-5.45h5.46V435.35z M331.82,424.43h-5.46v-5.45h5.46V424.43z
		 M331.82,413.51h-5.46v-5.45h5.46V413.51z"/>
	<path class="st2" d="M435.41,393.24v-82.15h-4.14v-9.3h-32.04v9.3h-4.12v115.56h-30.07v-52.33h-43.79v68.67H300.1V319.98h-43.13
		v94.51h-5.06v-56.26h-7.8l-21.75-11.49v11.49h-4.76v69.48h-10.56v-94.09h-10.68v-33.01h-1.46v33.01H184.2v118.8h278.2v-59.17
		H435.41z M204.45,394.08h-17.62v-2.04h17.62V394.08z M204.45,389.34h-17.62v-2.04h17.62V389.34z M204.45,384.61h-17.62v-2.04h17.62
		V384.61z M204.45,379.87h-17.62v-2.04h17.62V379.87z M204.45,375.14h-17.62v-2.04h17.62V375.14z M204.45,370.4h-17.62v-2.04h17.62
		V370.4z M204.45,365.67h-17.62v-2.04h17.62V365.67z M204.45,360.94h-17.62v-2.04h17.62V360.94z M204.45,356.2h-17.62v-2.04h17.62
		V356.2z M204.45,351.47h-17.62v-2.04h17.62V351.47z M204.45,346.74h-17.62v-2.04h17.62V346.74z M204.45,342h-17.62v-2.04h17.62V342
		z M204.45,337.27h-17.62v-2.04h17.62V337.27z M266.25,365.45h-5.25v-5.24h5.25V365.45z M266.25,356.71h-5.25v-5.25h5.25V356.71z
		 M266.25,347.96h-5.25v-5.24h5.25V347.96z M266.25,339.22h-5.25v-5.25h5.25V339.22z M266.25,330.47h-5.25v-5.25h5.25V330.47z
		 M276.22,365.45h-5.24v-5.24h5.24V365.45z M276.22,356.71h-5.24v-5.25h5.24V356.71z M276.22,347.96h-5.24v-5.24h5.24V347.96z
		 M276.22,339.22h-5.24v-5.25h5.24V339.22z M276.22,330.47h-5.24v-5.25h5.24V330.47z M286.19,365.45h-5.25v-5.24h5.25V365.45z
		 M286.19,356.71h-5.25v-5.25h5.25V356.71z M286.19,347.96h-5.25v-5.24h5.25V347.96z M286.19,339.22h-5.25v-5.25h5.25V339.22z
		 M286.19,330.47h-5.25v-5.25h5.25V330.47z M296.16,365.45h-5.24v-5.24h5.24V365.45z M296.16,356.71h-5.24v-5.25h5.24V356.71z
		 M296.16,347.96h-5.24v-5.24h5.24V347.96z M296.16,339.22h-5.24v-5.25h5.24V339.22z M442.31,431.79h-4.71v-4.71h4.71V431.79z
		 M442.31,422.37h-4.71v-4.71h4.71V422.37z M442.31,412.94h-4.71v-4.71h4.71V412.94z M442.31,403.51h-4.71v-4.71h4.71V403.51z
		 M451.04,431.79h-4.71v-4.71h4.71V431.79z M451.04,422.37h-4.71v-4.71h4.71V422.37z M451.04,412.94h-4.71v-4.71h4.71V412.94z
		 M451.04,403.51h-4.71v-4.71h4.71V403.51z M459.78,431.79h-4.71v-4.71h4.71V431.79z M459.78,422.37h-4.71v-4.71h4.71V422.37z
		 M459.78,412.94h-4.71v-4.71h4.71V412.94z M459.78,403.51h-4.71v-4.71h4.71V403.51z"/>
	<rect x="462.4" y="410.78" class="st1" width="18.68" height="41.63"/>
</g>
<g>
	<g>
		<g>
			<path class="st3" d="M135.04,414.82c-2.28-3.66-4.62-7.49-4.99-11.78c-0.35-3.98-1-8.36-0.4-12.31c0.6-3.95,0.33-7.99-0.54-11.89
				c-2.74-12.22-7.87-10.86-9.73-9.93c-1.83,0.92-2.69,2.92-2.78,6.15c-0.07,2.6,1.81,14.74-2.16,12.96
				c-4.59-2.05-4.52-14.74-5.27-18.96c-1.12-6.32-3.75-13.05-8.62-17.42c-2.4-2.15-5.92-3.71-8.8-2.27
				c-1.73,0.86-2.83,2.63-3.44,4.46c-1.84,5.51,0.11,11.21,2.3,16.3c0.92,2.13,8.32,11.95,2.26,11.03
				c-1.45-0.22-13.59-9.59-14.7,0.22c-0.39,3.45,3.49,6.97,9.65,11.35c3.85,2.74,18.06,9.86,17.37,13.68
				c-0.69,3.82-8.58-2.22-7.6,4.88c0.55,3.98,5.8,6.81,9.36,8.29c1.69,0.7,3.52,1.07,5.16,1.88c1.95,0.96,4.34,3.31,2.88,5.62
				c-0.64,1.01-1.89,1.52-2.5,2.55c-0.62,1.05-0.41,2.43,0.24,3.46c0.65,1.03,1.67,1.76,2.71,2.39c6.67,4.03,14.99,4.63,22.62,3.05
				c7.63-1.57,14.69-5.14,21.44-9.03"/>
		</g>
		<g class="st4">
			<path class="st5" d="M95.56,355.98c0,0,8.33,41.55,33.77,67.3"/>
			<path class="st5" d="M84.25,383.5c0,0,14.18,10.9,25.8,12.4"/>
			<path class="st5" d="M121.54,374.08c0.79,6.54,1.5,24.79-4.63,33.65"/>
			<path class="st5" d="M102.81,412.62c0,0,5.58,4.75,22.73,6.57"/>
			<path class="st5" d="M115.87,430.76c0,0,8.86,1.49,16.7-3.19"/>
		</g>
	</g>
	<g>
		<path class="st6" d="M156.22,410.96c-0.88-4.96-10.02-36.16-26.06-27.88c-9.53,4.92-7.81,23.04,7.07,36.73
			c-2.92-2.83-6.29-6.03-10.28-6.82c-2.15-0.43-4.79,0.56-6.4,2.05c-1.44,1.33-1.86,3.42-1.92,5.37c-0.24,7.1,3.46,14.21,9.42,18.08
			c-3.29-1.84-6.14-4.14-9.9-4.46c-1.22-0.1-3.29,0.59-3.85,1.68c-0.61,1.18-0.57,5.62,6.67,8.93c-29.54-5.6-31.26,6.99-20.64,6.99
			c10.62,0,87.08,0,87.08,0"/>
	</g>
	<g>
		<path class="st6" d="M313.19,410.96c0.88-4.96,10.02-36.16,26.06-27.88c9.53,4.92,7.81,23.04-7.07,36.73
			c2.92-2.83,6.29-6.03,10.28-6.82c2.15-0.43,4.79,0.56,6.4,2.05c1.44,1.33,1.86,3.42,1.92,5.37c0.24,7.1-3.46,14.21-9.42,18.08
			c3.29-1.84,6.14-4.14,9.9-4.46c1.22-0.1,3.29,0.59,3.85,1.68c0.61,1.18,0.57,5.62-6.67,8.93c29.54-5.6,31.26,6.99,20.64,6.99
			s-70.17,0-70.17,0"/>
	</g>
	<g>
		<g>
			<path class="st3" d="M306.05,389.18c1.85-3.89,3.75-7.96,3.64-12.26c-0.1-3.99,0.06-8.42-0.98-12.28
				c-1.04-3.86-1.22-7.91-0.79-11.88c1.35-12.45,6.6-11.67,8.56-10.95c1.92,0.71,3,2.6,3.45,5.8c0.36,2.57-0.14,14.85,3.6,12.64
				c4.33-2.56,2.84-15.16,3.11-19.44c0.4-6.4,2.27-13.39,6.61-18.27c2.14-2.4,5.46-4.35,8.49-3.24c1.81,0.66,3.11,2.3,3.92,4.05
				c2.44,5.27,1.15,11.15-0.46,16.46c-0.67,2.22-6.93,12.8-1.01,11.22c1.42-0.38,12.43-11.05,14.63-1.43
				c0.78,3.39-2.69,7.31-8.32,12.36c-3.52,3.15-16.84,11.82-15.73,15.54c1.11,3.72,8.27-3.17,8.1,4c-0.1,4.01-5,7.42-8.37,9.28
				c-1.6,0.89-3.38,1.45-4.92,2.44c-1.83,1.17-3.95,3.78-2.23,5.91c0.75,0.93,2.05,1.3,2.77,2.26c0.73,0.97,0.68,2.37,0.15,3.46
				c-0.53,1.09-1.46,1.94-2.42,2.68c-6.18,4.75-14.38,6.27-22.14,5.57c-7.76-0.71-15.18-3.46-22.32-6.58"/>
		</g>
		<g class="st4">
			<path class="st5" d="M338.69,326.3c0,0-3.63,42.22-26.03,70.66"/>
			<path class="st5" d="M353.02,352.37c0,0-12.87,12.42-24.25,15.21"/>
			<path class="st5" d="M314.9,347.19c-0.05,6.58,1.28,24.8,8.36,32.92"/>
			<path class="st5" d="M337.83,383.39c0,0-5.01,5.34-21.85,9.07"/>
			<path class="st5" d="M326.88,402.87c0,0-8.64,2.47-16.95-1.3"/>
		</g>
	</g>
</g>
<g>
	<g>
		<g>
			<path class="st7" d="M326.04,123.73v302.75c0,13.9-11.26,25.16-25.16,25.16H176.7c-13.9,0-25.16-11.26-25.16-25.16V123.73
				c0-13.88,11.26-25.16,25.16-25.16h124.19C314.78,98.57,326.04,109.85,326.04,123.73z"/>
			<path class="st8" d="M326.04,123.73v4.17h-174.5v-4.17c0-13.88,11.26-25.16,25.16-25.16h124.19
				C314.78,98.57,326.04,109.85,326.04,123.73z"/>
			<path class="st8" d="M326.05,422.3v4.18c0,13.89-11.26,25.15-25.17,25.15H176.7c-13.9,0-25.15-11.26-25.15-25.15v-4.18H326.05z"
				/>
			<path class="st8" d="M328.22,237.03h-2.18V170.4h2.18c1.43,0,2.58,1.16,2.58,2.58v61.47
				C330.8,235.87,329.65,237.03,328.22,237.03z"/>
			<path class="st8" d="M151.54,201.67h-2.02c-1.33,0-2.4-1.07-2.4-2.4v-27.61c0-1.33,1.07-2.4,2.4-2.4h2.02V201.67z"/>
			<path class="st8" d="M151.54,237.03h-1.76c-1.16,0-2.09-0.94-2.09-2.09v-15.76c0-1.16,0.94-2.09,2.09-2.09h1.76V237.03z"/>
			<path class="st9" d="M213.78,113.24c0,2.75-2.23,4.97-4.97,4.97s-4.97-2.23-4.97-4.97c0-2.75,2.23-4.97,4.97-4.97
				S213.78,110.49,213.78,113.24z"/>
			<path class="st9" d="M224.54,113.24c0,1.32-1.07,2.4-2.4,2.4c-1.32,0-2.4-1.07-2.4-2.4c0-1.32,1.07-2.4,2.4-2.4
				C223.47,110.84,224.54,111.91,224.54,113.24z"/>
			<path class="st9" d="M274.8,116.21h-42.67c-0.89,0-1.61-0.72-1.61-1.61v-2.72c0-0.89,0.72-1.61,1.61-1.61h42.67
				c0.89,0,1.61,0.72,1.61,1.61v2.72C276.41,115.49,275.69,116.21,274.8,116.21z"/>
			
				<ellipse transform="matrix(0.2305 -0.9731 0.9731 0.2305 -242.0099 569.0563)" class="st9" cx="238.79" cy="437.54" rx="9.57" ry="9.57"/>
			<rect x="155.39" y="127.9" class="st10" width="165.44" height="294.4"/>
		</g>
		<g>
			<g>
				<rect x="160.13" y="137.14" class="st1" width="156.54" height="86.71"/>
				<g>
					<polygon class="st11" points="215.45,144.02 216.79,146.74 219.78,147.17 217.61,149.29 218.13,152.27 215.45,150.86 
						212.77,152.27 213.28,149.29 211.11,147.17 214.11,146.74 					"/>
					<polygon class="st11" points="228.52,144.02 229.86,146.74 232.85,147.17 230.69,149.29 231.2,152.27 228.52,150.86 
						225.84,152.27 226.35,149.29 224.19,147.17 227.18,146.74 					"/>
					<polygon class="st11" points="241.59,144.02 242.93,146.74 245.93,147.17 243.76,149.29 244.27,152.27 241.59,150.86 
						238.92,152.27 239.43,149.29 237.26,147.17 240.25,146.74 					"/>
					<polygon class="st11" points="254.67,144.02 256.01,146.74 259,147.17 256.84,149.29 257.35,152.27 254.67,150.86 
						251.99,152.27 252.5,149.29 250.33,147.17 253.33,146.74 					"/>
					<polygon class="st11" points="267.74,144.02 269.08,146.74 272.08,147.17 269.91,149.29 270.42,152.27 267.74,150.86 
						265.06,152.27 265.57,149.29 263.41,147.17 266.4,146.74 					"/>
					<g class="st12">
						<line class="st13" x1="310.9" y1="192.84" x2="296.13" y2="192.84"/>
						<line class="st13" x1="233.71" y1="181.71" x2="212.56" y2="181.71"/>
						<line class="st13" x1="310.9" y1="181.71" x2="242.87" y2="181.71"/>
						<line class="st13" x1="310.9" y1="170.58" x2="212.56" y2="170.58"/>
						<line class="st13" x1="247.96" y1="159.44" x2="212.56" y2="159.44"/>
						<line class="st13" x1="310.9" y1="159.44" x2="256.77" y2="159.44"/>
						<line class="st13" x1="287" y1="192.84" x2="212.56" y2="192.84"/>
					</g>
				</g>
			</g>
			<g>
				<rect x="166.21" y="149.92" class="st14" width="37.54" height="68.08"/>
				<g>
					<rect x="179.02" y="201.67" class="st15" width="11.66" height="16.32"/>
					<rect x="171.43" y="144.4" class="st14" width="26.83" height="4.68"/>
					<g class="st16">
						<rect x="186.29" y="180.92" class="st10" width="5.86" height="5.86"/>
						<rect x="195.03" y="180.92" class="st10" width="5.86" height="5.86"/>
						<rect x="168.8" y="190.02" class="st10" width="5.86" height="5.86"/>
						<rect x="177.55" y="190.02" class="st10" width="5.86" height="5.86"/>
						<rect x="186.29" y="190.02" class="st10" width="5.86" height="5.86"/>
						<rect x="195.03" y="190.02" class="st10" width="5.86" height="5.86"/>
						<rect x="168.8" y="153.61" class="st10" width="5.86" height="5.86"/>
						<rect x="177.55" y="153.61" class="st10" width="5.86" height="5.86"/>
						<rect x="186.29" y="153.61" class="st10" width="5.86" height="5.86"/>
						<rect x="195.03" y="153.61" class="st10" width="5.86" height="5.86"/>
						<rect x="168.8" y="162.72" class="st10" width="5.86" height="5.86"/>
						<rect x="177.55" y="162.72" class="st10" width="5.86" height="5.86"/>
						<rect x="186.29" y="162.72" class="st10" width="5.86" height="5.86"/>
						<rect x="195.03" y="162.72" class="st10" width="5.86" height="5.86"/>
						<rect x="168.8" y="171.82" class="st10" width="5.86" height="5.86"/>
						<rect x="177.55" y="171.82" class="st10" width="5.86" height="5.86"/>
						<rect x="186.29" y="171.82" class="st10" width="5.86" height="5.86"/>
						<rect x="195.03" y="171.82" class="st10" width="5.86" height="5.86"/>
						<rect x="168.8" y="180.92" class="st10" width="5.86" height="5.86"/>
						<rect x="177.55" y="180.92" class="st10" width="5.86" height="5.86"/>
					</g>
					<rect x="164.8" y="215.39" class="st17" width="40.08" height="2.6"/>
				</g>
			</g>
			<path class="st9" d="M252.58,217.99h-33.89c-4.19,0-7.58-3.39-7.58-7.58l0,0c0-4.19,3.39-7.58,7.58-7.58h33.89
				c4.19,0,7.58,3.39,7.58,7.58l0,0C260.17,214.6,256.77,217.99,252.58,217.99z"/>
			<text transform="matrix(1 0 0 1 224.0791 213.1421)" class="st18 st19 st20">BOOK</text>
		</g>
		<g>
			<g>
				<rect x="160.13" y="232.62" class="st1" width="156.54" height="86.71"/>
				<g>
					<polygon class="st11" points="215.45,239.5 216.79,242.21 219.78,242.65 217.61,244.76 218.13,247.74 215.45,246.33 
						212.77,247.74 213.28,244.76 211.11,242.65 214.11,242.21 					"/>
					<polygon class="st11" points="228.52,239.5 229.86,242.21 232.85,242.65 230.69,244.76 231.2,247.74 228.52,246.33 
						225.84,247.74 226.35,244.76 224.19,242.65 227.18,242.21 					"/>
					<polygon class="st11" points="241.59,239.5 242.93,242.21 245.93,242.65 243.76,244.76 244.27,247.74 241.59,246.33 
						238.92,247.74 239.43,244.76 237.26,242.65 240.25,242.21 					"/>
					<polygon class="st21" points="254.67,239.5 256.01,242.21 259,242.65 256.84,244.76 257.35,247.74 254.67,246.33 
						251.99,247.74 252.5,244.76 250.33,242.65 253.33,242.21 					"/>
					<polygon class="st21" points="267.74,239.5 269.08,242.21 272.08,242.65 269.91,244.76 270.42,247.74 267.74,246.33 
						265.06,247.74 265.57,244.76 263.41,242.65 266.4,242.21 					"/>
					<g class="st12">
						<line class="st13" x1="310.9" y1="288.31" x2="296.13" y2="288.31"/>
						<line class="st13" x1="233.71" y1="277.18" x2="212.56" y2="277.18"/>
						<line class="st13" x1="310.9" y1="277.18" x2="242.87" y2="277.18"/>
						<line class="st13" x1="310.9" y1="266.05" x2="212.56" y2="266.05"/>
						<line class="st13" x1="247.96" y1="254.92" x2="212.56" y2="254.92"/>
						<line class="st13" x1="310.9" y1="254.92" x2="256.77" y2="254.92"/>
						<line class="st13" x1="287" y1="288.31" x2="212.56" y2="288.31"/>
					</g>
				</g>
			</g>
			<g>
				<rect x="166.21" y="245.39" class="st14" width="37.54" height="68.08"/>
				<g>
					<rect x="179.02" y="297.14" class="st15" width="11.66" height="16.32"/>
					<rect x="171.43" y="239.87" class="st14" width="26.83" height="4.68"/>
					<g class="st16">
						<rect x="186.29" y="276.39" class="st10" width="5.86" height="5.86"/>
						<rect x="195.03" y="276.39" class="st10" width="5.86" height="5.86"/>
						<rect x="168.8" y="285.5" class="st10" width="5.86" height="5.86"/>
						<rect x="177.55" y="285.5" class="st10" width="5.86" height="5.86"/>
						<rect x="186.29" y="285.5" class="st10" width="5.86" height="5.86"/>
						<rect x="195.03" y="285.5" class="st10" width="5.86" height="5.86"/>
						<rect x="168.8" y="249.09" class="st10" width="5.86" height="5.86"/>
						<rect x="177.55" y="249.09" class="st10" width="5.86" height="5.86"/>
						<rect x="186.29" y="249.09" class="st10" width="5.86" height="5.86"/>
						<rect x="195.03" y="249.09" class="st10" width="5.86" height="5.86"/>
						<rect x="168.8" y="258.19" class="st10" width="5.86" height="5.86"/>
						<rect x="177.55" y="258.19" class="st10" width="5.86" height="5.86"/>
						<rect x="186.29" y="258.19" class="st10" width="5.86" height="5.86"/>
						<rect x="195.03" y="258.19" class="st10" width="5.86" height="5.86"/>
						<rect x="168.8" y="267.29" class="st10" width="5.86" height="5.86"/>
						<rect x="177.55" y="267.29" class="st10" width="5.86" height="5.86"/>
						<rect x="186.29" y="267.29" class="st10" width="5.86" height="5.86"/>
						<rect x="195.03" y="267.29" class="st10" width="5.86" height="5.86"/>
						<rect x="168.8" y="276.39" class="st10" width="5.86" height="5.86"/>
						<rect x="177.55" y="276.39" class="st10" width="5.86" height="5.86"/>
					</g>
					<rect x="164.8" y="310.86" class="st17" width="40.08" height="2.6"/>
				</g>
			</g>
			<path class="st9" d="M252.58,313.47h-33.89c-4.19,0-7.58-3.39-7.58-7.58l0,0c0-4.19,3.39-7.58,7.58-7.58h33.89
				c4.19,0,7.58,3.39,7.58,7.58l0,0C260.17,310.07,256.77,313.47,252.58,313.47z"/>
			<text transform="matrix(1 0 0 1 224.0791 308.6143)" class="st18 st19 st20">BOOK</text>
		</g>
		<g>
			<g>
				<rect x="160.13" y="328.09" class="st1" width="156.54" height="86.71"/>
				<g>
					<polygon class="st11" points="215.45,334.97 216.79,337.68 219.78,338.12 217.61,340.23 218.13,343.22 215.45,341.81 
						212.77,343.22 213.28,340.23 211.11,338.12 214.11,337.68 					"/>
					<polygon class="st11" points="228.52,334.97 229.86,337.68 232.85,338.12 230.69,340.23 231.2,343.22 228.52,341.81 
						225.84,343.22 226.35,340.23 224.19,338.12 227.18,337.68 					"/>
					<polygon class="st11" points="241.59,334.97 242.93,337.68 245.93,338.12 243.76,340.23 244.27,343.22 241.59,341.81 
						238.92,343.22 239.43,340.23 237.26,338.12 240.25,337.68 					"/>
					<polygon class="st11" points="254.67,334.97 256.01,337.68 259,338.12 256.84,340.23 257.35,343.22 254.67,341.81 
						251.99,343.22 252.5,340.23 250.33,338.12 253.33,337.68 					"/>
					<polygon class="st21" points="267.74,334.97 269.08,337.68 272.08,338.12 269.91,340.23 270.42,343.22 267.74,341.81 
						265.06,343.22 265.57,340.23 263.41,338.12 266.4,337.68 					"/>
					<g class="st12">
						<line class="st13" x1="310.9" y1="383.79" x2="296.13" y2="383.79"/>
						<line class="st13" x1="233.71" y1="372.65" x2="212.56" y2="372.65"/>
						<line class="st13" x1="310.9" y1="372.65" x2="242.87" y2="372.65"/>
						<line class="st13" x1="310.9" y1="361.52" x2="212.56" y2="361.52"/>
						<line class="st13" x1="247.96" y1="350.39" x2="212.56" y2="350.39"/>
						<line class="st13" x1="310.9" y1="350.39" x2="256.77" y2="350.39"/>
						<line class="st13" x1="287" y1="383.79" x2="212.56" y2="383.79"/>
					</g>
				</g>
			</g>
			<g>
				<rect x="166.21" y="340.87" class="st14" width="37.54" height="68.08"/>
				<g>
					<rect x="179.02" y="392.62" class="st15" width="11.66" height="16.32"/>
					<rect x="171.43" y="335.34" class="st14" width="26.83" height="4.68"/>
					<g class="st16">
						<rect x="186.29" y="371.87" class="st10" width="5.86" height="5.86"/>
						<rect x="195.03" y="371.87" class="st10" width="5.86" height="5.86"/>
						<rect x="168.8" y="380.97" class="st10" width="5.86" height="5.86"/>
						<rect x="177.55" y="380.97" class="st10" width="5.86" height="5.86"/>
						<rect x="186.29" y="380.97" class="st10" width="5.86" height="5.86"/>
						<rect x="195.03" y="380.97" class="st10" width="5.86" height="5.86"/>
						<rect x="168.8" y="344.56" class="st10" width="5.86" height="5.86"/>
						<rect x="177.55" y="344.56" class="st10" width="5.86" height="5.86"/>
						<rect x="186.29" y="344.56" class="st10" width="5.86" height="5.86"/>
						<rect x="195.03" y="344.56" class="st10" width="5.86" height="5.86"/>
						<rect x="168.8" y="353.66" class="st10" width="5.86" height="5.86"/>
						<rect x="177.55" y="353.66" class="st10" width="5.86" height="5.86"/>
						<rect x="186.29" y="353.66" class="st10" width="5.86" height="5.86"/>
						<rect x="195.03" y="353.66" class="st10" width="5.86" height="5.86"/>
						<rect x="168.8" y="362.77" class="st10" width="5.86" height="5.86"/>
						<rect x="177.55" y="362.77" class="st10" width="5.86" height="5.86"/>
						<rect x="186.29" y="362.77" class="st10" width="5.86" height="5.86"/>
						<rect x="195.03" y="362.77" class="st10" width="5.86" height="5.86"/>
						<rect x="168.8" y="371.87" class="st10" width="5.86" height="5.86"/>
						<rect x="177.55" y="371.87" class="st10" width="5.86" height="5.86"/>
					</g>
					<rect x="164.8" y="406.34" class="st17" width="40.08" height="2.6"/>
				</g>
			</g>
			<path class="st9" d="M252.58,408.94h-33.89c-4.19,0-7.58-3.39-7.58-7.58l0,0c0-4.19,3.39-7.58,7.58-7.58h33.89
				c4.19,0,7.58,3.39,7.58,7.58l0,0C260.17,405.55,256.77,408.94,252.58,408.94z"/>
			<text transform="matrix(1 0 0 1 224.0791 404.088)" class="st18 st19 st20">BOOK</text>
		</g>
		<g>
			<polygon class="st22" points="264.87,127.9 155.39,295.53 155.39,202.16 203.89,127.9 			"/>
			<polygon class="st22" points="310.97,127.9 155.39,366.11 155.39,322.85 282.72,127.9 			"/>
			<polygon class="st22" points="320.83,225.37 320.83,268.64 220.48,422.3 192.22,422.3 			"/>
		</g>
	</g>
</g>
<path class="st6" d="M502.92,452.73H9.73c-0.31,0-0.56-0.25-0.56-0.56l0,0c0-0.31,0.25-0.56,0.56-0.56h493.19
	c0.31,0,0.56,0.25,0.56,0.56l0,0C503.48,452.48,503.23,452.73,502.92,452.73z"/>
<g>
	<path class="st1" d="M430.46,481.02c0,4.05-26.24,7.33-58.62,7.33c-32.37,0-58.62-3.28-58.62-7.33c0-4.05,26.24-7.33,58.62-7.33
		C404.22,473.69,430.46,476.97,430.46,481.02z"/>
	<g>
		<g>
			<g>
				<g>
					<g>
						<path class="st23" d="M425.39,310.33c0,0,3.3-0.53,3.86,1.31c0.55,1.84,0.24,15.33,0.08,16.9c-0.16,1.57-3.12,3.66-6.96,4.71
							C423.06,324.35,425.39,310.33,425.39,310.33z"/>
					</g>
				</g>
				<g>
					<g>
						<path class="st24" d="M419.22,298.45c0,0,5.16,0.22,6.36,3.08c1.19,2.86,1,26.98,0.07,29.6c-0.93,2.62-5.52,2.57-14.32,4.93
							c5.15-8.61,5.63-12.27,5.57-13.71C416.83,320.92,419.22,298.45,419.22,298.45z"/>
					</g>
				</g>
				<g>
					<g>
						<path class="st23" d="M413.14,261.96c0,0,4.45,4.74,6.67,12.65c2.22,7.91,2.98,16.77,2.83,17.29
							c-0.16,0.52-4.49,1.22-4.85,1.18C417.43,293.05,413.14,261.96,413.14,261.96z"/>
					</g>
				</g>
				<path class="st25" d="M355.84,254.09c1.86-4.01,12.62-6.7,21.56-6.11c7.21,0.47,14.35,2.22,21.2,4.44
					c3.27,1.06,6.66,1.87,9.73,3.46c3.69,1.9,5.41,4.8,6.58,8.74c3.4,11.51,4.43,23.33,4.89,35.27c0.37,9.59,0.69,19.28-0.13,28.86
					c-0.18,2.12-0.13,8.85-2.7,9.9c-5.17,2.11-13.54,3.11-17.31,2.72c-2.22-0.23-2.2-11.3-2.28-12.7
					c-0.51-8.36-0.63-16.75-0.69-25.13c-0.07-10.38,0.06-20.72-0.67-31.09c-0.3-4.17-2.99-3.4-6.25-3.85
					c-2.74-0.37-5.47-0.8-8.19-1.3C377.16,266.49,351.93,262.51,355.84,254.09z"/>
				<g>
					<g>
						<path class="st23" d="M401.04,302.53l0.74,32.27c0.06,2.4,1.86,4.26,3.98,4.11c2.4-0.17,5.19-0.56,7.82-1.16
							c1.64-0.37,2.94-1.79,3.26-3.65c1.14-6.47,2.15-16.25,1.3-32.16c-0.11-2.13-2.09-3.39-3.8-2.47
							C408.22,302.76,401.04,302.53,401.04,302.53z"/>
					</g>
				</g>
				<g>
					<g>
						<path class="st24" d="M390.39,252.32c0,0,0.11,1.94-1.08,3.06c-0.58,0.64-1.94-0.15-1.94-0.15s-8.75-3.26-10.58-2.73
							c-1.3-0.82-1.71-3.04-1.22-3.71C376.06,248.14,384.84,246.97,390.39,252.32z"/>
					</g>
				</g>
				<g>
					<g>
						<path class="st26" d="M387.74,249.59c2.73,1.5,5.55,2.84,8.28,4.35c2.73,1.51,5.69,3.09,7.74,5.48
							c4.13,4.8,4,11.88,4.33,17.83c0.07,1.22,0.14,2.43,0.21,3.65c0.04,0.64,0.07,1.28,0.11,1.92c0.05,0.91,0,1.89,0.28,2.76
							c0.08,0.24,0.47,0.28,0.52,0c0.16-0.79,0.04-1.6-0.01-2.41c-0.04-0.67-0.08-1.34-0.11-2.01c-0.06-1.09-0.12-2.19-0.19-3.28
							c-0.18-3.14-0.28-6.31-0.74-9.43c-0.45-3.03-1.29-6.1-3.1-8.62c-1.91-2.65-4.81-4.33-7.6-5.9c-3.07-1.73-6.28-3.46-9.61-4.61
							C387.69,249.28,387.6,249.51,387.74,249.59L387.74,249.59z"/>
					</g>
				</g>
				<g>
					<g>
						<path class="st26" d="M408.78,284.28c-0.16,0.81-0.18,1.65-0.15,2.48c0.02,0.4,0.05,0.81,0.11,1.21
							c0.06,0.38,0.11,0.76,0.4,1.05c0.26,0.26,0.63,0.3,0.92,0.06c0.27-0.22,0.39-0.57,0.43-0.9c0.1-0.73,0.08-1.48-0.1-2.2
							c-0.1-0.39-0.24-0.78-0.43-1.14c-0.1-0.19-0.22-0.37-0.35-0.54c-0.13-0.17-0.27-0.36-0.51-0.34c-0.1,0.01-0.23,0.07-0.24,0.18
							c-0.03,0.22,0.06,0.34,0.19,0.51c0.11,0.14,0.21,0.29,0.3,0.45c0.19,0.33,0.32,0.67,0.4,1.04c0.09,0.37,0.13,0.74,0.14,1.12
							c0,0.34,0.02,0.76-0.11,1.09c-0.02,0.06-0.06,0.14-0.1,0.19c-0.03,0.04-0.08,0.06-0.06,0.06c-0.13-0.02-0.19-0.33-0.21-0.42
							c-0.09-0.41-0.13-0.84-0.16-1.26c-0.05-0.86,0.01-1.72-0.03-2.58C409.22,284.1,408.83,284.02,408.78,284.28L408.78,284.28z"/>
					</g>
				</g>
			</g>
			<g>
				<path class="st27" d="M340.78,274.11c-2.32,0.81-4.27,2.64-5.24,4.9c-0.15,0.34-0.27,0.7-0.27,1.07c0,0.33,0.11,0.65,0.21,0.97
					c0.22,0.68,0.45,1.35,0.67,2.03c0.23,0.71,0.49,1.46,0.99,2.03c0.5,0.58,1.23,0.85,1.81,0.23c0.61-0.66,1.14-1.5,1.54-2.3
					c0.87-1.75,1.27-3.74,1.15-5.69c-0.06-0.86-0.21-1.71-0.48-2.53"/>
			</g>
			<g>
				<path class="st28" d="M322.28,272.24c9.65-6.57,25.39-12.24,30.95-14.82l6.03,16.15c-9.07,4.21-29.91,12.96-38.1,12.91l0,0
					C327.91,284.68,322.28,272.24,322.28,272.24z"/>
			</g>
			<path class="st28" d="M307.97,268.71c-5.74-13.73-9.65-29.28-9.65-29.28l3.57-2.31c0,0,10.24,14.45,17.92,29.15
				c0,0,8.69,13.79,4.2,19.15l0,0c-1.1,0.76-2.06,1.15-2.82,1.04C315.75,285.63,310.42,274.57,307.97,268.71z"/>
			<g>
				<path class="st28" d="M367.84,242.97c0.46,2.65,0.06,5.59-0.65,8.15c-0.84,3.03-1.93,2.76-5.03,2.97c-1.92,0.13-5.48,0-5.48,0
					s-1.45,3.1-1.55,3.43c-0.07,0.24-0.05,0.5-0.02,0.75c0.41,3.13,2.36,5.86,4.6,8.09c1.23,1.23,2.6,2.38,4.19,3.09
					c2.61,1.16,5.6,1.05,8.42,0.58c2.31-0.39,4.59-1.02,6.78-1.87c0.99-0.39,1.98-0.83,2.78-1.53c1.8-1.57,2.34-4.1,2.77-6.45
					c0.16-0.88,0.31-1.86-0.16-2.62c-0.29-0.47-1.3-0.84-1.8-1.07c-1.77-0.82-3.31-0.78-5.1-1.54c-5.18-2.19-4.64-8.22-3.07-12.66"
					/>
			</g>
			<g>
				<path class="st29" d="M361.57,254.12c-3.57-0.15-6.85,0.57-9.76,1.85c-8.31,3.66-16.21,9-16.21,9s4.86,0.08,4.62,16.85
					c-0.02,1.41-0.51,2.69-1.78,3.88c5.38-2.13,14.86-7.66,14.86-7.66"/>
			</g>
			<g>
				<path class="st28" d="M383.58,234.85l-8.65-16.95c-10.38-0.57-16.71,12.88-19.26,17.8c-0.95,1.84-1.75,4.08-0.79,5.91
					c0.77,1.47,2.44,2.2,4,2.77C363.35,245.99,380.67,250.28,383.58,234.85z"/>
			</g>
			<g>
				<path class="st28" d="M362.16,227.23c-1.92,1.16-6.54,2.46-6.95,3.48c-0.4,1.02,3.58,2.55,5.6,3.4"/>
			</g>
			<g>
				<g>
					<path class="st29" d="M383.58,241.95c3.96,5.29,12.3,7.66,17.38,5.7c2.53-0.98,2.35-4.08,1.69-5.26
						c-2.62-4.69-5.69-7.57-10.11-11.08"/>
				</g>
				<g>
					<path class="st30" d="M382.84,220.92l-9.19-7.94c-2-1.25-4.21-2.31-6.56-2.44c-2.35-0.13-4.88,0.83-6.1,2.85
						c-0.52,0.88-0.78,1.96-0.48,2.93c0.21,0.67,0.64,1.21,1.18,1.65c-0.42,0.28-0.81,0.6-1.13,0.99c-0.51,0.63-0.82,1.46-0.7,2.26
						c0.22,1.48,1.74,2.4,3.18,2.83c2.03,0.62,4.86,0.73,7.1,0.03c-0.75,1.97-0.73,5.12,5.98,6.16c-0.97,0.42-1.57,1.54-1.41,2.58
						c0.17,1.04,1.1,1.91,2.15,2.01c-0.5,1.81-1,3.62-1.5,5.42c-0.26,0.94-0.52,1.93-0.26,2.86c0.35,1.26,1.57,2.1,2.82,2.49
						c1.86,0.58,6.67-2.01,7.37-5.25L382.84,220.92z"/>
				</g>
				<g>
					<path class="st31" d="M370.27,209.81c4.79-1.32,17.93-4.16,22.91,10.8c1.78,5.35,1.8,15.25-6.22,19.34l-6.71-6.92l-10.06-20.55
						"/>
				</g>
				<g>
					<path class="st29" d="M370.86,209.35l-3.43,0.81c3.72,11.46,8.28,23.8,16.73,32.4l3.64-2.23
						C380.32,233.06,374.75,219.61,370.86,209.35z"/>
				</g>
			</g>
			<g>
				<path class="st28" d="M375.25,235.65c0.53-0.47,1.39-0.5,2-0.14c0.61,0.36,0.99,1.06,1.05,1.78c0.06,0.71-0.16,1.43-0.53,2.04
					c-0.73,1.19-2.07,2.01-3.47,1.98c-1.39-0.03-2.75-0.99-3.13-2.33"/>
			</g>
			<g>
				<g>
					<g>
						<path class="st32" d="M355.49,442.14c0,0,0.77,15.42,1.9,24.27c0,0-6.04,5.76-9.01,7.36c0,0,17.92,1.3,16.62-3.62
							c-1.3-4.91-1.31-17.7-0.04-28.25"/>
					</g>
					<path class="st26" d="M343.16,477.7c-2.68,0.78,0.54,4.43,1.95,4.64c1.41,0.21,2.83-0.2,4.2-0.58
						c5.24-1.43,10.64-2.32,16.08-2.64c0.34-0.02,0.69-0.06,0.95-0.26c0.94-0.69,1.05-1.76,0.8-2.28c-0.25-0.52-0.6-1.06-0.5-1.63"
						/>
					<g>
						<path class="st33" d="M366.95,474.52c-0.44-1.91-0.09-8.44-2.62-7.67c-1.6,2.29-4.48,2.8-6.67,1.07
							c-0.32-0.25-1.34-2.88-2.81-1.04c-1.55,1.94-3.53,3.26-6.41,5.51c-1.31,1.03-6.67,3.52-6.62,5.19
							c0.06,2.06,0.89,3.27,2.95,3.43c2.06,0.15,5.04-0.86,6.99-1.53c4.1-1.41,8.72-1.79,13.05-2.08c0.73-0.05,1.55-0.13,2-0.71
							C367.27,476.1,367.12,475.25,366.95,474.52z"/>
					</g>
					<g>
						<path class="st26" d="M356.05,466.39c1.31,3.08,8.59,4.32,9.19,0.17c0.05-0.31-0.3-0.58-0.56-0.33c-1.4,1.36-3,2.1-4.98,1.58
							c-1.28-0.34-2.15-1.35-3.35-1.82C356.11,465.9,355.97,466.2,356.05,466.39L356.05,466.39z"/>
					</g>
					<g>
						<path class="st26" d="M349.19,471c0.58,0.52,1.16,1.05,1.66,1.65c0.47,0.57,0.87,1.23,1.49,1.65
							c0.24,0.16,0.57-0.05,0.57-0.33c0-1.7-1.95-3.07-3.37-3.59C349.2,470.26,348.92,470.76,349.19,471L349.19,471z"/>
					</g>
					<g>
						<path class="st26" d="M351.08,469.81c0.65,0.2,1.29,0.77,1.76,1.25c0.45,0.47,0.88,1.05,1.38,1.44
							c0.23,0.18,0.61,0.08,0.61-0.25c0-0.81-0.59-1.63-1.2-2.12c-0.73-0.58-1.49-0.77-2.35-1.03
							C350.82,468.96,350.63,469.67,351.08,469.81L351.08,469.81z"/>
					</g>
					<g>
						<path class="st26" d="M352.5,468.53c0.77,0.4,1.45,0.9,2.03,1.55c0.54,0.6,0.99,1.26,1.65,1.73c0.29,0.21,0.7-0.07,0.7-0.4
							c0-2-2.27-3.36-3.92-3.96C352.32,467.21,351.9,468.22,352.5,468.53L352.5,468.53z"/>
					</g>
				</g>
				<g>
					<path class="st34" d="M375.74,314.13c7.18,11.4-1.33,64.16-8.8,88.21c4.48,15.64-2.62,52.33-2.62,52.33s-3.85,1-8.38,0.22
						c-0.26-1-7.54-52.91-6.72-62.81c1.06-12.9-7.17-54.65,3.38-67.91"/>
				</g>
			</g>
			<g>
				<g>
					<g>
						<path class="st32" d="M386.43,445.03c0,0,2.42,15.25,4.49,23.92c0,0-5.39,6.38-8.17,8.28c0,0,17.96-0.63,16.14-5.38
							c-1.82-4.75-3.2-17.45-3.07-28.09"/>
					</g>
					<path class="st26" d="M376.37,479.58c-2.71,0.68,0.37,4.45,1.77,4.71c1.4,0.27,2.83-0.09,4.21-0.41
						c5.29-1.23,10.72-1.9,16.17-2.01c0.34-0.01,0.69-0.03,0.96-0.22c0.97-0.65,1.11-1.72,0.89-2.25c-0.23-0.53-0.56-1.09-0.44-1.65
						"/>
					<g>
						<path class="st33" d="M400.27,477.33c-0.37-1.92,0.24-8.44-2.32-7.77c-1.68,2.23-4.58,2.62-6.71,0.81
							c-0.31-0.26-1.23-2.93-2.77-1.15c-1.63,1.87-3.65,3.12-6.62,5.26c-1.35,0.98-6.8,3.26-6.81,4.93
							c-0.02,2.06,0.76,3.3,2.81,3.54c2.05,0.23,5.07-0.66,7.04-1.25c4.15-1.25,8.78-1.44,13.12-1.57c0.73-0.02,1.55-0.07,2.02-0.63
							C400.52,478.91,400.41,478.07,400.27,477.33z"/>
					</g>
					<g>
						<path class="st26" d="M389.68,468.75c1.21,3.18,8.44,4.67,9.2,0.5c0.05-0.27-0.31-0.51-0.53-0.32
							c-1.31,1.17-2.61,1.86-4.44,1.55c-1.59-0.26-2.48-1.47-3.87-2.08C389.82,468.31,389.6,468.53,389.68,468.75L389.68,468.75z"/>
					</g>
					<g>
						<path class="st26" d="M382.7,473.15c0.56,0.54,1.11,1.09,1.58,1.72c0.42,0.56,0.79,1.21,1.37,1.64
							c0.21,0.15,0.6,0.06,0.61-0.24c0.05-1.71-1.75-3.16-3.19-3.74C382.67,472.37,382.4,472.87,382.7,473.15L382.7,473.15z"/>
					</g>
					<g>
						<path class="st26" d="M384.55,471.98c1.38,0.48,2.08,1.95,3.11,2.86c0.26,0.23,0.58-0.04,0.58-0.32c0-0.79-0.53-1.59-1.1-2.09
							c-0.69-0.61-1.45-0.83-2.29-1.12C384.4,471.16,384.1,471.83,384.55,471.98L384.55,471.98z"/>
					</g>
					<g>
						<path class="st26" d="M386.14,470.82c0.74,0.42,1.4,0.97,1.93,1.63c0.48,0.6,0.9,1.23,1.5,1.72c0.35,0.28,0.75-0.04,0.75-0.42
							c0.01-1.94-2.11-3.35-3.7-4.02C385.89,469.43,385.48,470.45,386.14,470.82L386.14,470.82z"/>
					</g>
				</g>
				<g>
					<path class="st34" d="M392.84,315.6c8.36,10.57,7.97,41.8,0.7,88.65c6.13,15.07,2.51,48.92,2.51,48.92s-3.84,2.07-8.42,1.78
						c-0.37-0.97-12.55-49.06-12.8-59c-0.33-12.93-12.98-53.57-3.92-67.88"/>
				</g>
				<path class="st35" d="M348.86,337.56c1.76,1.79,3.54,3.61,5.7,4.88c2.77,1.64,6.02,2.29,9.22,2.6c3.2,0.31,6.44,0.3,9.63,0.74
					c2.44,0.33,4.85,0.93,7.3,1.07c2.39,0.14,4.79-0.16,7.19-0.22c2.07-0.05,4.26,0.05,6.09-0.93c0.67-0.36,1.28-0.87,1.62-1.55
					c0.69-1.41,0.01-3.11-0.87-4.41c-1.76-2.62-4.32-4.65-7.12-6.12c-2.8-1.47-5.85-2.4-8.92-3.16"/>
			</g>
			<g>
				<path class="st31" d="M380.36,255.72c0.09,0.03-0.55,1.53-0.62,1.66c-0.28,0.55-0.63,1.07-1.02,1.55
					c-1.66,2.05-4.14,3.53-6.72,4.02c-2.76,0.52-5.61-0.2-7.79-1.97c-1.01-0.81-1.86-1.85-2.34-3.06c-0.13-0.33-0.85-3.8-0.29-3.8
					l-4.89-0.03l-9.45,23.58c0.7,33.54,0,59.06,0,59.06c5.81,4.62,9.92,4.91,27.07,6.5c17.16,1.59,21.14,2.55,26.66-2.82
					c-1.72-6.95,0.85-37.97-13.04-70.04c-1.58-3.64,1.48-8.19-0.55-11.82C386.68,257.3,383.2,256.55,380.36,255.72z"/>
			</g>
			<g>
				<defs>
					<path id="SVGID_1_" d="M380.36,255.72c0.42,0.49-3.83,5.2-4.29,5.52c-3.68,2.51-8.34,2.59-11.87-0.25
						c-1.01-0.81-1.86-1.85-2.34-3.06c-0.13-0.33-0.85-3.8-0.29-3.8l-4.89-0.03l-9.45,23.58c0.7,33.54,0,59.06,0,59.06
						c5.81,4.62,9.92,4.91,27.07,6.5c17.16,1.59,21.14,2.55,26.66-2.82C398.98,332.4,402.69,292.43,380.36,255.72z"/>
				</defs>
				<clipPath id="SVGID_2_">
					<use xlink:href="#SVGID_1_"  style="overflow:visible;"/>
				</clipPath>
				<g class="st36">
					<g>
						<g>
							<path class="st37" d="M399.26,304.5c-1.42-10.55-8.52-19.32-15.48-27.32c9.59,4.83,16.61,14.57,18.22,25.27"/>
						</g>
						<g>
							<path class="st37" d="M385.86,279.24c-0.4-0.28-0.15-0.65-0.33-1.11c-0.99-2.57-2.42-5.56-1.41-8.12
								c0.35-0.88,0.92-1.66,1.53-2.39c0.51-0.61,1.07-1.21,1.77-1.6c1.42-0.8,3.23-0.61,4.71,0.09c1.48,0.7,2.69,1.85,3.88,2.98
								c-2.58-0.67-5.3-0.79-7.93-0.36c1.53,0.26,2.99,0.95,4.17,1.98c-1.96,0.53-4.22-0.94-5.97,0.07
								c0.85,0.38,1.69,0.77,2.54,1.15c-1.17-0.01-2.04,1.07-2.61,2.1c-0.73,1.32-0.04,2.59-0.4,4.06"/>
						</g>
						<g>
							<path class="st37" d="M385.02,278.12c0.78-2.98,3.68-5.15,6.72-5.42c3.05-0.28,6.11,1.16,8.2,3.41s3.28,5.26,3.76,8.31
								c-0.74-0.24-1.24-0.92-1.72-1.54c-2.13-2.79-4.97-5.23-8.39-5.89c0.84,1.5,1.45,3.14,1.81,4.82
								c-1.1-1.87-2.63-3.48-4.42-4.68c0.58,1.24,1.16,2.47,1.75,3.71c-1.98-2.13-4.22-1.99-7.12-1.95"/>
						</g>
					</g>
				</g>
			</g>
			<g class="st4">
				<path class="st38" d="M394.27,301.01c2.09,2.9,2.13,5.55,4.08,8.24c-0.49-2.89-0.55-5.55-1.3-8.64
					c-0.01-0.01-0.99-1.51-2.2-3.03c-0.92,0.49-2.08,0.32-3.46,0.35c-2.18-7.02-3.04-7.94-7.14-14.05c-0.35-0.52-0.7-1.04-1.04-1.56
					c3.43,7.33,5.16,13.58,6.86,19.88C391.91,301.81,392.56,301.81,394.27,301.01z"/>
			</g>
			<g>
				<path class="st28" d="M396.7,343.41c-2.15,2.03-4.3,4.05-6.45,6.08c-0.13,0.12-0.27,0.27-0.28,0.45
					c-0.01,0.14,0.07,0.26,0.14,0.38c1.48,2.38,3.06,4.71,4.72,6.97c0.1,0.13,0.21,0.28,0.38,0.29c0.18,0.02,0.33-0.14,0.45-0.28
					c1.26-1.57,2.28-3.32,3.29-5.07c0.22-0.38,0.44-0.76,0.58-1.17c0.21-0.6,0.24-1.25,0.26-1.89c0.06-2.04-0.03-4.08-0.26-6.1"/>
			</g>
			<g>
				<g>
					<path class="st39" d="M387.47,346.05c1.22,2.58,2.68,5.03,4.15,7.47c0.73,1.2,1.46,2.4,2.21,3.58
						c0.72,1.15,1.39,2.48,2.29,3.49c0.26,0.29,0.64-0.08,0.5-0.39c-0.28-0.61-0.71-1.17-1.07-1.74c-0.39-0.61-0.78-1.22-1.16-1.83
						c-0.75-1.19-1.49-2.38-2.22-3.58c-1.46-2.4-2.87-4.83-4.44-7.16C387.62,345.73,387.39,345.87,387.47,346.05L387.47,346.05z"/>
				</g>
			</g>
			<g>
				<path class="st35" d="M372.42,380.28c-0.01-0.38-0.02-0.68-0.02-0.84c0.01-0.67-0.11-1.34-0.23-2
					c-1.13-6.3-3.38-18.89-3.38-18.89s-0.08,16.89,0.52,22.13c0.33,2.89,0.44,7.29,0.44,11.4
					C370.67,388.4,371.57,384.42,372.42,380.28z"/>
			</g>
			<g>
				<path class="st40" d="M387.4,456.1c3.41-0.03,6.46-0.03,9.33-1.88c0.18-0.92,0.15-2.49-0.04-3.57c-1.3,0.42-6.72,2.38-9.98,2.21
					C386.81,454.08,387.08,455.2,387.4,456.1z"/>
			</g>
			<g>
				<path class="st40" d="M355.49,456.71c3.17,0.49,6.54,0.71,9.5-0.68c-0.01-1.1-0.01-2.2-0.02-3.3c-1.27,0.22-2.55,0.44-3.82,0.66
					c-1.84,0.32-4,0.58-5.8,0.12C355.16,454.44,355.34,455.77,355.49,456.71z"/>
			</g>
			<g>
				<g>
					<path class="st41" d="M389.72,292.83c4.47,6.63,9.16,13.12,14.06,19.44c0.51,0.65,1.57,1.3,2.01,0.6
						c0.13-0.2,0.13-0.46,0.12-0.7c-0.07-1.82-0.69-3.56-1.31-5.27c-2.98-8.08-6.44-15.97-10.36-23.63"/>
				</g>
				<g>
					<path class="st28" d="M395.69,346.02c1.91-13.57,6.28-33.42,6.28-33.42s-8.14-18.57-13.54-25.93l11.43-14.3
						c5.93,10.09,16.24,34.39,16.24,38.49c0,4.11-9.1,25.97-16.63,37.34"/>
				</g>
				<g>
					<path class="st42" d="M392.76,293.71c1.17,2.12,2.34,4.38,3.43,6.58c1.25-0.37,2.36-1.21,3.4-2.03
						c1.86-1.47,3.74-2.96,5.13-4.87c1.39-1.91,2.25-4.34,1.79-6.66c-4.91,1.06-9.6,3.09-13.73,5.94L392.76,293.71z"/>
				</g>
				<g>
					<path class="st29" d="M387.4,257.99c0,0,4.31,0.76,8.03,4.68c3.34,3.53,9.07,18.04,12.17,24.29c-1.49,3.53-2.2,4.07-4.42,6.15
						c-2.98,2.78-7.53,4.83-11.78,4.98c-1.88-5.7-8.18-15.77-8.18-15.77"/>
				</g>
				<g>
					<path class="st24" d="M393.92,257.82c-0.73-0.83-2.16-2.2-3.39-2.03c-1.45,0.2-2.96,0.96-4.12,1.83
						c-5.09,3.84-5.98,10.9-5.34,16.82c0.33,3.07,1.09,6.1,2.26,8.96c0.5,1.21,0.98,2.38,1.67,3.5c0.89,1.45,2.85,3.05,3.43,4.57
						c-2.56-6.72-2.92-18.99-0.24-26.75C389.3,261.53,391.9,259.45,393.92,257.82z"/>
				</g>
			</g>
			<g>
				<path class="st24" d="M363.71,251.92c-2.22,1.92-4.74,3.54-6.58,5.82c-1.9,2.36-3.5,4.95-4.83,7.67
					c-2.62,5.38-4.15,11.26-4.84,17.19c-0.68-6.48-1.34-13.17,0.6-19.39c0.98-3.16,2.77-6.13,5.2-8.39c1.8-1.68,6.29-4.9,8.89-3.55"
					/>
			</g>
			<g>
				<g>
					<path class="st30" d="M367.03,225.84c0.95,0.46,1.71,1.18,2.26,2.08c0.26,0.43,0.47,0.89,0.61,1.38
						c0.14,0.5,0.13,1.04,0.32,1.52c0.05,0.13,0.22,0.13,0.27,0c0.19-0.5,0.03-1.11-0.12-1.61c-0.16-0.53-0.4-1.04-0.69-1.51
						c-0.59-0.93-1.47-1.68-2.48-2.13C367.01,225.48,366.85,225.75,367.03,225.84L367.03,225.84z"/>
				</g>
			</g>
			<g>
				<g>
					<path class="st30" d="M365.28,229.69c-0.84,0.59-1.42,1.37-0.89,2.35c0.17,0.32,0.65,0.42,0.97,0.31
						c0.58-0.21,0.65-0.67,1.08-1.02C367.44,230.53,366.35,228.94,365.28,229.69L365.28,229.69z"/>
				</g>
				<g>
					<path class="st18" d="M365.21,230.22c-0.22,0.15-0.37,0.36-0.23,0.62c0.04,0.08,0.17,0.11,0.25,0.08
						c0.15-0.06,0.17-0.17,0.28-0.27C365.78,230.44,365.49,230.02,365.21,230.22L365.21,230.22z"/>
				</g>
			</g>
			<g>
				<g>
					<path class="st42" d="M376.88,237.29c0.03-0.22-0.09-0.43-0.25-0.58c-0.2-0.18-0.44-0.22-0.7-0.19
						c-0.27,0.04-0.55,0.16-0.79,0.29c-0.27,0.16-0.35,0.38-0.34,0.69c0.01,0.26,0.02,0.55-0.08,0.79c-0.1,0.24-0.32,0.4-0.53,0.54
						c-0.22,0.15-0.49,0.34-0.77,0.32c-0.28-0.02-0.32-0.22-0.4-0.43c-0.06-0.14-0.24-0.23-0.37-0.1c-0.44,0.47,0.27,1.05,0.73,1.08
						c0.54,0.03,1.14-0.37,1.52-0.74c0.2-0.2,0.34-0.45,0.39-0.73c0.06-0.28,0.02-0.55,0.02-0.83c0-0.16,0.1-0.18,0.23-0.25
						c0.12-0.06,0.24-0.12,0.37-0.16c0.24-0.07,0.66-0.04,0.67,0.29C376.59,237.48,376.86,237.47,376.88,237.29L376.88,237.29z"/>
				</g>
			</g>
			<g>
				<path class="st42" d="M375.12,241.22c-1.03,0.08-2.82,0.08-3.24-1.03c-0.01,0.29,0,0.86,0.4,1.38c0.18,0.23,0.66,0.47,0.92,0.6
					c0.54,0.28,1.27,0.4,1.8,0.1"/>
			</g>
			<g>
				<path class="st42" d="M367.93,246.12c1.09,0.06,3.92-0.38,4.06-0.29c-0.31,0.48-0.86,0.74-1.38,0.96
					c-0.81,0.34-1.87,0.63-2.72,0.85"/>
			</g>
			<g>
				<g>
					<path class="st43" d="M357.86,234.4c-1.05,1.09-1.45,3.36-1.03,4.43c0.42,1.07,1.61,1.74,3.02,1.75c1.6,0.01,3.3-0.75,4.9-1.48
						C362.22,237.77,359.91,236.19,357.86,234.4z"/>
				</g>
				<g>
					<defs>
						<path id="SVGID_3_" d="M357.86,234.4c-1.05,1.09-1.45,3.36-1.03,4.43c0.42,1.07,1.61,1.74,3.02,1.75
							c1.6,0.01,3.3-0.75,4.9-1.48C362.22,237.77,359.91,236.19,357.86,234.4z"/>
					</defs>
					<clipPath id="SVGID_4_">
						<use xlink:href="#SVGID_3_"  style="overflow:visible;"/>
					</clipPath>
					<g class="st44">
						<path class="st45" d="M363.59,241.54c0.1-0.89-0.34-1.66-1.01-2.18c-0.67-0.52-1.55-0.82-2.46-1.06
							c-0.53-0.14-1.09-0.26-1.71-0.2c-0.61,0.06-1.29,0.33-1.72,0.8c-0.27,0.3-0.42,0.66-0.51,1c-0.4,1.52,0.19,2.97,1.48,3.66
							c1.3,0.7,3.25,0.61,4.93-0.22"/>
					</g>
				</g>
			</g>
			<path class="st28" d="M302.71,234.13"/>
			<path class="st28" d="M292.5,226c-0.4-0.85-1.18-1.6-2.13-2.9c-0.95-1.3-0.63-2.08-0.08-2.28c0.55-0.2,2.55,1.96,3.9,3.06
				c1.22,0.99,3.24,4.12,3.64,4.74c0.89-0.64,2.22-0.9,2.69-0.81c1.05,0.2,3.03,3.73,3.3,5.73c0.21,1.55-0.64,5.68-0.64,5.68
				l1.07,3.63c0,0-3.28,5.11-4.38,1.66c-1.1-3.45-2.27-4.4-3.94-4.78c-1.35-0.3-5.42-3.74-5.57-5.63c-0.05-0.6,0.5-1.23,0.77-1.56
				c0-0.01,0-0.02,0-0.03c0-1.29,1.17-1.56,1.48-1.61c0.14-1.23,1.4-1.4,1.5-1.41C294.23,228.78,292.88,226.8,292.5,226z"/>
			<g>
				<g>
					<path class="st46" d="M297.9,228.53c-0.69,0.41-1.41,0.93-1.88,1.59c-0.15,0.22-0.18,0.36-0.11,0.62
						c0.07,0.25,0.23,0.54,0.49,0.62c0.24,0.08,0.51,0.05,0.76,0.03c0.32-0.03,0.64-0.09,0.96-0.14c0.26-0.05,0.53-0.11,0.8-0.11
						c0.01,0,0.11,0.01,0.12,0.01c0.02-0.01,0-0.08-0.01-0.05c-0.02,0.05,0,0.14,0,0.2c0.02,0.75,0.31,1.54,0.92,2.01
						c0.04,0.03,0.09-0.04,0.06-0.07c-0.52-0.58-0.88-1.35-0.82-2.14c0-0.02-0.02-0.06-0.04-0.07c-0.12-0.05-0.26-0.03-0.39-0.02
						c-0.23,0.03-0.45,0.07-0.68,0.11c-0.49,0.09-1.03,0.23-1.53,0.15c-0.29-0.05-0.46-0.33-0.53-0.6c-0.02-0.08-0.05-0.2-0.02-0.28
						c0.04-0.13,0.19-0.28,0.27-0.38c0.46-0.55,1.06-0.99,1.67-1.36C298.01,228.59,297.96,228.49,297.9,228.53L297.9,228.53z"/>
				</g>
			</g>
			<g>
				<g>
					<path class="st46" d="M292.67,231.27c0.29,0.85,0.93,1.65,1.63,2.2c0.18,0.14,0.31,0.23,0.52,0.27
						c0.29,0.06,0.58,0.13,0.88,0.18c0.73,0.14,1.48,0.29,2.23,0.31c0.64,0.01,1.24-0.28,1.16-1.01c-0.09-0.77-0.79-1.43-1.55-1.49
						c-0.05,0-0.06,0.08-0.01,0.09c0.65,0.15,1.29,0.67,1.4,1.36c0.13,0.84-0.69,0.92-1.31,0.87c-0.65-0.05-1.3-0.17-1.94-0.29
						c-0.36-0.07-0.84-0.08-1.14-0.3c-0.76-0.53-1.45-1.35-1.75-2.24C292.75,231.17,292.65,231.2,292.67,231.27L292.67,231.27z"/>
				</g>
			</g>
			<g>
				<g>
					<path class="st46" d="M291.16,232.73c0.19,0.57,0.54,1.08,0.93,1.53c0.3,0.35,0.7,0.82,1.17,0.94
						c0.48,0.12,0.97,0.22,1.46,0.28c0.53,0.07,1.15,0.16,1.66-0.04c0.04-0.02,0.04-0.1-0.01-0.09c-1.01,0.11-2.02-0.05-3-0.28
						c-0.45-0.11-0.81-0.49-1.11-0.82c-0.41-0.45-0.8-0.98-1-1.56C291.24,232.64,291.14,232.67,291.16,232.73L291.16,232.73z"/>
				</g>
			</g>
			<g>
				<g>
					<path class="st46" d="M292.28,236.78c0.26,0.08,0.54,0.14,0.81,0.18c0.25,0.04,0.5,0.06,0.75,0.06c0.26,0,0.58,0,0.8-0.13
						c0.04-0.02,0.02-0.09-0.02-0.09c-0.14-0.01-0.27,0.02-0.41,0.04c-0.13,0.02-0.26,0.02-0.39,0.03c-0.25,0-0.5-0.01-0.74-0.04
						c-0.26-0.03-0.52-0.08-0.77-0.15C292.24,236.66,292.21,236.76,292.28,236.78L292.28,236.78z"/>
				</g>
			</g>
		</g>
	</g>
</g>
<g>
	<g>
		<g>
			<path class="st14" d="M180.98,66.67c-1.3,3.26-4.99,4.85-8.25,3.55c-3.26-1.3-4.85-4.99-3.55-8.25c1.3-3.26,4.99-4.85,8.25-3.55
				C180.69,59.71,182.28,63.41,180.98,66.67z"/>
			<polyline class="st47" points="172.37,63.55 173.8,66.73 178.57,63.78 			"/>
		</g>
		<g>
			<path class="st14" d="M82.53,215.1c1.09,3.33-0.72,6.92-4.06,8.01c-3.33,1.09-6.92-0.72-8.01-4.06
				c-1.09-3.33,0.72-6.92,4.06-8.01C77.85,209.95,81.44,211.77,82.53,215.1z"/>
			<polyline class="st47" points="73.93,218.23 77.07,219.76 78.84,214.44 			"/>
		</g>
		<g>
			<path class="st14" d="M137.87,284.39c-1.14,3.32-4.75,5.08-8.07,3.94c-3.32-1.14-5.08-4.75-3.94-8.07
				c1.14-3.32,4.75-5.08,8.07-3.94C137.24,277.46,139.01,281.07,137.87,284.39z"/>
			<polyline class="st47" points="129.12,281.7 130.7,284.81 135.32,281.63 			"/>
		</g>
		<g>
			<path class="st14" d="M376.05,114.38c2.11,4.93-0.17,10.64-5.1,12.75c-4.93,2.11-10.64-0.17-12.75-5.1
				c-2.11-4.93,0.17-10.64,5.1-12.75C368.22,107.17,373.93,109.45,376.05,114.38z"/>
			<polyline class="st48" points="363.37,120.31 368.34,122.21 370.32,113.86 			"/>
		</g>
		<path class="st14" d="M87.86,175.36c0,1.29-1.05,2.34-2.34,2.34c-1.29,0-2.34-1.05-2.34-2.34c0-1.29,1.05-2.34,2.34-2.34
			C86.82,173.03,87.86,174.07,87.86,175.36z"/>
		<path class="st14" d="M415.93,134.4c0,1.29-1.05,2.34-2.34,2.34c-1.29,0-2.34-1.05-2.34-2.34c0-1.29,1.05-2.34,2.34-2.34
			C414.89,132.07,415.93,133.11,415.93,134.4z"/>
		<path class="st14" d="M244.05,75.67c0,1.29-1.05,2.34-2.34,2.34c-1.29,0-2.34-1.05-2.34-2.34c0-1.29,1.05-2.34,2.34-2.34
			C243.01,73.34,244.05,74.38,244.05,75.67z"/>
		<path class="st14" d="M118.15,154.6c0,2.06-1.67,3.73-3.73,3.73c-2.06,0-3.73-1.67-3.73-3.73c0-2.06,1.67-3.73,3.73-3.73
			C116.48,150.88,118.15,152.55,118.15,154.6z"/>
		<path class="st14" d="M443.68,224.32c0,2.06-1.67,3.73-3.73,3.73c-2.06,0-3.73-1.67-3.73-3.73c0-2.06,1.67-3.73,3.73-3.73
			C442.01,220.59,443.68,222.26,443.68,224.32z"/>
		<path class="st14" d="M70.44,154.6c0,2.06-1.67,3.73-3.73,3.73c-2.06,0-3.73-1.67-3.73-3.73c0-2.06,1.67-3.73,3.73-3.73
			C68.77,150.88,70.44,152.55,70.44,154.6z"/>
		<path class="st14" d="M50.87,321.13c0,2.06-1.67,3.73-3.73,3.73c-2.06,0-3.73-1.67-3.73-3.73c0-2.06,1.67-3.73,3.73-3.73
			C49.2,317.4,50.87,319.07,50.87,321.13z"/>
		<path class="st49" d="M98.1,267.49c0,2.06-1.67,3.73-3.73,3.73c-2.06,0-3.73-1.67-3.73-3.73c0-2.06,1.67-3.73,3.73-3.73
			C96.43,263.76,98.1,265.43,98.1,267.49z"/>
		<path class="st49" d="M411.65,185.47c0,3.17-2.57,5.73-5.73,5.73c-3.17,0-5.73-2.57-5.73-5.73c0-3.17,2.57-5.73,5.73-5.73
			C409.08,179.73,411.65,182.3,411.65,185.47z"/>
		<path class="st49" d="M411.65,81.41c0,3.17-2.57,5.73-5.73,5.73c-3.17,0-5.73-2.57-5.73-5.73c0-3.17,2.57-5.73,5.73-5.73
			C409.08,75.67,411.65,78.24,411.65,81.41z"/>
		<path class="st49" d="M43.3,377.83c0,3.17-2.57,5.73-5.73,5.73c-3.17,0-5.73-2.57-5.73-5.73c0-3.17,2.57-5.73,5.73-5.73
			C40.73,372.1,43.3,374.66,43.3,377.83z"/>
		<path class="st49" d="M307.99,57.96c0,2.06-1.67,3.73-3.73,3.73c-2.06,0-3.73-1.67-3.73-3.73c0-2.06,1.67-3.73,3.73-3.73
			C306.33,54.23,307.99,55.9,307.99,57.96z"/>
		<path class="st50" d="M458.79,309.26c0,2.06-1.67,3.73-3.73,3.73c-2.06,0-3.73-1.67-3.73-3.73c0-2.06,1.67-3.73,3.73-3.73
			C457.13,305.53,458.79,307.2,458.79,309.26z"/>
		<g>
			<g>
				<g>
					<path class="st14" d="M33.84,212.72c-0.41,0-0.74-0.33-0.74-0.74v-5.25c0-0.41,0.33-0.74,0.74-0.74c0.41,0,0.74,0.33,0.74,0.74
						v5.25C34.58,212.39,34.25,212.72,33.84,212.72z"/>
				</g>
				<g>
					<path class="st14" d="M36.46,210.1h-5.26c-0.41,0-0.74-0.33-0.74-0.74c0-0.41,0.33-0.74,0.74-0.74h5.26
						c0.41,0,0.74,0.33,0.74,0.74C37.21,209.76,36.88,210.1,36.46,210.1z"/>
				</g>
			</g>
		</g>
		<g>
			<g>
				<g>
					<path class="st51" d="M70.08,264.2c-0.41,0-0.74-0.33-0.74-0.75v-5.25c0-0.41,0.33-0.74,0.74-0.74c0.41,0,0.75,0.33,0.75,0.74
						v5.25C70.83,263.87,70.49,264.2,70.08,264.2z"/>
				</g>
				<g>
					<path class="st51" d="M72.71,261.57h-5.26c-0.41,0-0.74-0.33-0.74-0.74c0-0.41,0.33-0.74,0.74-0.74h5.26
						c0.41,0,0.74,0.33,0.74,0.74C73.46,261.24,73.12,261.57,72.71,261.57z"/>
				</g>
			</g>
		</g>
		<g>
			<g>
				<g>
					<path class="st14" d="M432.33,288.45c-0.41,0-0.74-0.33-0.74-0.74v-5.26c0-0.41,0.33-0.74,0.74-0.74
						c0.41,0,0.74,0.33,0.74,0.74v5.26C433.07,288.12,432.74,288.45,432.33,288.45z"/>
				</g>
				<g>
					<path class="st14" d="M434.95,285.82h-5.26c-0.41,0-0.74-0.33-0.74-0.75c0-0.41,0.33-0.74,0.74-0.74h5.26
						c0.41,0,0.75,0.33,0.75,0.74C435.7,285.49,435.37,285.82,434.95,285.82z"/>
				</g>
			</g>
		</g>
		<g>
			<g>
				<g>
					<path class="st14" d="M363.71,183.03c-0.41,0-0.74-0.33-0.74-0.74v-5.26c0-0.41,0.33-0.74,0.74-0.74
						c0.41,0,0.74,0.33,0.74,0.74v5.26C364.46,182.7,364.12,183.03,363.71,183.03z"/>
				</g>
				<g>
					<path class="st14" d="M366.34,180.41h-5.26c-0.41,0-0.74-0.33-0.74-0.75c0-0.41,0.33-0.74,0.74-0.74h5.26
						c0.41,0,0.75,0.33,0.75,0.74C367.08,180.07,366.75,180.41,366.34,180.41z"/>
				</g>
			</g>
		</g>
	</g>
	<g>
		<g class="st52">
			<g>
				<path class="st2" d="M107.28,75.1l-1.67,1.03l-0.03,0.02c-0.35,0.21-0.81,0.1-1.02-0.25c-0.21-0.35-0.11-0.81,0.24-1.02
					l1.73-1.07c0.35-0.22,0.81-0.11,1.03,0.24c0.22,0.35,0.11,0.81-0.24,1.03l0,0L107.28,75.1z"/>
				<path class="st2" d="M103.16,77.83c-1.06,0.8-2.1,1.64-3.09,2.52c-0.3,0.26-0.76,0.24-1.02-0.07c-0.26-0.3-0.24-0.76,0.06-1.02
					c1.02-0.91,2.08-1.78,3.17-2.61c0.32-0.25,0.79-0.18,1.03,0.14C103.55,77.12,103.48,77.58,103.16,77.83L103.16,77.83z"/>
				<path class="st2" d="M97.87,82.39c-0.95,0.93-1.87,1.9-2.76,2.89c-0.26,0.29-0.71,0.32-1,0.06c-0.29-0.26-0.32-0.7-0.06-1
					c0.9-1.02,1.84-2.02,2.81-2.98c0.28-0.28,0.74-0.28,1.02,0.01S98.15,82.11,97.87,82.39L97.87,82.39z"/>
				<path class="st2" d="M93.16,87.57c-0.84,1.04-1.64,2.1-2.41,3.19c-0.22,0.31-0.65,0.39-0.96,0.17
					c-0.31-0.22-0.39-0.65-0.17-0.96c0.78-1.12,1.6-2.21,2.45-3.28c0.24-0.3,0.68-0.35,0.98-0.11
					C93.36,86.82,93.41,87.26,93.16,87.57L93.16,87.57z"/>
				<path class="st2" d="M89.09,93.26c-0.71,1.13-1.38,2.28-2.01,3.46c-0.17,0.33-0.58,0.45-0.91,0.28
					c-0.33-0.17-0.45-0.58-0.28-0.9c0.64-1.21,1.32-2.4,2.04-3.55c0.2-0.32,0.62-0.42,0.94-0.22S89.29,92.94,89.09,93.26
					L89.09,93.26z"/>
				<path class="st2" d="M85.75,99.4c-0.55,1.21-1.06,2.44-1.5,3.7c-0.12,0.34-0.49,0.52-0.83,0.4c-0.34-0.12-0.52-0.49-0.4-0.83
					c0.45-1.29,0.96-2.57,1.52-3.81c0.15-0.33,0.54-0.48,0.88-0.33S85.91,99.07,85.75,99.4L85.75,99.4z"/>
				<path class="st2" d="M83.36,105.95c-0.35,1.28-0.62,2.58-0.82,3.89c-0.05,0.35-0.37,0.59-0.72,0.53
					c-0.34-0.05-0.58-0.37-0.53-0.72c0.19-1.36,0.48-2.71,0.83-4.04c0.09-0.34,0.44-0.55,0.79-0.46
					C83.25,105.25,83.46,105.6,83.36,105.95L83.36,105.95z"/>
				<path class="st2" d="M82.26,112.79c-0.06,1.32-0.02,2.64,0.12,3.95c0.04,0.34-0.2,0.64-0.54,0.68c-0.34,0.04-0.64-0.2-0.68-0.54
					c-0.16-1.37-0.21-2.76-0.15-4.14c0.01-0.35,0.3-0.61,0.65-0.6C82,112.15,82.27,112.45,82.26,112.79L82.26,112.79z"/>
				<path class="st2" d="M82.9,119.65c0.32,1.27,0.75,2.52,1.31,3.7c0.14,0.3,0.01,0.65-0.29,0.79c-0.3,0.14-0.65,0.01-0.79-0.29
					c-0.59-1.26-1.06-2.57-1.4-3.91c-0.08-0.32,0.11-0.66,0.44-0.74C82.49,119.12,82.82,119.32,82.9,119.65L82.9,119.65z"/>
				<path class="st2" d="M85.64,125.93c0.72,1.1,1.54,2.13,2.45,3.08c0.22,0.23,0.21,0.6-0.02,0.82c-0.23,0.22-0.59,0.21-0.81-0.02
					c-0.96-1-1.83-2.08-2.6-3.24c-0.18-0.27-0.1-0.64,0.17-0.82C85.09,125.58,85.46,125.65,85.64,125.93L85.64,125.93z"/>
				<path class="st2" d="M90.26,131.03c1.02,0.84,2.1,1.61,3.23,2.3c0.26,0.16,0.34,0.51,0.18,0.77c-0.16,0.26-0.5,0.34-0.77,0.18
					c-1.17-0.72-2.3-1.51-3.37-2.38c-0.24-0.2-0.28-0.56-0.08-0.8C89.65,130.87,90.01,130.83,90.26,131.03L90.26,131.03z"/>
				<path class="st2" d="M96.1,134.79c1.19,0.6,2.41,1.12,3.66,1.58c0.28,0.1,0.42,0.41,0.32,0.69c-0.1,0.28-0.41,0.42-0.69,0.32
					c-1.29-0.46-2.55-1-3.78-1.61c-0.27-0.14-0.38-0.47-0.25-0.74C95.49,134.77,95.82,134.65,96.1,134.79L96.1,134.79z"/>
				<path class="st2" d="M102.6,137.28c1.28,0.35,2.59,0.62,3.9,0.82c0.28,0.04,0.48,0.31,0.44,0.59c-0.04,0.28-0.31,0.48-0.59,0.44
					c-1.36-0.2-2.7-0.47-4.02-0.82c-0.28-0.07-0.45-0.37-0.38-0.65S102.32,137.2,102.6,137.28L102.6,137.28z"/>
				<path class="st2" d="M109.48,138.41c1.33,0.08,2.66,0.09,3.99,0.01c0.28-0.02,0.51,0.2,0.53,0.47c0.02,0.27-0.19,0.51-0.47,0.53
					c-1.37,0.08-2.74,0.09-4.11,0.01c-0.28-0.02-0.5-0.26-0.48-0.54C108.95,138.61,109.19,138.39,109.48,138.41L109.48,138.41z"/>
				<path class="st2" d="M116.44,138.12c1.32-0.19,2.62-0.46,3.9-0.81c0.26-0.07,0.52,0.08,0.59,0.34c0.07,0.25-0.08,0.52-0.33,0.59
					c-1.32,0.37-2.66,0.65-4.01,0.86c-0.27,0.04-0.52-0.14-0.56-0.41S116.17,138.16,116.44,138.12L116.44,138.12z"/>
				<path class="st2" d="M123.19,136.39c1.25-0.47,2.46-1.01,3.63-1.64c0.22-0.12,0.5-0.04,0.62,0.19c0.12,0.22,0.04,0.5-0.19,0.62
					c-1.21,0.66-2.46,1.22-3.74,1.71c-0.24,0.09-0.52-0.03-0.61-0.27C122.82,136.76,122.95,136.48,123.19,136.39L123.19,136.39z"/>
				<path class="st2" d="M129.35,133.19c1.07-0.77,2.07-1.64,2.92-2.63c0.16-0.18,0.44-0.21,0.62-0.05
					c0.18,0.16,0.21,0.44,0.05,0.62c-0.9,1.06-1.95,1.98-3.06,2.79c-0.2,0.15-0.49,0.1-0.63-0.1
					C129.1,133.62,129.15,133.34,129.35,133.19L129.35,133.19z"/>
				<path class="st2" d="M133.91,128.14c0.59-1.16,0.96-2.42,1.08-3.71c0.02-0.23,0.23-0.4,0.46-0.38c0.23,0.02,0.4,0.23,0.38,0.46
					c-0.12,1.4-0.52,2.77-1.15,4.03c-0.11,0.21-0.37,0.3-0.58,0.19C133.89,128.61,133.81,128.35,133.91,128.14L133.91,128.14z"/>
				<path class="st2" d="M134.88,121.51c-0.22-1.29-0.62-2.56-1.16-3.75l0-0.01c-0.09-0.2,0-0.44,0.2-0.54c0.2-0.09,0.44,0,0.53,0.2
					c0.58,1.27,1.01,2.58,1.25,3.96c0.04,0.23-0.11,0.44-0.34,0.48S134.92,121.74,134.88,121.51L134.88,121.51z"/>
				<path class="st2" d="M132.11,115.33c-0.86-0.97-1.93-1.75-3.1-2.32c-0.19-0.09-0.27-0.32-0.18-0.51
					c0.09-0.19,0.32-0.27,0.51-0.18c1.26,0.6,2.41,1.44,3.36,2.48c0.15,0.16,0.14,0.41-0.03,0.56
					C132.51,115.51,132.26,115.49,132.11,115.33L132.11,115.33z"/>
				<path class="st2" d="M126.23,112.05c-1.28-0.29-2.61-0.41-3.93-0.4c-0.2,0-0.37-0.16-0.37-0.36c0-0.2,0.16-0.37,0.36-0.37
					c1.37-0.02,2.75,0.1,4.11,0.39c0.2,0.04,0.33,0.25,0.29,0.45S126.44,112.09,126.23,112.05L126.23,112.05z"/>
				<path class="st2" d="M119.32,111.88c-1.32,0.19-2.62,0.47-3.91,0.84c-0.18,0.05-0.38-0.05-0.43-0.24
					c-0.05-0.18,0.05-0.38,0.24-0.43c1.31-0.38,2.64-0.69,4-0.88c0.2-0.03,0.38,0.11,0.41,0.3
					C119.65,111.67,119.52,111.85,119.32,111.88L119.32,111.88z"/>
				<path class="st2" d="M112.57,113.69c-1.25,0.48-2.46,1.04-3.65,1.66c-0.16,0.08-0.36,0.02-0.44-0.14
					c-0.08-0.16-0.02-0.36,0.14-0.44c1.2-0.63,2.44-1.2,3.71-1.7c0.17-0.07,0.37,0.02,0.44,0.19
					C112.83,113.42,112.74,113.62,112.57,113.69L112.57,113.69z"/>
				<path class="st2" d="M106.3,116.83c-1.14,0.7-2.24,1.46-3.31,2.28c-0.14,0.1-0.33,0.08-0.43-0.06c-0.1-0.14-0.08-0.33,0.06-0.43
					c1.08-0.83,2.19-1.61,3.35-2.33c0.15-0.09,0.35-0.05,0.44,0.1S106.45,116.73,106.3,116.83L106.3,116.83z"/>
				<path class="st2" d="M100.66,121.02c-1,0.89-1.96,1.82-2.88,2.8c-0.11,0.12-0.29,0.12-0.41,0.01c-0.12-0.11-0.12-0.29-0.02-0.41
					c0.92-1,1.89-1.95,2.9-2.86c0.12-0.11,0.31-0.1,0.42,0.02C100.8,120.72,100.79,120.91,100.66,121.02L100.66,121.02z"/>
				<path class="st2" d="M95.82,126.1c-0.84,1.05-1.62,2.14-2.34,3.26c-0.08,0.13-0.25,0.16-0.37,0.08
					c-0.13-0.08-0.16-0.25-0.08-0.37c0.73-1.15,1.52-2.26,2.36-3.32c0.1-0.12,0.27-0.14,0.4-0.05
					C95.89,125.8,95.91,125.98,95.82,126.1L95.82,126.1z"/>
				<path class="st2" d="M91.95,131.96c-0.63,1.18-1.2,2.4-1.69,3.64c-0.05,0.13-0.2,0.19-0.33,0.14c-0.13-0.05-0.19-0.2-0.14-0.33
					c0.5-1.26,1.06-2.5,1.7-3.7c0.07-0.13,0.23-0.18,0.35-0.11S92.01,131.84,91.95,131.96L91.95,131.96z"/>
				<path class="st2" d="M89.25,138.45c-0.39,1.28-0.71,2.59-0.95,3.91c-0.02,0.13-0.14,0.21-0.27,0.19
					c-0.13-0.02-0.21-0.14-0.19-0.27c0.24-1.34,0.55-2.66,0.94-3.96c0.04-0.13,0.17-0.2,0.3-0.16
					C89.22,138.19,89.29,138.32,89.25,138.45L89.25,138.45z"/>
				<path class="st2" d="M87.89,145.35c-0.13,1.33-0.18,2.68-0.16,4.02c0,0.12-0.09,0.21-0.21,0.22c-0.12,0-0.21-0.09-0.22-0.21
					c-0.03-1.36,0.02-2.72,0.14-4.07c0.01-0.12,0.12-0.21,0.24-0.2S87.9,145.22,87.89,145.35L87.89,145.35z"/>
				<path class="st2" d="M87.9,152.38c0.13,1.34,0.32,2.67,0.58,3.98c0.02,0.11-0.05,0.21-0.15,0.23c-0.1,0.02-0.21-0.05-0.23-0.15
					c-0.27-1.33-0.48-2.67-0.61-4.02c-0.01-0.11,0.07-0.21,0.18-0.22S87.89,152.26,87.9,152.38L87.9,152.38z"/>
				<path class="st2" d="M89.18,159.3c0.35,1.3,0.76,2.58,1.23,3.84c0.03,0.09-0.01,0.19-0.1,0.23c-0.09,0.03-0.19-0.01-0.23-0.1
					c-0.48-1.27-0.89-2.56-1.26-3.86c-0.03-0.1,0.03-0.2,0.13-0.23S89.15,159.2,89.18,159.3L89.18,159.3z"/>
				<path class="st2" d="M91.62,165.9c0.61,1.2,1.31,2.34,2.1,3.43c0.05,0.07,0.03,0.17-0.03,0.22c-0.07,0.05-0.17,0.03-0.22-0.03
					c-0.8-1.09-1.52-2.25-2.14-3.46c-0.04-0.08-0.01-0.18,0.07-0.22C91.48,165.79,91.58,165.82,91.62,165.9L91.62,165.9z"/>
				<path class="st2" d="M95.63,171.66c0.91,0.98,1.91,1.89,2.97,2.71c0.06,0.05,0.07,0.13,0.02,0.19
					c-0.05,0.06-0.13,0.07-0.19,0.02c-1.08-0.83-2.09-1.74-3.02-2.72c-0.06-0.06-0.05-0.15,0.01-0.21
					C95.49,171.6,95.58,171.6,95.63,171.66L95.63,171.66z"/>
				<path class="st2" d="M101.09,176.09c1.15,0.7,2.34,1.32,3.57,1.87c0.06,0.03,0.08,0.09,0.06,0.15
					c-0.03,0.06-0.09,0.08-0.15,0.06c-1.24-0.54-2.45-1.16-3.61-1.86c-0.06-0.04-0.08-0.11-0.04-0.17
					C100.95,176.07,101.03,176.05,101.09,176.09L101.09,176.09z"/>
				<path class="st2" d="M107.48,179.06c1.27,0.44,2.57,0.81,3.88,1.12c0.05,0.01,0.08,0.06,0.07,0.11
					c-0.01,0.05-0.06,0.08-0.11,0.07c-1.32-0.3-2.62-0.67-3.9-1.1c-0.06-0.02-0.09-0.08-0.07-0.13S107.42,179.04,107.48,179.06
					L107.48,179.06z"/>
				<path class="st2" d="M114.33,180.78c1.33,0.23,2.67,0.4,4.01,0.52c0.04,0,0.07,0.04,0.07,0.08c0,0.04-0.04,0.07-0.08,0.07
					c-1.35-0.12-2.69-0.28-4.02-0.5c-0.05-0.01-0.08-0.05-0.07-0.1C114.23,180.8,114.28,180.77,114.33,180.78L114.33,180.78z"/>
				<path class="st2" d="M121.36,181.51c1.35,0.06,2.7,0.08,4.04,0.07c0.03,0,0.05,0.02,0.06,0.05c0,0.03-0.02,0.05-0.05,0.06
					c-1.35,0.02-2.7,0.01-4.05-0.04c-0.04,0-0.06-0.03-0.06-0.07C121.29,181.54,121.32,181.51,121.36,181.51L121.36,181.51z"/>
				<path class="st2" d="M128.44,181.49l4.04-0.3c0.02,0,0.04,0.01,0.04,0.03c0,0.02-0.01,0.04-0.03,0.04l-4.04,0.32
					c-0.03,0-0.05-0.02-0.05-0.04C128.39,181.51,128.41,181.49,128.44,181.49L128.44,181.49z"/>
				<path class="st2" d="M135.49,180.84l4-0.62c0.01,0,0.02,0,0.02,0.01c0,0.01,0,0.02-0.01,0.02l-4,0.64
					c-0.01,0-0.03-0.01-0.03-0.02C135.46,180.86,135.47,180.84,135.49,180.84L135.49,180.84z"/>
				<polygon class="st2" points="142.48,179.64 144.43,179.19 142.48,179.65 142.48,179.65 142.48,179.64 				"/>
			</g>
		</g>
		<g>
			<path class="st2" d="M119.27,41.28c0.11-0.27-13.86,8.39-13.86,8.39l3.63,23.53l6.85-17.6l18.05-3.44l25.72-24.19L119.27,41.28z"
				/>
			<polygon class="st53" points="159.66,27.97 109.04,73.21 115.89,55.6 			"/>
			<polygon class="st54" points="159.66,27.97 92.69,42.19 105.41,49.67 159.66,27.97 115.89,55.6 137.53,68.96 			"/>
		</g>
	</g>
</g>
</svg>
