<?xml version="1.0" encoding="utf-8"?>
<!-- Generator: Adobe Illustrator 24.1.1, SVG Export Plug-In . SVG Version: 6.00 Build 0)  -->
<svg version="1.1" id="Layer_1" xmlns="http://www.w3.org/2000/svg" xmlns:xlink="http://www.w3.org/1999/xlink" x="0px" y="0px"
	 viewBox="0 0 50 50" style="enable-background:new 0 0 50 50;" xml:space="preserve">
<style type="text/css">
	.st0{fill:#157DC3;}
</style>
<g>
	<g>
		<path class="st0" d="M34.91,13.43c3.49,0,6.34,2.8,6.34,6.23h5.09L42.42,9.28c-0.51-1.32-1.79-2.19-3.22-2.19H11.51
			c-1.44,0-2.72,0.87-3.21,2.19L4.38,19.65h24.18C28.56,16.23,31.42,13.43,34.91,13.43z M47.63,21.09l-1.3-1.37v-0.05H4.38
			L2.6,21.29c-1.16,0.96-1.82,2.37-1.82,3.85v14.94c0,1.86,1.54,3.37,3.43,3.37h2.86c1.89,0,3.43-1.51,3.43-3.37v-3.2h29.02v3.2
			c0,1.86,1.54,3.37,3.43,3.37h2.86c1.89,0,3.43-1.51,3.43-3.37v-6.57c0,1.84-1.5,3.34-3.38,3.37c1.87-0.03,3.38-1.52,3.38-3.37
			v-8.75C49.24,23.37,48.65,22.04,47.63,21.09z M15.05,31.53c0,0.58-0.49,1.06-1.08,1.06H5.85c-0.6,0-1.08-0.48-1.08-1.06v-5.52
			c0-0.58,0.49-1.06,1.08-1.06h8.12c0.6,0,1.08,0.48,1.08,1.06V31.53z M30.24,31.53H19.78c-0.6,0-1.08-0.48-1.08-1.06
			c0-0.58,0.49-1.06,1.08-1.06h10.46c0.6,0,1.08,0.48,1.08,1.06C31.32,31.05,30.84,31.53,30.24,31.53z M30.24,28.24H19.78
			c-0.6,0-1.08-0.48-1.08-1.06c0-0.58,0.49-1.06,1.08-1.06h10.46c0.6,0,1.08,0.48,1.08,1.06C31.32,27.76,30.84,28.24,30.24,28.24z
			 M45.26,31.53c0,0.58-0.49,1.06-1.08,1.06h-8.12c-0.6,0-1.08-0.48-1.08-1.06v-5.52c0-0.58,0.49-1.06,1.08-1.06h8.12
			c0.6,0,1.08,0.48,1.08,1.06V31.53z"/>
	</g>
</g>
</svg>
