<?xml version="1.0" encoding="utf-8"?>
<!-- Generator: Adobe Illustrator 24.1.1, SVG Export Plug-In . SVG Version: 6.00 Build 0)  -->
<svg version="1.1" id="Layer_1" xmlns="http://www.w3.org/2000/svg" xmlns:xlink="http://www.w3.org/1999/xlink" x="0px" y="0px"
	 viewBox="0 0 50 50" style="enable-background:new 0 0 50 50;" xml:space="preserve">
<style type="text/css">
	.st0{opacity:0.4;}
</style>
<path class="st0" d="M46.34,19.39l-3.7-9.75C42.02,8,40.4,6.89,38.6,6.89H12.18c-1.79,0-3.42,1.1-4.04,2.75l-3.65,9.62l-1.52,1.37
	c-1.32,1.11-2.09,2.72-2.09,4.42v7.96v6.24c0,2.32,1.95,4.2,4.32,4.2h2.73c2.38,0,4.32-1.88,4.32-4.2v-2.06h25.63v2.06
	c0,2.32,1.94,4.2,4.32,4.2h2.73c2.38,0,4.32-1.88,4.32-4.2v-6.24v-8.33c0-1.58-0.68-3.11-1.85-4.2L46.34,19.39z M10.08,10.34
	c0.32-0.86,1.17-1.41,2.1-1.41h26.43c0.93,0,1.78,0.57,2.1,1.41l3.22,8.48h-2.42C41,15.49,38.06,12.9,34.5,12.9
	c-3.56,0-6.51,2.58-7.02,5.92H6.86L10.08,10.34z M39.41,18.82h-9.83c0.48-2.22,2.5-3.9,4.92-3.9C36.92,14.92,38.94,16.6,39.41,18.82
	z M10.18,39.25c0,1.21-1.01,2.18-2.25,2.18H5.2c-1.23,0-2.25-0.98-2.25-2.18v-2.64C3.57,37,4.39,37.19,5.2,37.19h4.98V39.25z
	 M44.92,41.43h-2.73c-1.24,0-2.25-0.98-2.25-2.18v-2.06h4.98c0.82,0,1.63-0.19,2.25-0.59v2.64C47.17,40.45,46.15,41.43,44.92,41.43z
	 M44.92,35.17H5.2c-1.23,0-2.25-0.95-2.25-2.16v-7.96c0-1.11,0.51-2.17,1.37-2.89c0.01-0.01,0.03-0.03,0.04-0.04l1.42-1.29h39.13
	l0.99,1.04c0.01,0.02,0.04,0.04,0.05,0.05c0.77,0.71,1.22,1.72,1.22,2.76v8.33C47.17,34.22,46.15,35.17,44.92,35.17z"/>
<path class="st0" d="M15.56,25.88c0-0.56-0.46-1.01-1.03-1.01H6.77c-0.57,0-1.03,0.45-1.03,1.01v5.25c0,0.56,0.46,1.01,1.03,1.01
	h7.75c0.57,0,1.03-0.45,1.03-1.01V25.88z M13.49,30.12H7.81v-3.23h5.68V30.12z"/>
<path class="st0" d="M44.38,25.88c0-0.56-0.46-1.01-1.03-1.01H35.6c-0.57,0-1.03,0.45-1.03,1.01v5.25c0,0.56,0.46,1.01,1.03,1.01
	h7.75c0.57,0,1.03-0.45,1.03-1.01V25.88z M42.32,30.12h-5.68v-3.23h5.68V30.12z"/>
<path class="st0" d="M30.05,29.11h-9.98c-0.57,0-1.03,0.45-1.03,1.01s0.46,1.01,1.03,1.01h9.98c0.57,0,1.03-0.45,1.03-1.01
	S30.62,29.11,30.05,29.11z"/>
<path class="st0" d="M30.05,25.99h-9.98c-0.57,0-1.03,0.45-1.03,1.01S19.5,28,20.07,28h9.98c0.57,0,1.03-0.45,1.03-1.01
	C31.09,26.44,30.62,25.99,30.05,25.99z"/>
</svg>
