<?xml version="1.0" encoding="utf-8"?>
<!-- Generator: Adobe Illustrator 24.1.1, SVG Export Plug-In . SVG Version: 6.00 Build 0)  -->
<svg version="1.1" id="Layer_1" xmlns="http://www.w3.org/2000/svg" xmlns:xlink="http://www.w3.org/1999/xlink" x="0px" y="0px"
	 viewBox="0 0 50 50" style="enable-background:new 0 0 50 50;" xml:space="preserve">
<style type="text/css">
	.st0{opacity:0.4;}
</style>
<g class="st0">
	<path d="M23.53,26.55c-1.3,0.65-2.11,2.11-1.71,3.66c0.24,1.14,1.22,2.11,2.44,2.36c1.63,0.33,3.09-0.41,3.66-1.71
		c0.98-1.95,1.79-3.9,2.93-5.69l2.28-3.82l-3.9,2.36C27.44,24.76,25.49,25.65,23.53,26.55z"/>
	<path d="M49.4,29.47L49.4,29.47c0-3.2-0.63-6.26-1.77-9.07c-0.01-0.04-0.01-0.08-0.02-0.12c-0.01-0.03-0.04-0.05-0.06-0.08
		c-1.23-2.97-3.03-5.65-5.26-7.9c-0.02-0.02-0.03-0.05-0.05-0.07s-0.05-0.03-0.07-0.05C37.75,7.8,31.68,5.07,25,5.07
		c-3.2,0-6.26,0.63-9.07,1.77c-0.04,0.01-0.08,0.01-0.12,0.02c-0.03,0.01-0.05,0.04-0.08,0.06c-2.97,1.23-5.65,3.03-7.9,5.26
		c-0.02,0.02-0.05,0.03-0.07,0.05s-0.03,0.05-0.05,0.07C3.32,16.72,0.6,22.79,0.6,29.47v0l0,0l0,0c0,3.18,0.61,6.28,1.78,9.16
		c0,0.01,0,0.02,0.01,0.03c0.01,0.02,0.02,0.04,0.03,0.06c0.86,2.09,2.01,4.07,3.47,5.88c0.16,0.24,0.41,0.33,0.65,0.33h36.92
		c0.24,0,0.49-0.08,0.65-0.33C47.61,40.29,49.4,35,49.4,29.47L49.4,29.47L49.4,29.47z M43.13,43.3H6.94c-1.1-1.42-2-2.94-2.73-4.54
		l2.24-0.91c0.41-0.16,0.57-0.65,0.41-1.06c-0.16-0.41-0.65-0.57-1.06-0.41l-2.19,0.89c-0.82-2.22-1.27-4.57-1.36-6.99h5.66
		c0.49,0,0.81-0.33,0.81-0.81c0-0.49-0.33-0.81-0.81-0.81H2.25c0.09-2.56,0.61-5.02,1.49-7.31l2.23,0.96
		c0.08,0.08,0.24,0.08,0.33,0.08c0.33,0,0.57-0.16,0.73-0.49c0.16-0.41,0-0.89-0.41-1.06l-2.25-0.97c1.02-2.18,2.37-4.17,3.99-5.9
		l1.67,1.67c0.16,0.16,0.33,0.24,0.57,0.24c0.24,0,0.41-0.08,0.57-0.24c0.33-0.33,0.33-0.81,0-1.14L9.5,12.83
		c1.82-1.7,3.92-3.1,6.22-4.14l0.91,2.23c0.08,0.33,0.41,0.49,0.73,0.49c0.08,0,0.16,0,0.33-0.08c0.41-0.16,0.57-0.65,0.41-1.06
		L17.2,8.09c2.19-0.81,4.54-1.28,6.99-1.36v5.67c0,0.49,0.33,0.81,0.81,0.81c0.49,0,0.81-0.33,0.81-0.81V6.72
		c2.56,0.09,5.02,0.61,7.31,1.49l-0.96,2.23c-0.16,0.41,0,0.89,0.41,1.06c0.08,0.08,0.24,0.08,0.33,0.08c0.33,0,0.65-0.24,0.73-0.49
		l0.97-2.25c2.18,1.02,4.17,2.37,5.9,3.99l-1.67,1.67c-0.33,0.33-0.33,0.81,0,1.14c0.16,0.16,0.33,0.24,0.57,0.24
		c0.16,0,0.41-0.08,0.57-0.24l1.67-1.67c1.7,1.82,3.1,3.92,4.14,6.22l-2.23,0.91c-0.41,0.16-0.57,0.65-0.41,1.06
		c0.08,0.33,0.41,0.49,0.73,0.49c0.08,0,0.16-0.08,0.33-0.08l2.19-0.89c0.81,2.19,1.28,4.54,1.36,6.99h-5.67
		c-0.49,0-0.81,0.33-0.81,0.81c0,0.49,0.33,0.81,0.81,0.81h5.66c-0.09,2.53-0.59,4.99-1.47,7.31l-2.24-0.97
		c-0.41-0.16-0.89,0-1.06,0.41c-0.16,0.41,0,0.89,0.41,1.06l2.27,0.98C44.96,40.56,44.13,41.98,43.13,43.3z"/>
</g>
</svg>
