<?xml version="1.0" encoding="utf-8"?>
<!-- Generator: Adobe Illustrator 24.1.1, SVG Export Plug-In . SVG Version: 6.00 Build 0)  -->
<svg version="1.1" id="Layer_1" xmlns="http://www.w3.org/2000/svg" xmlns:xlink="http://www.w3.org/1999/xlink" x="0px" y="0px"
	 viewBox="0 0 50 50" style="enable-background:new 0 0 50 50;" xml:space="preserve">
<style type="text/css">
	.st0{fill:#157DC3;}
</style>
<path class="st0" d="M25,5.07c-13.42,0-24.4,10.98-24.4,24.4C0.6,35,2.39,40.29,5.89,44.6c0.16,0.24,0.41,0.33,0.65,0.33h36.93
	c0.24,0,0.49-0.08,0.65-0.33c3.5-4.31,5.29-9.6,5.29-15.13C49.4,16.05,38.42,5.07,25,5.07z M45.65,39.08l-2.27-0.98
	c-0.41-0.16-0.57-0.65-0.41-1.06c0.16-0.41,0.65-0.57,1.06-0.41l2.24,0.97C46.08,38.1,45.88,38.59,45.65,39.08z M3.62,37.27
	l2.19-0.89c0.41-0.16,0.89,0,1.06,0.41c0.16,0.41,0,0.89-0.41,1.06l-2.24,0.91C4,38.27,3.8,37.77,3.62,37.27z M2.23,29.47
	c0-0.27,0.01-0.54,0.02-0.81h5.67c0.49,0,0.81,0.33,0.81,0.81c0,0.49-0.33,0.81-0.81,0.81H2.26C2.25,30.02,2.23,29.75,2.23,29.47z
	 M4.37,19.88l2.25,0.97c0.41,0.16,0.57,0.65,0.41,1.06c-0.16,0.33-0.41,0.49-0.73,0.49c-0.08,0-0.24,0-0.33-0.08l-2.23-0.96
	C3.93,20.85,4.14,20.36,4.37,19.88z M9.5,12.83l1.67,1.67c0.33,0.33,0.33,0.81,0,1.14c-0.16,0.16-0.33,0.24-0.57,0.24
	s-0.41-0.08-0.57-0.24l-1.67-1.67C8.73,13.58,9.11,13.2,9.5,12.83z M41.64,13.97l-1.67,1.67c-0.16,0.16-0.41,0.24-0.57,0.24
	c-0.24,0-0.41-0.08-0.57-0.24c-0.33-0.33-0.33-0.81,0-1.14l1.67-1.67C40.89,13.2,41.27,13.58,41.64,13.97z M46.39,21.67l-2.19,0.89
	c-0.16,0-0.24,0.08-0.33,0.08c-0.33,0-0.65-0.16-0.73-0.49c-0.16-0.41,0-0.89,0.41-1.06l2.23-0.91C46,20.68,46.2,21.17,46.39,21.67z
	 M33.62,11.09c-0.08,0.24-0.41,0.49-0.73,0.49c-0.08,0-0.24,0-0.33-0.08c-0.41-0.16-0.57-0.65-0.41-1.06l0.96-2.23
	c0.5,0.19,0.99,0.4,1.47,0.63L33.62,11.09z M33.13,21.34l-2.28,3.82c-1.14,1.79-1.95,3.74-2.93,5.69c-0.57,1.3-2.03,2.03-3.66,1.71
	c-1.22-0.24-2.2-1.22-2.44-2.36c-0.41-1.55,0.41-3.01,1.71-3.66c1.95-0.89,3.9-1.79,5.69-2.85L33.13,21.34z M18.09,10.28
	c0.16,0.41,0,0.89-0.41,1.06c-0.16,0.08-0.24,0.08-0.33,0.08c-0.33,0-0.65-0.16-0.73-0.49L15.72,8.7c0.49-0.22,0.98-0.43,1.48-0.61
	L18.09,10.28z M42.08,30.29c-0.49,0-0.81-0.33-0.81-0.81c0-0.49,0.33-0.81,0.81-0.81h5.67c0.01,0.27,0.02,0.54,0.02,0.81
	c0,0.27-0.02,0.54-0.03,0.81H42.08z M25.81,6.72v5.67c0,0.49-0.33,0.81-0.81,0.81s-0.81-0.33-0.81-0.81V6.72
	C24.46,6.71,24.73,6.7,25,6.7S25.54,6.71,25.81,6.72z"/>
</svg>
