<?xml version="1.0" encoding="utf-8"?>
<!-- Generator: Adobe Illustrator 24.1.1, SVG Export Plug-In . SVG Version: 6.00 Build 0)  -->
<svg version="1.1" id="Layer_1" xmlns="http://www.w3.org/2000/svg" xmlns:xlink="http://www.w3.org/1999/xlink" x="0px" y="0px"
	 viewBox="0 0 50 50" style="enable-background:new 0 0 50 50;" xml:space="preserve">
<style type="text/css">
	.st0{fill:#157DC3;}
</style>
<g>
	<path class="st0" d="M31.19,12.45V3.32H0.79v21.4h4.51v9.56l8.37-9.56h5.03v-8.9v-3.38h3.38H31.19z M15.57,18.53h-2.09v-2.22h2.09
		V18.53z M18.16,12.75c-0.16,0.36-0.44,0.67-0.84,0.94c-0.2,0.14-0.4,0.25-0.61,0.35c-0.21,0.1-0.4,0.2-0.57,0.3
		c-0.18,0.1-0.32,0.2-0.43,0.31c-0.11,0.11-0.17,0.23-0.17,0.38h-2.09c0-0.19,0.01-0.38,0.03-0.56c0.02-0.18,0.06-0.36,0.14-0.53
		c0.07-0.17,0.18-0.33,0.32-0.48c0.14-0.15,0.34-0.29,0.58-0.42c0.1-0.05,0.24-0.13,0.43-0.22c0.18-0.09,0.37-0.2,0.55-0.32
		c0.18-0.13,0.34-0.27,0.48-0.43c0.14-0.16,0.2-0.33,0.2-0.52c0-0.21-0.08-0.37-0.24-0.49c-0.16-0.12-0.35-0.18-0.57-0.18
		c-0.16,0-0.3,0.03-0.42,0.09c-0.12,0.06-0.22,0.14-0.3,0.23c-0.09,0.09-0.16,0.18-0.22,0.28c-0.06,0.09-0.11,0.17-0.17,0.24
		l-1.64-1.16c0.23-0.55,0.6-0.98,1.11-1.28c0.5-0.31,1.08-0.46,1.73-0.46c0.34,0,0.69,0.05,1.04,0.15c0.35,0.1,0.67,0.26,0.95,0.47
		c0.28,0.22,0.51,0.5,0.69,0.85c0.18,0.35,0.26,0.78,0.26,1.28C18.4,12,18.32,12.39,18.16,12.75z"/>
	<path class="st0" d="M22.07,15.83v21.29h14.27l8.37,9.56v-9.56h4.51V15.83H22.07z M35.49,30.92L35.49,30.92h-2.57v-2.49h2.57V30.92
		z M35.49,26.86L35.49,26.86h-2.57v-5.64h2.57V26.86z"/>
</g>
</svg>
