<?xml version="1.0" encoding="utf-8"?>
<!-- Generator: Adobe Illustrator 24.1.1, SVG Export Plug-In . SVG Version: 6.00 Build 0)  -->
<svg version="1.1" id="Layer_1" xmlns="http://www.w3.org/2000/svg" xmlns:xlink="http://www.w3.org/1999/xlink" x="0px" y="0px"
	 viewBox="0 0 50 50" style="enable-background:new 0 0 50 50;" xml:space="preserve">
<style type="text/css">
	.st0{opacity:0.4;}
</style>
<g class="st0">
	<g>
		<path d="M31.19,16.66V3.32H0.79v21.4h5.45v6.73l6.48-6.73h7.04v11.44h17.54l6.48,7.67v-7.67h5.45V16.66H31.19z M19.75,22.29h-7.63
			l-3.46,3v-3H3.22V5.76h25.54v10.9h-9.01L19.75,22.29L19.75,22.29z M46.78,33.73h-5.45v3.95l-3.46-3.95H22.18V19.09h24.6
			L46.78,33.73L46.78,33.73z"/>
	</g>
</g>
<g class="st0">
	<g>
		<path d="M18.13,10.28c-0.18-0.35-0.41-0.64-0.69-0.85c-0.28-0.22-0.6-0.37-0.95-0.47c-0.35-0.1-0.7-0.15-1.04-0.15
			c-0.65,0-1.23,0.15-1.73,0.46c-0.5,0.31-0.87,0.73-1.11,1.28l1.64,1.16c0.05-0.06,0.11-0.14,0.17-0.24
			c0.06-0.09,0.13-0.19,0.22-0.28c0.09-0.09,0.19-0.17,0.3-0.23c0.12-0.06,0.26-0.09,0.42-0.09c0.22,0,0.41,0.06,0.57,0.18
			c0.16,0.12,0.24,0.29,0.24,0.49c0,0.19-0.07,0.36-0.2,0.52c-0.14,0.16-0.3,0.3-0.48,0.43c-0.18,0.13-0.37,0.23-0.55,0.32
			c-0.18,0.09-0.33,0.16-0.43,0.22c-0.24,0.13-0.44,0.27-0.58,0.42c-0.14,0.15-0.25,0.31-0.32,0.48c-0.07,0.17-0.12,0.34-0.14,0.53
			c-0.02,0.18-0.03,0.37-0.03,0.56h2.09c0-0.14,0.06-0.27,0.17-0.38c0.11-0.11,0.26-0.21,0.43-0.31c0.18-0.1,0.37-0.2,0.57-0.3
			c0.21-0.1,0.41-0.22,0.61-0.35c0.41-0.27,0.69-0.58,0.84-0.94c0.16-0.36,0.24-0.75,0.24-1.18C18.4,11.06,18.31,10.64,18.13,10.28z
			"/>
	</g>
</g>
<g class="st0">
	<g>
		<rect x="13.48" y="16.31" width="2.09" height="2.22"/>
	</g>
</g>
<g class="st0">
	<g>
		<rect x="32.92" y="21.23" width="2.57" height="5.64"/>
	</g>
</g>
<g class="st0">
	<g>
		<rect x="32.92" y="28.43" width="2.57" height="2.49"/>
	</g>
</g>
</svg>
