<?xml version="1.0" encoding="utf-8"?>
<!-- Generator: Adobe Illustrator 24.1.1, SVG Export Plug-In . SVG Version: 6.00 Build 0)  -->
<svg version="1.1" id="Layer_1" xmlns="http://www.w3.org/2000/svg" xmlns:xlink="http://www.w3.org/1999/xlink" x="0px" y="0px"
	 viewBox="0 0 50 50" style="enable-background:new 0 0 50 50;" xml:space="preserve">
<style type="text/css">
	.st0{opacity:0.4;}
</style>
<g class="st0">
	<path d="M31.95,44.79h0.1h1.51h5.35h1.51v-1.51V32.89v-1.51h-1.51h-5.35h-0.1h-1.51H26.6h-1.51v1.51v10.39v1.51h1.51H31.95z
		 M33.56,32.89h5.35v10.39h-5.35V32.89z M26.6,32.89h5.35v10.39H26.6V32.89z"/>
	<path d="M48.3,23.06l-3.1-3.1V7.58h2.12V2.34h-9.78v5.25h2.12v6.83L27.22,1.98c-0.61-0.61-1.44-0.91-2.27-0.91s-1.66,0.3-2.27,0.91
		L1.7,23.06c-1.21,1.21-1.21,3.33,0,4.54c0.61,0.61,1.44,0.91,2.27,0.91c0.43,0,0.85-0.08,1.25-0.24v20.65h6.42v-11.7
		c0-3.33,1.68-5.67,4.91-5.67c3.33,0,4.91,2.44,4.91,5.67v11.7h23.3V28.26c0.4,0.17,0.84,0.25,1.27,0.25c0.83,0,1.66-0.3,2.27-0.91
		C49.51,26.29,49.51,24.27,48.3,23.06z M39.05,3.85h6.76v2.22h-6.76V3.85z M41.16,15.28V7.75h2.52v9.98L41.16,15.28z M43.24,47.41
		H22.97V37.22c0-4.36-2.52-7.18-6.42-7.18s-6.42,2.82-6.42,7.18v10.19H6.73V27.27c7.17-7.08,11.35-11.26,18.26-18.26l18.25,18.25
		V47.41z M47.21,26.55C46.91,26.84,46.49,27,46.03,27c-0.47,0-0.9-0.17-1.2-0.46L26.07,7.77L25,6.7l-1.07,1.07L5.17,26.53
		C4.87,26.83,4.44,27,3.97,27s-0.9-0.17-1.2-0.46c-0.62-0.62-0.62-1.78,0-2.4L23.75,3.05c0.3-0.3,0.73-0.46,1.2-0.46
		s0.9,0.17,1.2,0.46l21.08,21.08C47.86,24.76,47.85,25.84,47.21,26.55z"/>
</g>
</svg>
