<?xml version="1.0" encoding="utf-8"?>
<!-- Generator: Adobe Illustrator 24.1.1, SVG Export Plug-In . SVG Version: 6.00 Build 0)  -->
<svg version="1.1" id="Layer_1" xmlns="http://www.w3.org/2000/svg" xmlns:xlink="http://www.w3.org/1999/xlink" x="0px" y="0px"
	 viewBox="0 0 50 50" style="enable-background:new 0 0 50 50;" xml:space="preserve">
<style type="text/css">
	.st0{fill:#157DC3;}
</style>
<g>
	<path class="st0" d="M6.81,29.57v19.38h5.97V38.33c0-3.02,1.56-5.14,4.56-5.14c3.09,0,4.56,2.21,4.56,5.14v10.62h21.66V29.57
		c-7.22-7.05-11.25-10.99-18.38-17.95C18.06,18.68,14.02,22.61,6.81,29.57z M33.15,34.39h4.97v9.43h-4.97V34.39z M26.68,34.39h4.97
		v9.43h-4.97V34.39z"/>
	<path class="st0" d="M46.85,21.01l-2.88-2.82V6.96h1.97V2.2h-9.09v4.76h1.97v6.2L27.26,1.88c-1.13-1.1-3.09-1.1-4.22,0L3.54,21.01
		c-1.13,1.1-1.13,3.02,0,4.12s3.09,1.1,4.22,0L25.19,8.1l17.44,17.03c1.13,1.1,3.09,1.1,4.22,0C47.98,23.94,47.98,22.11,46.85,21.01
		z"/>
</g>
</svg>
