<?xml version="1.0" encoding="utf-8"?>
<!-- Generator: Adobe Illustrator 24.1.1, SVG Export Plug-In . SVG Version: 6.00 Build 0)  -->
<svg version="1.1" id="Layer_1" xmlns="http://www.w3.org/2000/svg" xmlns:xlink="http://www.w3.org/1999/xlink" x="0px" y="0px"
	 viewBox="0 0 30 30" style="enable-background:new 0 0 30 30;" xml:space="preserve">
<style type="text/css">
	.st0{fill:#FFFFFF;}
</style>
<g>
	<path class="st0" d="M29.18,13.56c0.09-0.22,0.09-0.47,0-0.68c-0.01-0.03-0.03-0.05-0.05-0.07c-0.04-0.07-0.08-0.15-0.14-0.21
		l-4.45-4.45c-0.35-0.35-0.91-0.35-1.26,0c-0.35,0.35-0.35,0.91,0,1.26l2.93,2.93h-9.13c-0.49,0-0.89,0.4-0.89,0.89
		c0,0.49,0.4,0.89,0.89,0.89h9.13l-2.93,2.93c-0.35,0.35-0.35,0.91,0,1.26c0.17,0.17,0.4,0.26,0.63,0.26s0.46-0.09,0.63-0.26
		l4.45-4.45C29.07,13.77,29.13,13.67,29.18,13.56z"/>
	<path class="st0" d="M18.86,16.19c-0.49,0-0.89,0.4-0.89,0.89v5.34c0,0.82-0.67,1.48-1.48,1.48h-3.86V5.5
		c0-1.01-0.64-1.92-1.62-2.26L8.88,2.53h7.61c0.82,0,1.48,0.67,1.48,1.48v5.34c0,0.49,0.4,0.89,0.89,0.89c0.49,0,0.89-0.4,0.89-0.89
		V4.02c0-1.8-1.46-3.26-3.26-3.26H3.13c-1.31,0-2.37,1.06-2.37,2.37V24.5c0,1.01,0.64,1.92,1.62,2.26l7.14,2.38
		c0.24,0.07,0.48,0.11,0.74,0.11c1.31,0,2.37-1.06,2.37-2.37v-1.19h3.86c1.8,0,3.26-1.46,3.26-3.26v-5.34
		C19.75,16.59,19.35,16.19,18.86,16.19z M10.84,26.87c0,0.33-0.27,0.59-0.59,0.59c-0.08,0-0.14-0.01-0.19-0.03l-7.11-2.37
		c-0.24-0.08-0.41-0.32-0.41-0.57V3.13c0-0.33,0.27-0.59,0.59-0.59c0.08,0,0.14,0.01,0.19,0.03l7.11,2.37
		c0.24,0.08,0.41,0.32,0.41,0.57V26.87z"/>
</g>
</svg>
