<svg xmlns="http://www.w3.org/2000/svg" width="286" height="286" viewBox="0 0 286 286">
  <defs>
    <style>
      .cls-1 {
        fill: #fff;
      }

      .cls-1, .cls-2 {
        fill-rule: evenodd;
      }

      .cls-2 {
        fill: #157dc3;
      }
    </style>
  </defs>
  <path class="cls-1" d="M143.218,3.132A140.335,140.335,0,1,1,2.883,143.467,140.335,140.335,0,0,1,143.218,3.132Z"/>
  <path class="cls-2" d="M80.6,118.556L143.669,84.71l57.624,31.979,5.118,0.771L144.035,75.85l-19.383,9.141c0.069-3.925-.111-8.942.26-12.873,0.251-2.658,1.2-4.522,3.577-5.533,1.991-.846,1.975-0.887,1.968-3.134,0-1.451-.014-1.465-1.379-1.466q-12.043,0-24.088,0c-0.843,0-1.389-.032-1.744,0-0.818.034-.829,0.235-0.833,1.458,0,1.345-.011,1.9.411,2.31a1.735,1.735,0,0,0,1.067.626h0.026c0.141,0.062.3,0.128,0.464,0.2,2.379,1.012,3.325,2.875,3.576,5.533,0.154,1.634.212,3.266,0.233,4.9-0.268,3.3-.467,14.267-0.5,16.911l-27.1,14.18Zm42.431-15.8,20.487-10.417L194.927,117l-50.68-27.741L89.932,117.767l16.706-7Zm23.593,66.481h-7.393v8.091h7.393a1.145,1.145,0,0,0,1.144-1.143v-5.805A1.145,1.145,0,0,0,146.622,169.234ZM207.5,139.575c-3.4.109-6.807-.019-10.209,0.05a1.757,1.757,0,0,1-1.758-1c-2.445-4.152-5-8.234-7.357-12.441-2.376-4.245-5.332-7.808-9.619-10.014a21.648,21.648,0,0,0-10.467-2.453c-1.394.027-10.062,0.006-11.757,0.006q-18.828,0-37.655-.007a21.327,21.327,0,0,0-9.543,2.155,19.3,19.3,0,0,0-8.269,7.093c-3.163,5.119-6.212,10.316-9.26,15.512a1.982,1.982,0,0,1-1.948,1.13c-3.33-.035-6.66-0.02-9.99-0.012-3.546.009-5.3,1.211-6.351,4.731-0.74,2.481-.043,5.549,2.636,6.615,1.836,0.731,3.717,1.359,5.611,1.907,0.95,0.275,1.145.651,0.613,1.48-0.141.22-.273,0.446-0.406,0.672a54.372,54.372,0,0,0-2.932,5.218c-1.81,4.017-2.475,8.336-3.029,12.664a98.377,98.377,0,0,0-.612,10.946c-0.176,11.406-.091,24.833-0.053,36.242,0.011,3.2,1.691,4.908,4.684,4.886,4.428-.032,8.856,0,13.284-0.009,2.966,0,4.613-1.719,4.619-4.8,0-2.023,0-6.061,0-8.083,0-1.713,0-1.718,1.637-1.718l44.242,0,26.787,0H187.85c1.607,0,1.609.005,1.61,1.727,0,2.061.127,6.148-.031,8.195a4.267,4.267,0,0,0,4.549,4.717c4.352-.116,8.709-0.028,13.064-0.032,3.341,0,4.843-1.555,4.846-5.017,0.007-6.067.051-14.15,0-20.217-0.093-10.274.442-20.575-1.235-30.787a37.831,37.831,0,0,0-2.469-8.84,63.441,63.441,0,0,0-3.35-5.889c-0.367-.658-0.31-1.048.426-1.277,1.713-.534,3.434-1.046,5.126-1.644a4.849,4.849,0,0,0,3.474-3.9C214.531,143.159,212.006,139.43,207.5,139.575ZM105.829,182.644c-2.6.771-5.239,0.1-7.351,0.368-2.471,0-4.451.091-6.421-.022a7.878,7.878,0,0,1-2.777-15.246,7.06,7.06,0,0,1,4.923.023c4.259,1.583,8.565,3.032,12.753,4.82,1.988,0.848,2.865,3.673,2.745,5.22A5.354,5.354,0,0,1,105.829,182.644Zm51.32-6.461A10.536,10.536,0,0,1,146.621,186.7h-7.393v17.333h-9.383l0-44.18h16.777a10.537,10.537,0,0,1,10.527,10.522v5.805ZM95.863,152.854c-1,0-1.986-.1-2.47-1.1a3.164,3.164,0,0,1,.3-3.136c3.87-6.457,7.778-12.89,11.528-19.422a15.534,15.534,0,0,1,9.431-7.767,10.478,10.478,0,0,1,2.821-.371c17.417,0.008,34.834-.078,52.25.065,4.812,0.04,8.665,2.5,11.27,6.805q4.824,7.967,9.535,16.008a43.007,43.007,0,0,1,3.246,5.817,2.165,2.165,0,0,1-1.858,3.08c-0.656.041-1.316,0.014-1.975,0.014C166.015,152.848,100,152.836,95.863,152.854Zm103.007,29.13a8.118,8.118,0,0,1-3.878,1.01c-1.971.092-3.948,0.023-5.922,0.023-2.012,0-4.029.109-6.031-.031-2.1-.146-3.962-0.838-5.048-3.013a5.7,5.7,0,0,1,2.782-7.777q6.434-2.415,12.911-4.7c3-1.063,7.164,1.112,8.409,4.335C203.679,175.936,202.329,179.891,198.87,181.984Z"/>
</svg>
