<?xml version="1.0" encoding="utf-8"?>
<!-- Generator: Adobe Illustrator 24.1.1, SVG Export Plug-In . SVG Version: 6.00 Build 0)  -->
<svg version="1.1" id="Layer_1" xmlns="http://www.w3.org/2000/svg" xmlns:xlink="http://www.w3.org/1999/xlink" x="0px" y="0px"
	 viewBox="0 0 30 30" style="enable-background:new 0 0 30 30;" xml:space="preserve">
<style type="text/css">
	.st0{fill:#FFFFFF;}
</style>
<g>
	<g>
		<path class="st0" d="M3.81,8.71l0,1.86l11.22-6.02l10.25,5.69l0.91,0.14l-11.1-7.4l-3.45,1.63c0.01-0.7-0.02-1.59,0.05-2.29
			c0.04-0.47,0.21-0.8,0.64-0.98c0.35-0.15,0.35-0.16,0.35-0.56c0-0.26,0-0.26-0.25-0.26c-1.43,0-2.86,0-4.29,0
			C8,0.5,7.9,0.5,7.84,0.5C7.69,0.51,7.69,0.55,7.69,0.76c0,0.24,0,0.34,0.07,0.41c0.04,0.06,0.1,0.09,0.19,0.11h0
			C7.98,1.3,8.01,1.31,8.04,1.32C8.46,1.5,8.63,1.83,8.68,2.3C8.7,2.6,8.71,2.89,8.72,3.18C8.67,3.76,8.63,5.71,8.63,6.18L3.81,8.71
			z M8.44,9.18l2.92-1.43L15,5.9l9.15,4.39l-9.02-4.93l-9.67,5.07L8.44,9.18z M15.56,19.58h-1.32l0,1.44l1.32,0
			c0.11,0,0.2-0.09,0.2-0.2l0-1.03C15.76,19.67,15.67,19.58,15.56,19.58z M26.39,14.31c-0.6,0.02-1.21,0-1.82,0.01
			c-0.15,0-0.24-0.05-0.31-0.18c-0.43-0.74-0.89-1.46-1.31-2.21c-0.42-0.76-0.95-1.39-1.71-1.78c-0.59-0.3-1.21-0.45-1.86-0.44
			c-0.25,0-1.79,0-2.09,0c-2.23,0-4.47,0-6.7,0c-0.59,0-1.16,0.12-1.7,0.38c-0.59,0.29-1.11,0.68-1.47,1.26
			c-0.56,0.91-1.11,1.84-1.65,2.76c-0.09,0.15-0.19,0.2-0.35,0.2c-0.59-0.01-1.19,0-1.78,0c-0.63,0-0.94,0.22-1.13,0.84
			c-0.13,0.44-0.01,0.99,0.47,1.18c0.33,0.13,0.66,0.24,1,0.34c0.17,0.05,0.2,0.12,0.11,0.26c-0.03,0.04-0.05,0.08-0.07,0.12
			c-0.18,0.31-0.37,0.6-0.52,0.93c-0.32,0.71-0.44,1.48-0.54,2.25c-0.08,0.64-0.1,1.3-0.11,1.95c-0.03,2.03-0.02,4.42-0.01,6.45
			c0,0.57,0.3,0.87,0.83,0.87c0.79-0.01,1.58,0,2.36,0c0.53,0,0.82-0.31,0.82-0.85c0-0.36,0-1.08,0-1.44c0-0.3,0-0.31,0.29-0.31
			c2.62,0,5.25,0,7.87,0c1.59,0,3.18,0,4.77,0c1.04,0,2.07,0,3.11,0c0.29,0,0.29,0,0.29,0.31c0,0.37,0.02,1.09-0.01,1.46
			c-0.04,0.5,0.33,0.85,0.81,0.84c0.77-0.02,1.55-0.01,2.32-0.01c0.59,0,0.86-0.28,0.86-0.89c0-1.08,0.01-2.52,0-3.6
			c-0.02-1.83,0.08-3.66-0.22-5.48c-0.09-0.54-0.22-1.07-0.44-1.57c-0.16-0.37-0.4-0.7-0.6-1.05c-0.07-0.12-0.06-0.19,0.08-0.23
			c0.3-0.09,0.61-0.19,0.91-0.29c0.32-0.11,0.56-0.33,0.62-0.69C27.64,14.94,27.19,14.28,26.39,14.31z M8.3,21.97
			c-0.46,0.14-0.93,0.02-1.31,0.07c-0.44,0-0.79,0.02-1.14,0C5.33,22,4.9,21.8,4.62,21.3c-0.41-0.74-0.05-1.72,0.73-1.98
			c0.3-0.1,0.58-0.1,0.88,0c0.76,0.28,1.52,0.54,2.27,0.86c0.35,0.15,0.51,0.65,0.49,0.93C8.95,21.54,8.67,21.86,8.3,21.97z
			 M17.43,20.82c0,1.03-0.84,1.87-1.87,1.87l-1.32,0l0,3.08l-1.67,0l0-7.86l2.99,0c1.03,0,1.87,0.84,1.87,1.87L17.43,20.82z
			 M6.52,16.67c-0.18,0-0.35-0.02-0.44-0.2c-0.09-0.19-0.06-0.37,0.05-0.56c0.69-1.15,1.38-2.29,2.05-3.46
			c0.4-0.69,0.93-1.17,1.68-1.38c0.16-0.05,0.33-0.07,0.5-0.07c3.1,0,6.2-0.01,9.3,0.01c0.86,0.01,1.54,0.44,2.01,1.21
			c0.57,0.94,1.14,1.89,1.7,2.85c0.2,0.34,0.43,0.66,0.58,1.03c0.1,0.27-0.05,0.53-0.33,0.55c-0.12,0.01-0.23,0-0.35,0
			C19.01,16.67,7.26,16.66,6.52,16.67z M24.85,21.85c-0.21,0.13-0.45,0.17-0.69,0.18c-0.35,0.02-0.7,0-1.05,0
			c-0.36,0-0.72,0.02-1.07-0.01c-0.37-0.03-0.7-0.15-0.9-0.54c-0.26-0.51-0.03-1.19,0.49-1.38c0.76-0.29,1.53-0.57,2.3-0.84
			c0.53-0.19,1.27,0.2,1.5,0.77C25.71,20.77,25.47,21.48,24.85,21.85z"/>
	</g>
</g>
</svg>
