<?xml version="1.0" encoding="utf-8"?>
<!-- Generator: Adobe Illustrator 24.1.1, SVG Export Plug-In . SVG Version: 6.00 Build 0)  -->
<svg version="1.1" id="Layer_1" xmlns="http://www.w3.org/2000/svg" xmlns:xlink="http://www.w3.org/1999/xlink" x="0px" y="0px"
	 viewBox="0 0 24 24" style="enable-background:new 0 0 24 24;" xml:space="preserve">
<style type="text/css">
	.st0{fill:#157DC3;}
	.st1{fill:none;stroke:#157DC3;stroke-width:0.25;stroke-miterlimit:10;}
</style>
<g>
	<g>
		<path class="st0" d="M11.98,21.59c0.77,0,1.39-0.63,1.39-1.4s-0.62-1.4-1.39-1.4c-0.77,0-1.39,0.63-1.39,1.4
			S11.21,21.59,11.98,21.59z M11.98,19.49c0.38,0,0.7,0.31,0.7,0.7s-0.31,0.7-0.7,0.7c-0.38,0-0.7-0.31-0.7-0.7
			S11.59,19.49,11.98,19.49z M10.94,2.36H9.48c-0.2,0-0.36,0.17-0.36,0.37c0,0.21,0.16,0.37,0.36,0.37h1.45
			c0.2,0,0.36-0.17,0.36-0.37C11.3,2.53,11.14,2.36,10.94,2.36z M13.43,2.36h-0.36c-0.2,0-0.36,0.17-0.36,0.37
			c0,0.21,0.16,0.37,0.36,0.37h0.36c0.2,0,0.36-0.17,0.36-0.37C13.8,2.53,13.63,2.36,13.43,2.36z M16.56,0.85H7.4
			c-0.88,0-1.6,0.74-1.6,1.64v19.05c0,0.9,0.72,1.64,1.6,1.64h9.34c0.06,0,0.11-0.01,0.15-0.04c0.21-0.05,0.41-0.14,0.58-0.26
			c0.03,0.17,0.42,0.35,0.42,0.35c0,0,0-0.8,0-0.8c0.05-0.07,0.08-0.15,0.12-0.22c0.01-0.02,0.02-0.04,0.02-0.06
			c0.01-0.02,0.02-0.03,0.02-0.05c0.01-0.01,0-0.03,0.01-0.04c0.05-0.16,0.09-0.34,0.09-0.52V2.49C18.16,1.58,17.44,0.85,16.56,0.85
			z M17.43,21.54c0,0.12-0.02,0.22-0.06,0.33c-0.02,0.06-0.06,0.13-0.09,0.18c-0.16,0.23-0.42,0.39-0.72,0.39H7.4
			c-0.48,0-0.87-0.4-0.87-0.9v-3.62h10.91V21.54z M17.43,17.17H6.52V4.62h10.91V17.17z M17.43,3.88H6.52V2.49
			c0-0.49,0.39-0.9,0.87-0.9h9.16c0.48,0,0.87,0.4,0.87,0.9V3.88z"/>
	</g>
	<g>
		<path class="st1" d="M11.98,21.59c0.77,0,1.39-0.63,1.39-1.4s-0.62-1.4-1.39-1.4c-0.77,0-1.39,0.63-1.39,1.4
			S11.21,21.59,11.98,21.59z M11.98,19.49c0.38,0,0.7,0.31,0.7,0.7s-0.31,0.7-0.7,0.7c-0.38,0-0.7-0.31-0.7-0.7
			S11.59,19.49,11.98,19.49z M10.94,2.36H9.48c-0.2,0-0.36,0.17-0.36,0.37c0,0.21,0.16,0.37,0.36,0.37h1.45
			c0.2,0,0.36-0.17,0.36-0.37C11.3,2.53,11.14,2.36,10.94,2.36z M13.43,2.36h-0.36c-0.2,0-0.36,0.17-0.36,0.37
			c0,0.21,0.16,0.37,0.36,0.37h0.36c0.2,0,0.36-0.17,0.36-0.37C13.8,2.53,13.63,2.36,13.43,2.36z M16.56,0.85H7.4
			c-0.88,0-1.6,0.74-1.6,1.64v19.05c0,0.9,0.72,1.64,1.6,1.64h9.34c0.06,0,0.11-0.01,0.15-0.04c0.21-0.05,0.41-0.14,0.58-0.26
			c0.03,0.17,0.42,0.35,0.42,0.35c0,0,0-0.8,0-0.8c0.05-0.07,0.08-0.15,0.12-0.22c0.01-0.02,0.02-0.04,0.02-0.06
			c0.01-0.02,0.02-0.03,0.02-0.05c0.01-0.01,0-0.03,0.01-0.04c0.05-0.16,0.09-0.34,0.09-0.52V2.49C18.16,1.58,17.44,0.85,16.56,0.85
			z M17.43,21.54c0,0.12-0.02,0.22-0.06,0.33c-0.02,0.06-0.06,0.13-0.09,0.18c-0.16,0.23-0.42,0.39-0.72,0.39H7.4
			c-0.48,0-0.87-0.4-0.87-0.9v-3.62h10.91V21.54z M17.43,17.17H6.52V4.62h10.91V17.17z M17.43,3.88H6.52V2.49
			c0-0.49,0.39-0.9,0.87-0.9h9.16c0.48,0,0.87,0.4,0.87,0.9V3.88z"/>
	</g>
</g>
</svg>
