<?xml version="1.0" encoding="utf-8"?>
<!-- Generator: Adobe Illustrator 24.1.1, SVG Export Plug-In . SVG Version: 6.00 Build 0)  -->
<svg version="1.1" id="Слой_1" xmlns="http://www.w3.org/2000/svg" xmlns:xlink="http://www.w3.org/1999/xlink" x="0px" y="0px"
	 viewBox="0 0 512 512" style="enable-background:new 0 0 512 512;" xml:space="preserve">
<style type="text/css">
	.st0{opacity:0.1;}
	.st1{fill:#ECECEC;}
	.st2{fill:#E7E7E7;}
	.st3{fill:#F0F0F0;}
	.st4{fill:#F5F5F5;}
	.st5{fill:#E1E1E1;}
	.st6{fill:#FFFFFF;}
	.st7{fill:#FAFAFA;}
	.st8{opacity:0.5;fill:#E7E7E7;}
	.st9{fill:#007CFF;}
	.st10{fill:#EA944B;}
	.st11{opacity:0.4;}
	.st12{opacity:0.9;fill:#FFFFFF;}
	.st13{fill:url(#SVGID_1_);}
	.st14{fill:#FFC3BD;}
	.st15{fill:#1A2E35;}
	.st16{opacity:0.2;}
	.st17{opacity:0.5;fill:#FFFFFF;}
	.st18{fill:#FF847F;}
	.st19{opacity:0.8;fill:#FFFFFF;}
	.st20{opacity:0.4;fill:#007CFF;}
</style>
<g class="st0">
	<g>
		<rect x="3.35" y="416.34" class="st1" width="503.45" height="0.25"/>
		<rect x="423.01" y="432.55" class="st1" width="33.35" height="0.25"/>
		<rect x="265.48" y="429.39" class="st1" width="12.98" height="0.25"/>
		<rect x="328.1" y="430.45" class="st1" width="27.33" height="0.25"/>
		<rect x="365.5" y="423.2" class="st1" width="56.5" height="0.25"/>
		<rect x="56.17" y="434.84" class="st1" width="26.71" height="0.25"/>
		<rect x="91.85" y="434.84" class="st1" width="23.16" height="0.25"/>
		<rect x="135.26" y="429.26" class="st1" width="61.23" height="0.25"/>
		<path class="st1" d="M242,371.43H47.57c-3.17,0-5.75-2.58-5.75-5.75V92.38c0-3.17,2.58-5.75,5.75-5.75H242
			c3.17,0,5.75,2.58,5.75,5.75v273.3C247.75,368.85,245.17,371.43,242,371.43z M47.57,86.89c-3.03,0-5.5,2.47-5.5,5.5v273.3
			c0,3.03,2.47,5.5,5.5,5.5H242c3.03,0,5.49-2.47,5.49-5.5V92.38c0-3.03-2.47-5.5-5.49-5.5H47.57z"/>
		<path class="st1" d="M459.79,371.43H265.36c-3.17,0-5.75-2.58-5.75-5.75V92.38c0-3.17,2.58-5.75,5.75-5.75h194.43
			c3.17,0,5.75,2.58,5.75,5.75v273.3C465.54,368.85,462.96,371.43,459.79,371.43z M265.36,86.89c-3.03,0-5.49,2.47-5.49,5.5v273.3
			c0,3.03,2.47,5.5,5.49,5.5h194.43c3.03,0,5.5-2.47,5.5-5.5V92.38c0-3.03-2.47-5.5-5.5-5.5H265.36z"/>
	</g>
	<g>
		<path class="st2" d="M270.08,329.74c-2.02-5.79-17.92,2.08-24.37,11.68c-4.3,6.39-6.92,13.21-8.15,22.37
			c0.15-10.45,0.31-21.69,0.48-32.29c1.31-2.64,4.28-8.74,6.43-13.56c7.15-16.11,24.16-22.11,30.03-32.28
			c7.7-13.33,7.65-33.32,1.1-40.53c-5.69-6.27-24.55,36.12-26.68,40.86c-7.31,16.29-9.43,28.38-10.8,40.09
			c0.16-9.96,0.3-19.1,0.43-26.15c0.4-23,0.9-30.4,1.13-32.68c0.79-1.11,1.72-2.41,2.26-3.1c4.56-5.88,14.69-12.87,19.75-21.41
			c7.39-12.47,6.2-27.4,1.01-32.95c-5.42-5.81-15,7.92-20.09,21.53c-5.09,13.61-2.91,26.63-4.34,37.94
			c-0.3,2.22-0.61,10.64-0.89,22.31c-1.54-12.57-4.62-20.98-10.31-28.83c-7.01-9.65-13.05-21.4-18.83-19.88
			c-5.77,1.52-2.67,17.07,1.9,27.98c4.07,9.72,24.13,19.41,27.09,27.23c-0.35,15.83-0.66,35.89-0.88,54.56
			c-1.58-9.64-0.49-10.45-6.98-25.22c-3.85-8.78-19.65-19.6-21.53-13.57c-1.85,5.92,0.98,17.43,6.94,25.42
			c4.81,6.44,15.49,6.43,17.96,10.43c0.58,0.93,2.48,4.51,3.57,6.56c-0.26,22.8-0.37,42.92-0.25,49.78l1.04,0.07
			c-0.05-1.77,0.08-13.37,0.28-28.71c2.59-8.17,20.04-12.93,25.43-21.42C268.45,347.05,272.5,336.68,270.08,329.74z"/>
		<g>
			<path class="st3" d="M253.68,416.34h-33.49c-1.83,0-3.41-1.29-3.77-3.08l-2.38-11.72h45.79l-2.38,11.72
				C257.08,415.05,255.51,416.34,253.68,416.34z"/>
			<path class="st3" d="M260.78,406.08h-47.7c-1.14,0-2.1-0.86-2.23-1.99l-0.98-8.67c-0.15-1.33,0.89-2.5,2.23-2.5h49.65
				c1.34,0,2.38,1.17,2.23,2.5l-0.98,8.67C262.89,405.22,261.93,406.08,260.78,406.08z"/>
		</g>
	</g>
	<g>
		<g>
			
				<rect x="406.88" y="275.3" transform="matrix(-1 -1.224647e-16 1.224647e-16 -1 845.8282 687.4405)" class="st3" width="32.07" height="136.85"/>
			
				<rect x="270.64" y="412.14" transform="matrix(-1 -1.224647e-16 1.224647e-16 -1 707.4266 828.4817)" class="st3" width="166.15" height="4.2"/>
			<rect x="268.48" y="275.3" class="st4" width="138.4" height="136.85"/>
			<rect x="281.09" y="329.23" class="st3" width="113.18" height="28.98"/>
			<rect x="281.09" y="366.53" class="st3" width="113.18" height="28.98"/>
			<path class="st4" d="M324.33,334.23h26.69c1.37,0,2.49-1.12,2.49-2.49v-1.28c0-1.37-1.12-2.49-2.49-2.49h-26.69
				c-1.37,0-2.49,1.12-2.49,2.49v1.28C321.84,333.11,322.96,334.23,324.33,334.23z"/>
			<rect x="281.09" y="291.94" class="st3" width="113.18" height="28.98"/>
			<path class="st4" d="M324.97,296.94h25.41c1.72,0,3.13-1.41,3.13-3.13l0,0c0-1.72-1.41-3.13-3.13-3.13h-25.41
				c-1.72,0-3.13,1.41-3.13,3.13l0,0C321.84,295.53,323.25,296.94,324.97,296.94z"/>
			<path class="st4" d="M324.97,371.53h25.41c1.72,0,3.13-1.41,3.13-3.13l0,0c0-1.72-1.41-3.13-3.13-3.13h-25.41
				c-1.72,0-3.13,1.41-3.13,3.13l0,0C321.84,370.12,323.25,371.53,324.97,371.53z"/>
		</g>
		
			<rect x="265.63" y="271.39" transform="matrix(-1 -1.224647e-16 1.224647e-16 -1 672.5103 546.6909)" class="st3" width="141.25" height="3.9"/>
		<rect x="406.88" y="271.39" class="st2" width="35.12" height="3.9"/>
	</g>
	<g>
		<g>
			
				<rect x="151.79" y="211.41" transform="matrix(-1 -1.224647e-16 1.224647e-16 -1 335.2616 627.7481)" class="st5" width="31.68" height="204.93"/>
			<polygon class="st2" points="71.03,416.34 177.13,416.34 188.27,164.1 82.17,164.1 			"/>
			<polygon class="st3" points="55.55,416.34 172.91,416.34 184.05,164.1 66.7,164.1 			"/>
			<polygon class="st6" points="161.42,403.97 170.81,176.46 78.18,176.46 68.8,403.97 			"/>
			<polygon class="st7" points="121.62,403.97 153.11,176.46 143.23,176.46 111.75,403.97 			"/>
			<polygon class="st7" points="107.56,403.97 139.04,176.46 122.2,176.46 90.72,403.97 			"/>
		</g>
	</g>
	<g>
		<g>
			<g>
				
					<rect x="298.84" y="112.68" transform="matrix(-1 -1.224647e-16 1.224647e-16 -1 726.0922 345.4839)" class="st2" width="128.41" height="120.12"/>
				
					<rect x="294.86" y="112.68" transform="matrix(-1 -1.224647e-16 1.224647e-16 -1 720.2447 345.4839)" class="st4" width="130.53" height="120.12"/>
				
					<rect x="298.84" y="232.8" transform="matrix(-1 -1.224647e-16 1.224647e-16 -1 726.0922 470.5186)" class="st2" width="128.41" height="4.92"/>
				
					<rect x="291.28" y="232.8" transform="matrix(-1 -1.224647e-16 1.224647e-16 -1 704.371 470.5186)" class="st4" width="121.81" height="4.92"/>
				
					<rect x="307.51" y="113.05" transform="matrix(-1.836970e-16 1 -1 -1.836970e-16 532.8643 -187.3805)" class="st7" width="105.23" height="119.38"/>
				
					<rect x="248.22" y="172.34" transform="matrix(-1.836970e-16 1 -1 -1.836970e-16 473.5745 -128.0906)" class="st2" width="105.23" height="0.8"/>
				<polygon class="st6" points="400.01,225.36 379.37,120.13 352.32,120.13 372.96,225.36 				"/>
				<polygon class="st6" points="368.58,225.36 347.94,120.13 335.72,120.13 356.36,225.36 				"/>
			</g>
		</g>
		<path class="st1" d="M415.82,219.75V108.44c0-0.28-0.23-0.51-0.51-0.51h-0.26c-0.28,0-0.51,0.23-0.51,0.51v111.31
			c0,0.28,0.23,0.51,0.51,0.51h0.26C415.59,220.26,415.82,220.03,415.82,219.75z"/>
		
			<rect x="291.93" y="107.94" transform="matrix(-1 -1.224647e-16 1.224647e-16 -1 721.3464 234.2556)" class="st8" width="137.49" height="18.38"/>
		
			<rect x="291.93" y="107.94" transform="matrix(-1 -1.224647e-16 1.224647e-16 -1 721.3464 218.1552)" class="st5" width="137.49" height="2.28"/>
		<path class="st1" d="M292.08,108.94h137.19c0.44,0,0.8-0.36,0.8-0.8v-0.41c0-0.44-0.36-0.8-0.8-0.8H292.08
			c-0.44,0-0.8,0.36-0.8,0.8v0.41C291.28,108.58,291.64,108.94,292.08,108.94z"/>
		<path class="st6" d="M291.76,126.8h137.83c0.26,0,0.48-0.22,0.48-0.48l0,0c0-0.26-0.22-0.48-0.48-0.48H291.76
			c-0.26,0-0.48,0.22-0.48,0.48l0,0C291.28,126.58,291.49,126.8,291.76,126.8z"/>
	</g>
</g>
<g>
	
		<rect x="84.67" y="308.29" transform="matrix(0.9932 -0.1162 0.1162 0.9932 -36.3683 12.0641)" class="st9" width="1.28" height="19.47"/>
	
		<rect x="87.21" y="334.85" transform="matrix(0.9932 -0.1162 0.1162 0.9932 -38.8781 12.5073)" class="st9" width="1.28" height="9.82"/>
	<path class="st10" d="M172.43,268.85l-1.51-4.23c-2.14-5.99-8.13-9.71-14.45-8.97l-60.04,7.02c-7.49,0.88-12.85,7.66-11.97,15.15
		l17.09,146.1c0.6,5.14,5.25,8.81,10.39,8.21l214.8-25.12c5.14-0.6,8.81-5.25,8.21-10.39l-14.77-126.3
		c-0.6-5.14-5.25-8.81-10.39-8.21L185.06,276.7C179.53,277.34,174.29,274.09,172.43,268.85z"/>
	<g>
		<g>
			
				<rect x="109.53" y="175.43" transform="matrix(0.9807 -0.1955 0.1955 0.9807 -45.0297 36.2082)" class="st9" width="102.84" height="141.68"/>
			
				<rect x="109.53" y="175.43" transform="matrix(0.9807 -0.1955 0.1955 0.9807 -45.0297 36.2082)" class="st6" width="102.84" height="141.68"/>
		</g>
		<g class="st11">
			<path class="st9" d="M184.06,200.18l-62.13,12.38c-3.01,0.6-5.94-1.36-6.54-4.37l0,0c-0.6-3.01,1.36-5.94,4.37-6.54l62.13-12.38
				c3.01-0.6,5.94,1.36,6.54,4.37l0,0C189.03,196.65,187.08,199.58,184.06,200.18z"/>
			<path class="st9" d="M188.64,223.16l-62.13,12.38c-3.01,0.6-5.94-1.36-6.54-4.37l0,0c-0.6-3.01,1.36-5.94,4.37-6.54l62.13-12.38
				c3.01-0.6,5.94,1.36,6.54,4.37v0C193.61,219.63,191.65,222.56,188.64,223.16z"/>
			<path class="st9" d="M193.22,246.13l-62.13,12.38c-3.01,0.6-5.94-1.36-6.54-4.37l0,0c-0.6-3.01,1.36-5.94,4.37-6.54l62.13-12.38
				c3.01-0.6,5.94,1.36,6.54,4.37l0,0C198.19,242.6,196.23,245.53,193.22,246.13z"/>
			<path class="st9" d="M197.8,269.11l-62.13,12.38c-3.01,0.6-5.94-1.36-6.54-4.37v0c-0.6-3.01,1.36-5.94,4.37-6.54l62.13-12.38
				c3.01-0.6,5.94,1.36,6.54,4.37l0,0C202.77,265.58,200.81,268.51,197.8,269.11z"/>
			<path class="st9" d="M185.4,295.47l-45.15,9c-3.01,0.6-5.94-1.36-6.54-4.37l0,0c-0.6-3.01,1.36-5.94,4.37-6.54l45.15-9
				c3.01-0.6,5.94,1.36,6.54,4.37l0,0C190.37,291.94,188.41,294.87,185.4,295.47z"/>
		</g>
	</g>
	<g>
		<g>
			
				<rect x="191.5" y="135.48" transform="matrix(0.9908 -0.1356 0.1356 0.9908 -25.7327 34.8445)" class="st9" width="102.84" height="141.68"/>
			
				<rect x="191.5" y="135.48" transform="matrix(0.9908 -0.1356 0.1356 0.9908 -25.7327 34.8445)" class="st6" width="102.84" height="141.68"/>
		</g>
		<g class="st11">
			<path class="st9" d="M268.78,161.72l-62.76,8.59c-3.04,0.42-5.85-1.71-6.27-4.76l0,0c-0.42-3.04,1.71-5.85,4.76-6.27l62.76-8.59
				c3.04-0.42,5.85,1.71,6.27,4.76l0,0C273.95,158.5,271.82,161.3,268.78,161.72z"/>
			<path class="st9" d="M271.96,184.93l-62.76,8.59c-3.04,0.42-5.85-1.71-6.27-4.76l0,0c-0.42-3.04,1.71-5.85,4.76-6.27l62.76-8.59
				c3.04-0.42,5.85,1.71,6.27,4.76l0,0C277.13,181.71,275,184.51,271.96,184.93z"/>
			<path class="st9" d="M229.66,214.36l-17.29,2.37c-3.04,0.42-5.85-1.71-6.27-4.76l0,0c-0.42-3.04,1.71-5.85,4.76-6.27l17.29-2.37
				c3.04-0.42,5.85,1.71,6.27,4.76v0C234.84,211.14,232.71,213.95,229.66,214.36z"/>
			<path class="st9" d="M263.2,209.78l-17.29,2.37c-3.04,0.42-5.85-1.71-6.27-4.76l0,0c-0.42-3.04,1.71-5.85,4.76-6.27l17.29-2.37
				c3.04-0.42,5.85,1.71,6.27,4.76l0,0C268.37,206.55,266.24,209.36,263.2,209.78z"/>
			<path class="st9" d="M278.31,231.35l-62.76,8.59c-3.04,0.42-5.85-1.71-6.27-4.76l0,0c-0.42-3.04,1.71-5.85,4.76-6.27l62.76-8.59
				c3.04-0.42,5.85,1.71,6.27,4.76l0,0C283.48,228.13,281.35,230.94,278.31,231.35z"/>
			<path class="st9" d="M264.33,256.91l-45.61,6.24c-3.04,0.42-5.85-1.71-6.27-4.76l0,0c-0.42-3.04,1.71-5.85,4.76-6.27l45.61-6.24
				c3.04-0.42,5.85,1.71,6.27,4.76v0C269.51,253.69,267.38,256.49,264.33,256.91z"/>
		</g>
	</g>
	<g>
		<g>
			
				<rect x="148.6" y="164.65" transform="matrix(0.9962 -0.0868 0.0868 0.9962 -19.6911 18.2558)" class="st9" width="102.84" height="141.68"/>
			
				<rect x="148.6" y="164.65" transform="matrix(0.9962 -0.0868 0.0868 0.9962 -19.6911 18.2558)" class="st12" width="102.84" height="141.68"/>
		</g>
		<g class="st11">
			<path class="st9" d="M228.04,192.22l-63.11,5.5c-3.06,0.27-5.76-2-6.02-5.06l0,0c-0.27-3.06,2-5.76,5.06-6.02l63.11-5.5
				c3.06-0.27,5.76,2,6.02,5.06l0,0C233.37,189.26,231.1,191.95,228.04,192.22z"/>
			<path class="st9" d="M230.08,215.56l-63.11,5.5c-3.06,0.27-5.76-2-6.02-5.06l0,0c-0.27-3.06,2-5.76,5.06-6.02l63.11-5.5
				c3.06-0.27,5.76,2,6.02,5.06l0,0C235.4,212.59,233.14,215.29,230.08,215.56z"/>
			<path class="st9" d="M232.11,238.9L169,244.4c-3.06,0.27-5.76-2-6.02-5.06l0,0c-0.27-3.06,2-5.76,5.06-6.02l63.11-5.5
				c3.06-0.27,5.76,2,6.02,5.06l0,0C237.44,235.93,235.17,238.63,232.11,238.9z"/>
			<path class="st9" d="M234.14,262.24l-63.11,5.5c-3.06,0.27-5.76-2-6.02-5.06l0,0c-0.27-3.06,2-5.76,5.06-6.02l63.11-5.5
				c3.06-0.27,5.76,2,6.02,5.06l0,0C239.47,259.27,237.21,261.97,234.14,262.24z"/>
			<path class="st9" d="M218.93,287.08l-45.86,4c-3.06,0.27-5.76-2-6.02-5.06l0,0c-0.27-3.06,2-5.76,5.06-6.02l45.86-4
				c3.06-0.27,5.76,2,6.02,5.06l0,0C224.26,284.11,221.99,286.81,218.93,287.08z"/>
		</g>
	</g>
	<g>
		<g>
			
				<rect x="213.61" y="145.18" transform="matrix(0.9988 -0.0482 0.0482 0.9988 -10.1081 13.0308)" class="st9" width="102.84" height="141.68"/>
			
				<rect x="213.61" y="145.18" transform="matrix(0.9988 -0.0482 0.0482 0.9988 -10.1081 13.0308)" class="st12" width="102.84" height="141.68"/>
		</g>
		<g class="st11">
			<path class="st9" d="M294.7,173.86l-63.27,3.05c-3.07,0.15-5.68-2.22-5.82-5.29l0,0c-0.15-3.07,2.22-5.68,5.29-5.82l63.27-3.05
				c3.07-0.15,5.68,2.22,5.82,5.29l0,0C300.14,171.11,297.77,173.71,294.7,173.86z"/>
			<path class="st9" d="M295.83,197.26l-63.27,3.05c-3.07,0.15-5.68-2.22-5.82-5.29l0,0c-0.15-3.07,2.22-5.68,5.29-5.82l63.27-3.05
				c3.07-0.15,5.68,2.22,5.82,5.29l0,0C301.27,194.51,298.9,197.11,295.83,197.26z"/>
			<path class="st9" d="M251.12,222.87l-17.43,0.84c-3.07,0.15-5.68-2.22-5.82-5.29l0,0c-0.15-3.07,2.22-5.68,5.29-5.82l17.43-0.84
				c3.07-0.15,5.68,2.22,5.82,5.29l0,0C256.56,220.12,254.19,222.73,251.12,222.87z"/>
			<path class="st9" d="M284.93,221.24l-17.43,0.84c-3.07,0.15-5.68-2.22-5.82-5.29l0,0c-0.15-3.07,2.22-5.68,5.29-5.82l17.43-0.84
				c3.07-0.15,5.68,2.22,5.82,5.29l0,0C290.37,218.49,288,221.09,284.93,221.24z"/>
			<path class="st9" d="M298.09,244.06l-63.27,3.05c-3.07,0.15-5.68-2.22-5.82-5.29l0,0c-0.15-3.07,2.22-5.68,5.29-5.82l63.27-3.05
				c3.07-0.15,5.68,2.22,5.82,5.29l0,0C303.53,241.31,301.16,243.91,298.09,244.06z"/>
			<path class="st9" d="M281.93,268.3l-45.98,2.22c-3.07,0.15-5.68-2.22-5.82-5.29l0,0c-0.15-3.07,2.22-5.68,5.29-5.82l45.98-2.22
				c3.07-0.15,5.68,2.22,5.82,5.29l0,0C287.36,265.54,285,268.15,281.93,268.3z"/>
		</g>
	</g>
	<g>
		<path class="st9" d="M191.6,271.55l-1.1-4.13c-1.56-5.86-7.14-9.49-13.46-8.75L117,265.69c-7.49,0.88-13.42,7.53-13.24,14.86
			l3.41,143.01c0.12,5.03,4.38,8.62,9.52,8.01l214.8-25.12c5.14-0.6,9.2-5.16,9.08-10.19l-2.94-123.63
			c-0.12-5.03-4.38-8.62-9.52-8.01l-124.73,14.59C197.84,279.85,192.96,276.68,191.6,271.55z"/>
		<linearGradient id="SVGID_1_" gradientUnits="userSpaceOnUse" x1="222.1592" y1="258.5721" x2="222.1592" y2="431.6425">
			<stop  offset="0" style="stop-color:#EFC578"/>
			<stop  offset="1" style="stop-color:#FB9E4A"/>
		</linearGradient>
		<path class="st13" d="M191.6,271.55l-1.1-4.13c-1.56-5.86-7.14-9.49-13.46-8.75L117,265.69c-7.49,0.88-13.42,7.53-13.24,14.86
			l3.41,143.01c0.12,5.03,4.38,8.62,9.52,8.01l214.8-25.12c5.14-0.6,9.2-5.16,9.08-10.19l-2.94-123.63
			c-0.12-5.03-4.38-8.62-9.52-8.01l-124.73,14.59C197.84,279.85,192.96,276.68,191.6,271.55z"/>
	</g>
</g>
<g>
	<path class="st14" d="M363.57,225.81c-0.59,2.95-1.22,5.86-1.92,8.76c-0.69,2.9-1.4,5.8-2.17,8.68l-1.17,4.32l-0.15,0.55
		c-0.07,0.24-0.15,0.48-0.24,0.72c-0.19,0.49-0.42,1.01-0.78,1.53c-0.35,0.52-0.84,1.07-1.48,1.51c-0.64,0.44-1.44,0.72-2.17,0.78
		c-1.48,0.12-2.54-0.33-3.41-0.75c-0.86-0.46-1.57-0.98-2.21-1.53c-1.28-1.12-2.29-2.29-3.23-3.65l2.21-1.99
		c1.08,0.82,2.28,1.66,3.41,2.27c0.57,0.31,1.14,0.57,1.64,0.71c0.49,0.16,0.91,0.14,0.92,0.06c0.01-0.03-0.08-0.03-0.12-0.03
		c-0.05,0-0.04-0.02,0-0.13c0.03-0.11,0.09-0.28,0.14-0.49l0.18-0.87l0.93-4.34l1.87-8.68c0.61-2.89,1.25-5.79,1.88-8.66
		L363.57,225.81z"/>
	<path class="st15" d="M360.92,216.73c-6.78,5.19-6.51,14.97-6.51,14.97l12.13,2.9c0,0,3.72-9.84,2.21-13.44
		C367.17,217.41,364.73,213.81,360.92,216.73z"/>
	<path class="st14" d="M347.46,244.92l-4.46-4.46l-2.41,6.98c0,0,3.76,2.03,7.37,0.12L347.46,244.92z"/>
	<polygon class="st14" points="336.83,239.77 336.01,245.29 340.6,247.44 343,240.46 	"/>
	<polygon class="st14" points="400.21,401.28 393.39,401.95 386.29,385.71 393.12,385.05 	"/>
	<polygon class="st14" points="444.15,377.28 439.03,382.09 427.97,369.93 433.09,365.13 	"/>
	<path class="st15" d="M436.66,379.78l3.85-6.94c0.14-0.25,0.43-0.36,0.7-0.26l5.93,2.26c0.61,0.23,0.88,1.02,0.55,1.6
		c-1.38,2.4-2.17,3.48-3.87,6.53c-1.04,1.88-3.07,6.18-4.51,8.77c-1.41,2.53-4.08,1.31-3.71,0.1c1.64-5.42,1.34-8.43,0.87-10.82
		C436.39,380.59,436.46,380.15,436.66,379.78z"/>
	<path class="st15" d="M392.49,399.84h8.38c0.3,0,0.58,0.21,0.66,0.51l1.82,6.63c0.19,0.69-0.32,1.32-1.02,1.33
		c-2.95,0.03-4.35,0.01-8.04,0.01c-2.27,0-8.13,0-11.26,0c-3.06,0-3.7-3.09-2.43-3.37c5.68-1.26,8.95-2.99,10.7-4.64
		C391.62,400,392.04,399.84,392.49,399.84z"/>
	<polygon class="st16" points="386.3,385.72 389.95,394.09 397.07,394.09 393.12,385.05 	"/>
	<polygon class="st16" points="433.1,365.13 427.97,369.94 433.67,376.2 438.8,371.39 	"/>
	<path class="st15" d="M362.96,215.72c0,0-3.07,1.35,7.22,42.05c11.34-0.98,23.05-1.99,28.57-2.47c-1.49-11.59-2.12-18.76,1.37-43.1
		c0,0-6.1-0.78-12.27-0.55c-4.83,0.18-8.78,0.37-12.97,1.12C369.35,213.76,362.96,215.72,362.96,215.72z"/>
	<path class="st6" d="M387.86,211.45c0,0,1.62,0.03,3.54,0.03c1.15,1.78-2.59,9.54-8.77,14.62c-1.49-4.63-4.97-7.2-4.97-7.2
		L387.86,211.45z"/>
	<path class="st6" d="M374.89,212.67c0,0-0.72,0.1-2.45,0.5c-1.15,1.78-3.1,9.35,0.29,13.21c1.32-4.77,4.92-7.48,4.92-7.48
		L374.89,212.67z"/>
	<path class="st14" d="M385.31,197.15c-0.46,4.25-0.61,11.96,2.55,14.5c0,0-3.38,3.45-10.21,7.25c-4.97-3.43-2.77-6.13-2.77-6.13
		c4.56-1.51,4.14-4.96,3.05-8.13L385.31,197.15z"/>
	<g>
		<path class="st9" d="M377.54,218.92c0,0,4.19-4.56,6.35-3.68c2.16,0.88,0.49,2.44,0.3,3.91c-0.19,1.47,0.84,5.38-2.06,4.37
			C379.23,222.49,377.54,218.92,377.54,218.92z"/>
		<path class="st9" d="M377.37,218.83c0,0-1.98-3.5-4.11-3.03c-2.14,0.47-0.87,1.7-0.68,3.01c0.24,1.69-1.54,4.93,1.04,4.01
			C376.12,221.93,377.37,218.83,377.37,218.83z"/>
		<g class="st16">
			<path d="M376.28,218.07c0.02,0.98,0.16,1.65,0.4,2.06c0.45-0.72,0.68-1.29,0.68-1.29s-0.38-0.69-1.01-1.41
				C376.29,217.58,376.27,217.79,376.28,218.07z"/>
			<path d="M379.06,217.45c-0.9,0.79-1.52,1.47-1.52,1.47s0.28,0.6,0.82,1.38c0.35-0.3,0.65-0.85,0.77-1.81
				C379.2,217.99,379.17,217.67,379.06,217.45z"/>
		</g>
		<path class="st9" d="M377.48,220.35c-0.59,0-0.96-0.65-1-2.18c-0.04-1.54,1.14-0.68,1.14-0.68s1.57-0.82,1.3,1.05
			C378.72,219.99,378.09,220.35,377.48,220.35z"/>
	</g>
	<path class="st16" d="M382.3,200.21l-4.37,4.43c0.26,0.75,0.48,1.52,0.6,2.27c1.76-0.41,4.3-2.24,4.33-4.11
		C382.87,201.85,382.49,200.63,382.3,200.21z"/>
	<path class="st15" d="M378.56,182.81c0,0-4.75,6.61-5.54,9.57c-3.24,1.89-3.9-7.42-2.18-13.16
		C376.17,182.54,378.56,182.81,378.56,182.81z"/>
	<path class="st14" d="M389.04,190.52c-1.77,6.78-2.38,9.69-6.53,12.53c-6.26,4.27-14.2,0.62-14.49-6.56
		c-0.26-6.46,2.68-16.46,9.93-17.87C385.1,177.23,390.81,183.74,389.04,190.52z"/>
	<path class="st15" d="M392.73,187.81c0,0-3.41,5.52-3.87,7.92c-2.47,1.68-3.52-5.68-2.47-10.34
		C387.53,181.28,392.73,187.81,392.73,187.81z"/>
	<path class="st15" d="M391.37,183.97c-0.98,0.75-2.03-2.01-1.04-4.12c-1.89,0.12-4.15-1-3.67-2.82c-3.71,1.24-5.09-2.53-4.66-5.15
		c0.52-3.16,3.29-3.86,4.91-3.02c0.03-1.42,3.59-4.39,4.96-2.07c2.54-0.89,6.62-0.62,6.54,2.5c1.68,0.05,6.62,1.95,4.8,6.4
		c2.18,0.13,3.37,2.91,2.15,5c2.8,1.64,1.76,4.49,0.7,5.49c1.01,2.1-2.06,5.22-3.68,4.84c-1.24,1.9-3.14,3.33-4.39,1.71
		c-2.41,1.76-5.12-0.47-4.51-2.19C390.75,190.09,387.98,185.57,391.37,183.97z"/>
	<path class="st9" d="M395.41,177.3c1.78,2.97,1.63,6.33-0.33,7.51c-1.96,1.18-5-0.28-6.78-3.25c-1.78-2.97-1.63-6.33,0.33-7.51
		C390.6,172.87,393.63,174.32,395.41,177.3z"/>
	<path class="st15" d="M378.88,181.98c-0.11,0.85-2.45,0.63-3.13-0.87c-0.97,1.02-3.25,1.54-4.03,0.44
		c-1.32,2.48-3.96,1.83-4.65,0.64c-0.69-1.19-1.14-3.38,0.23-3.82c-0.8-0.69-0.56-3.91,1.53-3.5c0.88-1.71,3.27-3.66,5.02-2.15
		c0.95-0.83,4.75-2.45,6.31,0.59c1.27-1.05,3.52-0.34,4.06,1.27c2.48-0.65,3.55,1.23,3.54,2.24c1.76,0.48,1.88,3.52,0.77,4.17
		c0.42,1.53,0.2,3.18-1.42,3.04c-0.31,2.06-3.08,2.38-3.73,1.26C381.61,186.47,377.95,184.46,378.88,181.98z"/>
	<path class="st15" d="M374.7,176.14c2.01-2.79,9.34-3.94,15.7,0.23c5.72,3.76,5.35,12.49,0.8,12.02c-4.55-0.46-9.05-5.8-9.05-5.8
		L374.7,176.14z"/>
	<path class="st14" d="M389.6,196.64c-0.67,1.29-1.87,2.15-3.01,2.5c-1.72,0.52-2.61-1.01-2.17-2.65c0.4-1.48,1.78-3.53,3.52-3.33
		C389.66,193.35,390.36,195.16,389.6,196.64z"/>
	<path class="st9" d="M370.18,257.77c0,0-9.67,42.76-3.21,72.91c4.32,20.19,19.91,60.98,19.91,60.98l12.19-0.31
		c0,0-11.8-42.8-14.24-59.64c-4.17-28.8,6.28-75.75,6.28-75.75L370.18,257.77z"/>
	<path class="st16" d="M381.33,266.4l6.09,9.61c-1.55,9.97-3.09,22.43-3.49,34.42C375.37,295.1,379.42,274.53,381.33,266.4z"/>
	<polygon class="st15" points="385.16,392.29 400.21,391.91 399.34,387.28 383.98,388.01 	"/>
	<path class="st9" d="M376.43,257.31c0,0,5.67,45.35,17.96,70.11c9.93,20,36.42,48.47,36.42,48.47l6.77-6.98
		c0,0-17.9-30.94-25.28-44.22c-18.09-32.57-3.31-57.43-13.56-69.39L376.43,257.31z"/>
	<polygon class="st15" points="430.13,376.82 438.87,368.3 435.97,364.35 426.7,373.61 	"/>
	<g>
		<path class="st9" d="M399.04,253.58l1.51,2.45c0.12,0.19-0.1,0.41-0.43,0.44l-29.96,2.59c-0.26,0.02-0.48-0.09-0.51-0.25
			l-0.48-2.54c-0.03-0.18,0.18-0.34,0.46-0.37l28.93-2.5C398.76,253.39,398.96,253.46,399.04,253.58z"/>
		<path class="st17" d="M399.04,253.58l1.51,2.45c0.12,0.19-0.1,0.41-0.43,0.44l-29.96,2.59c-0.26,0.02-0.48-0.09-0.51-0.25
			l-0.48-2.54c-0.03-0.18,0.18-0.34,0.46-0.37l28.93-2.5C398.76,253.39,398.96,253.46,399.04,253.58z"/>
	</g>
	<path class="st9" d="M395.43,257.16l0.77-0.07c0.15-0.01,0.26-0.1,0.25-0.2l-0.65-3.29c-0.02-0.1-0.16-0.16-0.32-0.15l-0.77,0.07
		c-0.15,0.01-0.27,0.1-0.25,0.2l0.65,3.29C395.13,257.1,395.28,257.17,395.43,257.16z"/>
	<path class="st9" d="M372.35,259.15l0.77-0.07c0.15-0.01,0.27-0.1,0.25-0.2l-0.65-3.29c-0.02-0.1-0.16-0.16-0.32-0.15l-0.77,0.07
		c-0.15,0.01-0.26,0.1-0.25,0.2l0.65,3.29C372.06,259.1,372.2,259.16,372.35,259.15z"/>
	<path class="st9" d="M383.89,258.15l0.77-0.07c0.15-0.01,0.27-0.1,0.25-0.2l-0.65-3.29c-0.02-0.1-0.16-0.16-0.32-0.15l-0.77,0.07
		c-0.15,0.01-0.27,0.1-0.25,0.2l0.65,3.29C383.6,258.1,383.74,258.17,383.89,258.15z"/>
	<path class="st15" d="M377.56,190.29c-0.11,0.56-0.5,0.95-0.86,0.88c-0.37-0.07-0.57-0.58-0.46-1.14c0.11-0.56,0.5-0.95,0.86-0.88
		C377.47,189.22,377.67,189.73,377.56,190.29z"/>
	
		<ellipse transform="matrix(0.1929 -0.9812 0.9812 0.1929 113.7323 516.097)" class="st15" cx="370.59" cy="188.91" rx="1.03" ry="0.67"/>
	<path class="st15" d="M370.94,187.96l-1.27-0.65C369.67,187.31,370.16,188.5,370.94,187.96z"/>
	<path class="st18" d="M373.42,190.44c0,0-1.42,2.22-2.69,3.18c0.6,0.83,1.92,0.77,1.92,0.77L373.42,190.44z"/>
	<path class="st15" d="M375.23,197.04c1.98,0,3.13-1.15,3.18-1.21c0.05-0.06,0.05-0.14,0-0.2c-0.05-0.05-0.14-0.05-0.2,0
		c-0.02,0.02-1.52,1.51-3.98,1.03c-0.08-0.02-0.15,0.03-0.16,0.11c-0.02,0.08,0.03,0.15,0.11,0.16
		C374.55,197.01,374.9,197.04,375.23,197.04z"/>
	<path class="st15" d="M381.36,188.12c0.05,0,0.1-0.01,0.14-0.04c0.13-0.08,0.17-0.25,0.09-0.38c-0.94-1.56-2.45-1.63-2.52-1.63
		c-0.16,0.01-0.28,0.11-0.29,0.27c-0.01,0.15,0.11,0.28,0.27,0.29c0.05,0,1.28,0.07,2.06,1.36
		C381.17,188.07,381.26,188.12,381.36,188.12z"/>
	<path class="st15" d="M369.49,185.88c0.05,0,0.09-0.01,0.14-0.04c1.33-0.74,2.45-0.17,2.46-0.16c0.14,0.07,0.3,0.02,0.38-0.12
		c0.07-0.14,0.02-0.3-0.12-0.38c-0.06-0.03-1.41-0.72-2.99,0.17c-0.13,0.08-0.18,0.24-0.11,0.38
		C369.3,185.83,369.4,185.88,369.49,185.88z"/>
	<path class="st14" d="M401.34,218.7c0.54,0.53,0.91,0.93,1.34,1.4c0.41,0.46,0.79,0.93,1.17,1.4c0.76,0.94,1.48,1.91,2.16,2.91
		c1.34,2,2.53,4.1,3.56,6.29c1.04,2.18,1.84,4.47,2.48,6.81c0.31,1.17,0.58,2.35,0.78,3.55c0.28,1.26,0.38,3.3-0.54,5.02
		c-0.45,0.86-1.1,1.58-1.78,2.12c-0.68,0.54-1.39,0.91-2.08,1.19c-1.38,0.56-2.68,0.79-3.95,0.94c-2.53,0.26-4.91,0.17-7.25-0.09
		c-4.68-0.53-9.15-1.52-13.59-2.89l0.73-2.88c2.16,0.36,4.39,0.69,6.59,0.92c2.2,0.25,4.4,0.44,6.57,0.48
		c2.16,0.03,4.32,0,6.28-0.34c0.97-0.17,1.89-0.43,2.59-0.77c0.71-0.35,1.08-0.75,1.17-1.04c0.06-0.15,0.1-0.32,0.1-0.58
		c0-0.13-0.01-0.27-0.03-0.43c-0.03-0.16-0.05-0.31-0.12-0.6c-0.22-1.02-0.52-2.03-0.83-3.03c-0.64-2-1.48-3.93-2.42-5.82
		c-0.94-1.89-2.03-3.7-3.25-5.43c-0.6-0.87-1.22-1.72-1.88-2.54c-0.33-0.41-0.66-0.81-1-1.2c-0.32-0.38-0.71-0.81-0.97-1.08
		L401.34,218.7z"/>
	<path class="st14" d="M386.16,244.91l-5.57-2.95l-0.25,7.37c0,0,3.94,0.25,6.25-1.56L386.16,244.91z"/>
	<g>
		<g>
			<g>
				<polygon class="st9" points="376.4,284.55 381,234.62 371.18,227.1 341.21,224.34 336.01,280.83 				"/>
				<polygon class="st19" points="376.4,284.55 381,234.62 371.18,227.1 341.21,224.34 336.01,280.83 				"/>
			</g>
			<polygon class="st9" points="381,234.62 371.18,227.1 373.76,236.1 			"/>
		</g>
		<g>
			<circle class="st9" cx="339.52" cy="277.31" r="12.24"/>
			
				<ellipse transform="matrix(0.7847 -0.6199 0.6199 0.7847 -98.8008 270.1755)" class="st6" cx="339.52" cy="277.31" rx="9.76" ry="9.76"/>
			<polygon class="st9" points="345.55,276.46 341.25,275.95 341.75,271.64 338.66,271.28 338.16,275.59 333.85,275.08 
				333.49,278.17 337.8,278.68 337.29,282.98 340.38,283.35 340.88,279.04 345.19,279.54 			"/>
		</g>
		<path class="st20" d="M373.67,244.97L373.67,244.97c-0.17,1.84-1.8,3.19-3.63,3.02l-21.86-2.01c-1.84-0.17-3.19-1.8-3.02-3.63l0,0
			c0.17-1.84,1.8-3.19,3.63-3.02l21.86,2.01C372.49,241.5,373.84,243.13,373.67,244.97z"/>
		<path class="st20" d="M366.22,253.99L366.22,253.99c-0.17,1.84-1.8,3.19-3.63,3.02l-15.28-1.41c-1.84-0.17-3.19-1.8-3.02-3.63l0,0
			c0.17-1.84,1.8-3.19,3.63-3.02l15.28,1.41C365.04,250.52,366.39,252.15,366.22,253.99z"/>
	</g>
	<polygon class="st14" points="377.2,242.39 378.03,247.9 380.34,249.33 380.59,241.95 	"/>
	<path class="st15" d="M400.13,212.2c3.5,0.62,8.41,10.67,8.41,10.67l-8.83,7.99c0,0-7.02-7.66-6.65-12.22
		C393.38,214.75,395.67,211.41,400.13,212.2z"/>
	<path class="st9" d="M435.31,383.51c0.09,0,0.18-0.02,0.27-0.05c0.84-0.28,1.39-1.83,1.64-2.73c0.02-0.05,0-0.11-0.05-0.15
		c-0.04-0.03-0.1-0.04-0.15-0.02c-0.26,0.13-2.49,1.33-2.57,2.21c-0.01,0.14,0.02,0.33,0.24,0.49
		C434.9,383.43,435.11,383.51,435.31,383.51z M436.86,380.98c-0.39,1.24-0.89,2.06-1.37,2.22c-0.21,0.07-0.41,0.02-0.63-0.14
		c-0.13-0.1-0.13-0.19-0.13-0.25C434.78,382.27,436.09,381.42,436.86,380.98z"/>
	<path class="st9" d="M434.97,381.33c0.79,0,1.77-0.25,2.2-0.51c0.04-0.03,0.07-0.07,0.07-0.12c0-0.05-0.03-0.09-0.07-0.12
		c-0.07-0.04-1.85-1.02-2.8-0.68c-0.25,0.09-0.42,0.25-0.52,0.49c-0.15,0.37,0.01,0.59,0.13,0.69
		C434.17,381.26,434.55,381.33,434.97,381.33z M436.79,380.7c-0.76,0.32-2.23,0.52-2.64,0.17c-0.07-0.06-0.14-0.15-0.05-0.37
		c0.07-0.17,0.18-0.28,0.36-0.34C435.1,379.93,436.28,380.45,436.79,380.7z"/>
	<path class="st9" d="M388.77,401.19c0.8,0,1.68-0.16,2.29-0.29c0.06-0.01,0.1-0.06,0.11-0.12c0.01-0.06-0.03-0.12-0.08-0.14
		c-0.34-0.16-3.38-1.57-4.15-1.05c-0.1,0.07-0.21,0.19-0.2,0.43c0.02,0.33,0.16,0.59,0.41,0.78
		C387.53,401.1,388.13,401.19,388.77,401.19z M390.58,400.72c-0.9,0.17-2.57,0.39-3.26-0.13c-0.19-0.14-0.29-0.33-0.3-0.58
		c-0.01-0.11,0.04-0.16,0.08-0.18C387.52,399.53,389.32,400.16,390.58,400.72z"/>
	<path class="st9" d="M391.03,400.91c0.03,0,0.06-0.01,0.09-0.03c0.04-0.03,0.06-0.09,0.05-0.14c-0.03-0.13-0.72-3.12-2.37-2.93
		c-0.41,0.05-0.53,0.25-0.55,0.42c-0.1,0.76,1.81,2.3,2.73,2.68C390.99,400.9,391.01,400.91,391.03,400.91z M388.94,398.07
		c1.05,0,1.67,1.74,1.87,2.44c-0.99-0.52-2.36-1.77-2.29-2.26c0-0.04,0.02-0.14,0.31-0.18
		C388.87,398.08,388.91,398.07,388.94,398.07z"/>
	<path class="st15" d="M377.26,189.21l-1.27-0.65C375.99,188.56,376.47,189.74,377.26,189.21z"/>
</g>
</svg>
