<?xml version="1.0" encoding="utf-8"?>
<!-- Generator: Adobe Illustrator 24.1.1, SVG Export Plug-In . SVG Version: 6.00 Build 0)  -->
<svg version="1.1" id="Layer_1" xmlns="http://www.w3.org/2000/svg" xmlns:xlink="http://www.w3.org/1999/xlink" x="0px" y="0px"
	 viewBox="0 0 30 30" style="enable-background:new 0 0 30 30;" xml:space="preserve">
<style type="text/css">
	.st0{fill:#FFFFFF;}
</style>
<path class="st0" d="M25.98,23.39c-0.08-0.05-0.71-0.49-1.34-1.82c-1.15-2.44-1.4-5.88-1.4-8.34c0-0.01,0-0.02,0-0.03
	c-0.01-3.25-1.96-6.04-4.74-7.3V3.98c0-1.74-1.42-3.16-3.16-3.16h-0.26c-1.74,0-3.16,1.42-3.16,3.16V5.9
	c-2.79,1.26-4.74,4.07-4.74,7.33c0,2.46-0.24,5.9-1.4,8.34c-0.63,1.33-1.26,1.77-1.34,1.82c-0.35,0.16-0.52,0.54-0.44,0.92
	c0.08,0.38,0.44,0.65,0.83,0.65h6.09c0.03,2.34,1.94,4.22,4.28,4.22c2.34,0,4.25-1.89,4.28-4.22h6.09c0.39,0,0.75-0.27,0.83-0.65
	C26.51,23.93,26.33,23.55,25.98,23.39z M13.59,3.98c0-0.82,0.67-1.5,1.49-1.5h0.26c0.82,0,1.49,0.67,1.49,1.5v1.38
	c-0.52-0.11-1.07-0.17-1.62-0.17c-0.56,0-1.1,0.06-1.62,0.17L13.59,3.98L13.59,3.98z M15.22,27.52c-1.42,0-2.58-1.14-2.62-2.56h5.24
	C17.8,26.38,16.64,27.52,15.22,27.52z M18.56,23.3c0,0-11.83,0-11.83,0c0.14-0.22,0.29-0.48,0.44-0.76c1.11-2.2,1.68-5.33,1.68-9.3
	c0-3.51,2.86-6.37,6.36-6.37c3.51,0,6.37,2.86,6.37,6.38c0,0.01,0,0.02,0,0.03c0,3.96,0.57,7.08,1.68,9.27
	c0.15,0.29,0.29,0.54,0.44,0.76H18.56z"/>
</svg>
