<?xml version="1.0" encoding="utf-8"?>
<!-- Generator: Adobe Illustrator 24.1.1, SVG Export Plug-In . SVG Version: 6.00 Build 0)  -->
<svg version="1.1" id="Слой_1" xmlns="http://www.w3.org/2000/svg" xmlns:xlink="http://www.w3.org/1999/xlink" x="0px" y="0px"
	 viewBox="0 0 512 512" style="enable-background:new 0 0 512 512;" xml:space="preserve">
<style type="text/css">
	.st0{filter:url(#Adobe_OpacityMaskFilter);}
	.st1{filter:url(#Adobe_OpacityMaskFilter_1_);}
	.st2{mask:url(#SVGID_1_);fill:url(#SVGID_2_);}
	.st3{fill:url(#SVGID_3_);}
	.st4{fill:url(#SVGID_4_);}
	.st5{fill:url(#SVGID_5_);}
	.st6{fill:url(#SVGID_6_);}
	.st7{fill:url(#SVGID_7_);}
	.st8{fill:url(#SVGID_8_);}
	.st9{fill:#D4E9F9;}
	.st10{fill:url(#SVGID_9_);}
	.st11{fill:url(#SVGID_10_);}
	.st12{fill:url(#SVGID_11_);}
	.st13{fill:#A5B554;}
	.st14{fill:url(#SVGID_12_);}
	.st15{fill:#BACC5F;}
	.st16{fill:url(#SVGID_13_);}
	.st17{fill:url(#SVGID_14_);}
	.st18{fill:url(#SVGID_15_);}
	.st19{fill:#5C8232;}
	.st20{fill:url(#SVGID_16_);}
	.st21{fill:#826949;}
	.st22{fill:url(#SVGID_17_);}
	.st23{fill:#A7BD48;}
	.st24{fill:#385A36;}
	.st25{fill:#325743;}
	.st26{fill:url(#SVGID_18_);}
	.st27{fill:url(#SVGID_19_);}
	.st28{fill:url(#SVGID_20_);}
	.st29{fill:url(#SVGID_21_);}
	.st30{fill:#705A3F;}
	.st31{fill:url(#SVGID_22_);}
	.st32{filter:url(#Adobe_OpacityMaskFilter_2_);}
	.st33{filter:url(#Adobe_OpacityMaskFilter_3_);}
	.st34{mask:url(#SVGID_23_);fill:url(#SVGID_24_);}
	.st35{fill:url(#SVGID_25_);}
	.st36{fill:url(#SVGID_26_);}
	.st37{fill:#427153;}
	.st38{fill:url(#SVGID_27_);}
	.st39{fill:url(#SVGID_28_);}
	.st40{fill:url(#SVGID_29_);}
	.st41{fill:url(#SVGID_30_);}
	.st42{fill:url(#SVGID_31_);}
	.st43{fill:url(#SVGID_32_);}
	.st44{fill:url(#SVGID_33_);}
	.st45{fill:url(#SVGID_34_);}
	.st46{fill:#5D6270;}
	.st47{fill:url(#SVGID_35_);}
	.st48{fill:url(#SVGID_36_);}
	.st49{fill:#A8A59C;}
	.st50{fill:#B8B8B8;}
	.st51{fill:#454A54;}
	.st52{fill:#505561;}
	.st53{fill:url(#SVGID_37_);}
	.st54{fill:url(#SVGID_38_);}
	.st55{fill:#3D414A;}
	.st56{fill:url(#SVGID_39_);}
	.st57{fill:url(#SVGID_40_);}
	.st58{fill:url(#SVGID_41_);}
	.st59{fill:url(#SVGID_42_);}
	.st60{fill:url(#SVGID_43_);}
	.st61{fill:url(#SVGID_44_);}
	.st62{fill:url(#SVGID_45_);}
	.st63{fill:url(#SVGID_46_);}
	.st64{fill:#ADA9A2;}
	.st65{fill:url(#SVGID_47_);}
	.st66{fill:url(#SVGID_48_);}
	.st67{fill:url(#SVGID_49_);}
	.st68{fill:url(#SVGID_50_);}
	.st69{fill:url(#SVGID_51_);}
	.st70{fill:url(#SVGID_52_);}
	.st71{fill:url(#SVGID_53_);}
	.st72{fill:url(#SVGID_54_);}
	.st73{fill:url(#SVGID_55_);}
	.st74{fill:url(#SVGID_56_);}
	.st75{fill:#3B3B40;}
	.st76{fill:#323657;}
	.st77{fill:#F2E8C7;}
	.st78{fill:#EEA886;}
	.st79{fill:#525252;}
	.st80{fill:#1B5EA1;}
	.st81{fill:#EDDAD3;}
	.st82{fill:#292C47;}
	.st83{fill:#2F4563;}
	.st84{fill:#DBCAC3;}
	.st85{fill:#134373;}
	.st86{fill:#151624;}
	.st87{fill:#EEA987;}
	.st88{fill:#A87860;}
</style>
<g>
	<g>
		<defs>
			<filter id="Adobe_OpacityMaskFilter" filterUnits="userSpaceOnUse" x="129.84" y="212.77" width="376.96" height="108.54">
				<feFlood  style="flood-color:white;flood-opacity:1" result="back"/>
				<feBlend  in="SourceGraphic" in2="back" mode="normal"/>
			</filter>
		</defs>
		<mask maskUnits="userSpaceOnUse" x="129.84" y="212.77" width="376.96" height="108.54" id="SVGID_1_">
			<g class="st0">
				<defs>
					<filter id="Adobe_OpacityMaskFilter_1_" filterUnits="userSpaceOnUse" x="129.84" y="212.77" width="371.21" height="108.54">
						<feFlood  style="flood-color:white;flood-opacity:1" result="back"/>
						<feBlend  in="SourceGraphic" in2="back" mode="normal"/>
					</filter>
				</defs>
				<mask maskUnits="userSpaceOnUse" x="129.84" y="212.77" width="371.21" height="108.54" id="SVGID_1_">
					<g class="st1">
					</g>
				</mask>
				<linearGradient id="SVGID_2_" gradientUnits="userSpaceOnUse" x1="315.4491" y1="210.7542" x2="315.4491" y2="280.2325">
					<stop  offset="0" style="stop-color:#FFFFFF"/>
					<stop  offset="1" style="stop-color:#000000"/>
				</linearGradient>
				<path class="st2" d="M501.06,237.32v83.99H155.88c-0.58-0.57-1.16-1.14-1.72-1.72c-2.47-2.5-4.77-5.09-6.9-7.72
					c-1.11-1.36-2.17-2.74-3.18-4.14c-0.12-0.16-0.24-0.32-0.34-0.48c-3.36-4.69-6.18-9.52-8.38-14.43
					c-2.08-4.64-3.61-9.36-4.51-14.08c-2.14-11.01-0.93-22.11,4.39-32.56v9.87h19.35v-23.5h15.26v9.89h7.94l6.87-6.87h7.82v-22.8
					h21.86v33.83h22.34v8.15h8.66v-12.3h33.02v13.61h12.63v-18.73h19.26v27.95h1.13v-37.67h16.97v9.71h14.39v18.73h19.35v-23.5
					h15.26v9.89h7.96l6.87-6.87h7.81v-22.8h21.85v33.83h22.36v8.15h8.66v-12.3h17.39v13.61h28.25v-18.73H501.06z"/>
			</g>
		</mask>
		<linearGradient id="SVGID_3_" gradientUnits="userSpaceOnUse" x1="318.3211" y1="210.7542" x2="318.3211" y2="280.2325">
			<stop  offset="0" style="stop-color:#B1D9F9"/>
			<stop  offset="1" style="stop-color:#FFFFFF"/>
		</linearGradient>
		<path class="st3" d="M506.8,237.32v83.99H155.88c-0.58-0.57-1.16-1.14-1.72-1.72c-2.47-2.5-4.77-5.09-6.9-7.72
			c-1.11-1.36-2.17-2.74-3.18-4.14c-0.12-0.16-0.24-0.32-0.34-0.48c-3.36-4.69-6.18-9.52-8.38-14.43
			c-2.08-4.64-3.61-9.36-4.51-14.08c-2.14-11.01-0.93-22.11,4.39-32.56v9.87h19.35v-23.5h15.26v9.89h7.94l6.87-6.87h7.82v-22.8
			h21.86v33.83h22.34v8.15h8.66v-12.3h33.02v13.61h12.63v-18.73h19.26v27.95h1.13v-37.67h16.97v9.71h14.39v18.73h19.35v-23.5h15.26
			v9.89h7.96l6.87-6.87h7.81v-22.8h21.85v33.83h22.36v8.15h8.66v-12.3h17.39v13.61h34v-18.73H506.8z"/>
		<linearGradient id="SVGID_4_" gradientUnits="userSpaceOnUse" x1="434.1102" y1="307.3745" x2="434.1102" y2="187.8352">
			<stop  offset="0" style="stop-color:#D6CC62"/>
			<stop  offset="1" style="stop-color:#9C5138"/>
		</linearGradient>
		<rect x="399.84" y="203.3" class="st4" width="68.55" height="103.95"/>
		<linearGradient id="SVGID_5_" gradientUnits="userSpaceOnUse" x1="144.9592" y1="285.3135" x2="144.9592" y2="197.6992">
			<stop  offset="0" style="stop-color:#D6CC62"/>
			<stop  offset="1" style="stop-color:#9C5138"/>
		</linearGradient>
		<path class="st5" d="M160.08,216.08v91.17h-16.34c-3.36-4.69-6.18-9.52-8.38-14.43c-2.08-4.64-3.61-9.36-4.51-14.08
			c-2.14-11.01-0.93-22.11,4.39-32.56c2.85-5.59,6.88-11,12.22-16.11C152.42,225.3,156.56,220.64,160.08,216.08z"/>
		<linearGradient id="SVGID_6_" gradientUnits="userSpaceOnUse" x1="183.3496" y1="282.2369" x2="183.3496" y2="182.3435">
			<stop  offset="0" style="stop-color:#D6CC62"/>
			<stop  offset="1" style="stop-color:#9C5138"/>
		</linearGradient>
		<polygon class="st6" points="167.69,307.25 199.01,307.25 199.01,237.1 167.69,230.07 		"/>
		<linearGradient id="SVGID_7_" gradientUnits="userSpaceOnUse" x1="373.0461" y1="276.3083" x2="373.0461" y2="191.5304">
			<stop  offset="0" style="stop-color:#D6CC62"/>
			<stop  offset="1" style="stop-color:#9C5138"/>
		</linearGradient>
		<rect x="351.87" y="243.02" class="st7" width="42.35" height="64.23"/>
		<g>
			<linearGradient id="SVGID_8_" gradientUnits="userSpaceOnUse" x1="181.176" y1="170.225" x2="209.5512" y2="170.225">
				<stop  offset="0" style="stop-color:#B1E1E6"/>
				<stop  offset="1" style="stop-color:#F2F5FF"/>
			</linearGradient>
			<path class="st8" d="M209.55,176.92h-28.38c1.92-4.37,3.9-8.59,6.22-12.67c1.71-0.47,3.54-0.73,5.44-0.73
				C202.07,163.53,209.55,169.52,209.55,176.92z"/>
		</g>
		<path class="st9" d="M263.98,218.68c-0.97,0-1.89,0.14-2.74,0.4c-1.12-2.72-3.91-4.65-7.17-4.65c-2.03,0-3.88,0.75-5.26,1.98
			c-2.15-1.26-4.8-2-7.67-2c-1.63,0-3.2,0.24-4.64,0.68c-1.9-4.61-6.62-7.87-12.14-7.87c-6.14,0-11.28,4.03-12.67,9.46
			c-1.06-0.4-2.22-0.62-3.43-0.62c-5.11,0-9.25,3.94-9.25,8.79h13.54h4.97h10.59h8.07h2.92h8h2.94h4.15h2.11h4.77h10.64
			C271.68,221.45,268.23,218.68,263.98,218.68z"/>
		<linearGradient id="SVGID_9_" gradientUnits="userSpaceOnUse" x1="358.9766" y1="203.9535" x2="425.5473" y2="203.9535">
			<stop  offset="0" style="stop-color:#B1E1E6"/>
			<stop  offset="1" style="stop-color:#F2F5FF"/>
		</linearGradient>
		<path class="st10" d="M414.18,202.52c-1.43,0-2.79,0.21-4.05,0.59c-1.66-4.02-5.77-6.87-10.59-6.87c-5.35,0-9.84,3.52-11.05,8.25
			c-0.93-0.35-1.93-0.54-2.99-0.54c-1.45,0-2.82,0.37-4,1.01c-1.33-2.42-3.99-4.07-7.06-4.07c-3.75,0-6.89,2.46-7.74,5.78
			c-0.65-0.24-1.35-0.38-2.09-0.38c-3.12,0-5.65,2.4-5.65,5.37h8.27h3.03h6.47h4.93h11c0-0.01,0-0.02,0-0.04h0.92h9.23h7.03h15.7
			C425.55,206.59,420.46,202.52,414.18,202.52z"/>
		<linearGradient id="SVGID_10_" gradientUnits="userSpaceOnUse" x1="395.7873" y1="367.2777" x2="395.7873" y2="356.1236">
			<stop  offset="0" style="stop-color:#B3C45A"/>
			<stop  offset="1" style="stop-color:#639C38"/>
		</linearGradient>
		<path class="st11" d="M478.55,367.73c-0.95,0.18-13.89,2.56-31.01,3.38h-22.21c-9.51-0.51-19.29-1.76-28.38-4.21
			c-34.48-9.31-80.98,0.18-83.93,0.8c3.04-0.77,52.97-13.06,83.5-7.8C427.96,365.31,467.2,369.24,478.55,367.73z"/>
		<linearGradient id="SVGID_11_" gradientUnits="userSpaceOnUse" x1="321.0772" y1="340.1571" x2="321.0772" y2="279.3796">
			<stop  offset="0" style="stop-color:#B3C45A"/>
			<stop  offset="1" style="stop-color:#639C38"/>
		</linearGradient>
		<path class="st12" d="M420.59,350.9c-87.36-13.24-141.47,24.23-206.98,4.01c-13.53-4.18-26.17-10.16-37.32-17.39
			c-5.84-3.78-11.27-7.91-16.21-12.3c-1.44-1.28-2.84-2.59-4.2-3.91c-0.58-0.57-1.16-1.14-1.72-1.72c-2.47-2.5-4.77-5.09-6.9-7.72
			c-1.11-1.36-2.17-2.74-3.18-4.14c-0.12-0.16-0.24-0.32-0.34-0.48c-3.36-4.69-6.18-9.52-8.38-14.43H506.8v46.98
			C506.8,339.8,500.11,362.95,420.59,350.9z"/>
		<path class="st13" d="M478.55,367.73c-0.95,0.18-13.89,2.56-31.01,3.38h-22.21c-9.51-0.51-19.29-1.76-28.38-4.21
			c-34.48-9.31-80.98,0.18-83.93,0.8c3.04-0.77,52.97-13.06,83.5-7.8C427.96,365.31,467.2,369.24,478.55,367.73z"/>
		<path class="st13" d="M420.59,350.9c-87.19-14.34-141.47,24.23-206.98,4.01c-13.53-4.18-26.17-10.16-37.32-17.39
			c-5.84-3.78-11.27-7.91-16.21-12.3c-1.44-1.28-2.84-2.59-4.2-3.91c-0.58-0.57-1.16-1.14-1.72-1.72H506.8v20.21
			C506.8,339.8,500.05,363.97,420.59,350.9z"/>
		<linearGradient id="SVGID_12_" gradientUnits="userSpaceOnUse" x1="333.4384" y1="332.9066" x2="333.4384" y2="318.1708">
			<stop  offset="0" style="stop-color:#FADDAF"/>
			<stop  offset="1" style="stop-color:#FABD5A"/>
		</linearGradient>
		<path class="st14" d="M506.8,325.22v12.3H176.29c-5.84-3.78-11.27-7.91-16.21-12.3H506.8z"/>
		<path class="st15" d="M506.8,307.73v4.14H147.26c-1.11-1.36-2.17-2.74-3.18-4.14H506.8z"/>
		<linearGradient id="SVGID_13_" gradientUnits="userSpaceOnUse" x1="486.5729" y1="274.8132" x2="505.7992" y2="274.8132">
			<stop  offset="0" style="stop-color:#6B9E34"/>
			<stop  offset="0.1351" style="stop-color:#61933C"/>
			<stop  offset="1" style="stop-color:#1F4A6E"/>
		</linearGradient>
		<path class="st16" d="M486.57,281.5c0,0,9.97-7.63,14.87-7.84c4.9-0.21,4.33-5.81,4.33-5.81S506.57,284.12,486.57,281.5z"/>
		<linearGradient id="SVGID_14_" gradientUnits="userSpaceOnUse" x1="326.2756" y1="139.5452" x2="366.1354" y2="170.9943">
			<stop  offset="0" style="stop-color:#6B9E34"/>
			<stop  offset="0.1351" style="stop-color:#61933C"/>
			<stop  offset="1" style="stop-color:#1F4A6E"/>
		</linearGradient>
		<path class="st17" d="M327.39,147.79c0,0,12.52-1.84,17.08,3.64c4.55,5.48,10.51-0.11,10.51-0.11S341.94,173.17,327.39,147.79z"/>
		
			<linearGradient id="SVGID_15_" gradientUnits="userSpaceOnUse" x1="-6724.7197" y1="2142.3455" x2="-6696.1387" y2="2164.8958" gradientTransform="matrix(0.6418 -0.7669 0.7669 0.6418 3001.2288 -6343.0205)">
			<stop  offset="0" style="stop-color:#6B9E34"/>
			<stop  offset="0.1351" style="stop-color:#61933C"/>
			<stop  offset="1" style="stop-color:#1F4A6E"/>
		</linearGradient>
		<path class="st18" d="M333.31,192.31c0,0,4.75-7.73,9.86-7.71c5.11,0.02,4.78-5.83,4.78-5.83S353.97,195.99,333.31,192.31z"/>
		<path class="st19" d="M184.73,292.82h-49.38c-2.08-4.64-3.61-9.36-4.51-14.08c7.35,3.91,4.4,8.68,4.24,8.92
			c0.32-0.17,7.97-4.26,13.78,0.01c0,0,4.61-9.25,11.21-5.69c0.5,0.27,1.01,0.61,1.53,1.03c0,0,3.1-1.66,6.08-1.58
			c2.31,0.05,4.53,1.16,5.18,4.88c0,0,7.7-4.09,9.19,3.11C182.06,289.42,184.73,290.71,184.73,292.82z"/>
		<path class="st19" d="M321.14,292.82c0,0-1.35-6.72,4.88-5.64c0,0,1.97-7.79,9.04-4.89c7.06,2.91,4.36,6.92,4.36,6.92
			s5.51-3.06,9.66,0c0,0,3.74-7.5,8.93-3.26c0,0,6.86-3.67,7.89,2.31c0,0,5.4-2.87,6.44,2.18c0,0,1.87,0.9,1.87,2.39H321.14z"/>
		<path class="st19" d="M310.29,292.82c0,0-0.84-4.19,3.04-3.51c0,0,1.23-4.85,5.63-3.04s2.72,4.31,2.72,4.31s3.43-1.9,6.01,0
			c0,0,2.33-4.67,5.56-2.03c0,0,4.27-2.28,4.92,1.44c0,0,3.36-1.79,4.01,1.36c0,0,1.16,0.56,1.16,1.48H310.29z"/>
		<path class="st19" d="M350.06,292.82c0,0-1.68-8.37,6.08-7.03c0,0,2.46-9.71,11.25-6.08c8.8,3.62,5.43,8.61,5.43,8.61
			s6.86-3.8,12.03,0c0,0,4.66-9.34,11.12-4.06c0,0,8.54-4.57,9.83,2.88c0,0,6.73-3.57,8.02,2.71c0,0,2.33,1.12,2.33,2.97H350.06z"/>
		<path class="st19" d="M386.79,292.82c0,0-1.35-6.72,4.88-5.64c0,0,1.97-7.79,9.04-4.89c7.06,2.91,4.36,6.92,4.36,6.92
			s5.5-3.06,9.66,0c0,0,3.74-7.5,8.93-3.26c0,0,6.85-3.67,7.89,2.31c0,0,5.4-2.87,6.44,2.18c0,0,1.87,0.9,1.87,2.39H386.79z"/>
		<path class="st19" d="M402.42,292.82c0,0-1.35-6.72,4.88-5.64c0,0,1.97-7.79,9.04-4.89c7.06,2.91,4.36,6.92,4.36,6.92
			s5.51-3.06,9.66,0c0,0,3.74-7.5,8.93-3.26c0,0,6.86-3.67,7.9,2.31c0,0,5.4-2.87,6.44,2.18c0,0,1.87,0.9,1.87,2.39H402.42z"/>
		<path class="st19" d="M444.69,292.82c0,0-0.68-3.36,2.44-2.82c0,0,0.99-3.9,4.52-2.44c3.53,1.45,2.18,3.46,2.18,3.46
			s2.75-1.53,4.83,0c0,0,1.87-3.75,4.47-1.63c0,0,3.43-1.83,3.95,1.16c0,0,2.7-1.43,3.22,1.09c0,0,0.93,0.45,0.93,1.19H444.69z"/>
		<linearGradient id="SVGID_16_" gradientUnits="userSpaceOnUse" x1="434.6323" y1="327.572" x2="434.6323" y2="127.9246">
			<stop  offset="0" style="stop-color:#426120"/>
			<stop  offset="1" style="stop-color:#1F4A6E"/>
		</linearGradient>
		<rect x="430.19" y="140.02" class="st20" width="8.88" height="210.88"/>
		<rect x="249.88" y="216.95" class="st21" width="3.33" height="120.56"/>
		<linearGradient id="SVGID_17_" gradientUnits="userSpaceOnUse" x1="462.1953" y1="324.3989" x2="462.1953" y2="139.9745">
			<stop  offset="0" style="stop-color:#426120"/>
			<stop  offset="1" style="stop-color:#1F4A6E"/>
		</linearGradient>
		<rect x="448.24" y="136.4" class="st22" width="27.92" height="214.5"/>
		<rect x="448.24" y="136.4" class="st23" width="7.78" height="214.5"/>
		<path class="st23" d="M448.24,274.91c0,0-2.04-12.62-10.06-17.2s-13-16.82-17.59-18.73v-1.15c0,0,5.57,3.49,9.94,10.83
			c3.45,5.79,10.07,6.24,13.51,9.43c3.44,3.19,7.01,10.2,7.01,10.2L448.24,274.91z"/>
		<path class="st24" d="M506.8,219.86v1.44c-4.92,6.08-15.86,14.34-20.71,16.53c-4.52,2.04-7.86,7.51-9.94,11.98
			c-1.36,2.9-2.17,5.38-2.44,6.24c-0.07,0.21-0.1,0.32-0.1,0.32l-0.11-0.32l-1.2-3.51c0,0,1.52-4.26,3.85-8.44
			c2.04-3.67,4.71-7.28,7.52-7.9C489.28,234.95,502.15,226.22,506.8,219.86z"/>
		<path class="st23" d="M459.07,235.41c0,0-0.26,101.95,0,105.27C459.07,340.67,462.39,252.74,459.07,235.41z"/>
		<path class="st25" d="M433.83,206.57c0,0-2.58-11.18-8.24-12.11c-3.49-0.57-8.06-0.41-9.08-1.17c-1.02-0.76-4.47-7.49-4.47-7.49
			s4.33,7.26,7.26,7.26c2.93,0,10.83,0.96,12.11,4.36c1.28,3.41,4.21,5.58,4.21,5.58L433.83,206.57z"/>
		<linearGradient id="SVGID_18_" gradientUnits="userSpaceOnUse" x1="422.4604" y1="303.6228" x2="481.7445" y2="407.9627">
			<stop  offset="0.0104" style="stop-color:#B0BD24"/>
			<stop  offset="1" style="stop-color:#1F4A6E"/>
		</linearGradient>
		<path class="st26" d="M453.22,319.62c0,0,0.08,4.84-5.45,7.87c-5.52,3.03-10.97,2.02-9.51,7.26c1.46,5.25-10.43,2.82-12.89,8.27
			c-2.45,5.45,3.99,7.87,3.99,7.87h34.06c0,0,6.21-6.86,0-13.32C457.21,331.12,453.22,319.62,453.22,319.62z"/>
		<linearGradient id="SVGID_19_" gradientUnits="userSpaceOnUse" x1="461.9608" y1="323.2893" x2="496.6413" y2="405.6925">
			<stop  offset="0.0104" style="stop-color:#B0BD24"/>
			<stop  offset="1" style="stop-color:#1F4A6E"/>
		</linearGradient>
		<path class="st27" d="M476.39,328.7c0,0,0.05,3.44-3.39,5.59c-3.44,2.15-6.83,1.43-5.92,5.16c0.91,3.72-6.49,2.01-8.02,5.87
			c-1.53,3.87,2.48,5.59,2.48,5.59h21.2c0,0,3.87-4.87,0-9.45C478.88,336.86,476.39,328.7,476.39,328.7z"/>
		<linearGradient id="SVGID_20_" gradientUnits="userSpaceOnUse" x1="394.206" y1="233.9577" x2="482.0266" y2="86.9926">
			<stop  offset="0" style="stop-color:#6B9E34"/>
			<stop  offset="0.1351" style="stop-color:#61933C"/>
			<stop  offset="1" style="stop-color:#1F4A6E"/>
		</linearGradient>
		<path class="st28" d="M439.07,137.37c-18.5,4.6-32.55,13.31-69.41,7.89c-3.16,1.91-5.15,5.71-0.12,13.2c0,0-11.2,6.42,0.99,14.65
			c12.19,8.23,27.26-1.64,30.76,8.4c1.61,4.61,6.91,7.52,12.94,8.36c0.26,0.04,0.52,0.07,0.78,0.1c5.24,0.57,10.93-0.39,15.17-3.12
			c1.37-0.87,2.59-1.95,3.59-3.2c2.07-2.58,1.95-4.8,0.77-6.72c1.52,0.26,3.03,0.48,4.52,0.67c2.09,0.26,4.12,0.44,6.01,0.54
			c1.16,0.06,2.21,0.05,3.15-0.01c4.23-0.31,6.4-1.89,7.78-3.91c1.5-2.19,2.06-4.9,3.32-7.03c2.21-0.61,3.75-1.63,4.25-3.27
			c1.05-0.28,2.32-0.4,3.88-0.31c13.32,0.74-8.58,16.93,8.69,21.73c1.31,0.36,2.85,0.66,4.65,0.88c21.18,2.6,20.03-4.37,26-9.21
			v-29.5C506.8,147.5,491.45,124.25,439.07,137.37z"/>
		
			<linearGradient id="SVGID_21_" gradientUnits="userSpaceOnUse" x1="3281.0222" y1="-4935.3789" x2="3301.5288" y2="-4919.1992" gradientTransform="matrix(0.7666 0.6421 -0.6421 0.7666 -5378.4688 1833.1664)">
			<stop  offset="0" style="stop-color:#6B9E34"/>
			<stop  offset="0.1351" style="stop-color:#61933C"/>
			<stop  offset="1" style="stop-color:#1F4A6E"/>
		</linearGradient>
		<path class="st29" d="M303.48,160.07c0,0,5.55,3.41,5.53,7.08c-0.01,3.66,4.18,3.43,4.18,3.43S300.84,174.89,303.48,160.07z"/>
		<g>
			<g>
				
					<rect x="269.95" y="287.7" transform="matrix(-1 -1.224647e-16 1.224647e-16 -1 633.4961 578.9984)" class="st30" width="93.6" height="3.6"/>
			</g>
			<g>
				
					<rect x="269.95" y="293.05" transform="matrix(-1 -1.224647e-16 1.224647e-16 -1 633.4961 589.6936)" class="st30" width="93.6" height="3.6"/>
			</g>
			<g>
				
					<rect x="267.38" y="313.38" transform="matrix(-1 -1.224647e-16 1.224647e-16 -1 537.6407 650.8658)" class="st30" width="2.88" height="24.11"/>
			</g>
			<g>
				
					<rect x="280.31" y="313.38" transform="matrix(-1 -1.224647e-16 1.224647e-16 -1 563.5059 650.8658)" class="st30" width="2.88" height="24.11"/>
			</g>
			<g>
				
					<rect x="263.58" y="309.77" transform="matrix(-1 -1.224647e-16 1.224647e-16 -1 627.1231 623.1509)" class="st30" width="99.97" height="3.6"/>
			</g>
			<g>
				
					<rect x="269.95" y="303.93" transform="matrix(-1 -1.224647e-16 1.224647e-16 -1 633.4961 611.458)" class="st30" width="93.6" height="3.6"/>
			</g>
			<g>
				
					<rect x="269.95" y="298.49" transform="matrix(-1 -1.224647e-16 1.224647e-16 -1 633.4961 600.5758)" class="st30" width="93.6" height="3.6"/>
			</g>
			<g>
				
					<rect x="358.35" y="313.38" transform="matrix(-1 -1.224647e-16 1.224647e-16 -1 719.5882 650.8658)" class="st30" width="2.88" height="24.11"/>
			</g>
			<g>
				
					<rect x="344.85" y="313.38" transform="matrix(-1 -1.224647e-16 1.224647e-16 -1 692.5839 650.8658)" class="st30" width="2.88" height="24.11"/>
			</g>
		</g>
		<path class="st21" d="M263.71,224.08c0,6.72-5.44,12.16-12.17,12.16c-6.72,0-12.16-5.44-12.16-12.16H263.71z"/>
		<linearGradient id="SVGID_22_" gradientUnits="userSpaceOnUse" x1="248.4794" y1="230.5904" x2="262.4382" y2="200.9278">
			<stop  offset="0" style="stop-color:#F7E499"/>
			<stop  offset="1" style="stop-color:#FC835B"/>
		</linearGradient>
		<path class="st31" d="M261.17,224.08c0,5.31-4.31,9.62-9.62,9.62c-5.31,0-9.62-4.31-9.62-9.62c0-5.31,4.31-9.62,9.62-9.62
			C256.86,214.46,261.17,218.76,261.17,224.08z"/>
		<defs>
			<filter id="Adobe_OpacityMaskFilter_2_" filterUnits="userSpaceOnUse" x="116.02" y="124.99" width="234.32" height="201.83">
				<feFlood  style="flood-color:white;flood-opacity:1" result="back"/>
				<feBlend  in="SourceGraphic" in2="back" mode="normal"/>
			</filter>
		</defs>
		<mask maskUnits="userSpaceOnUse" x="116.02" y="124.99" width="234.32" height="201.83" id="SVGID_23_">
			<g class="st32">
				<defs>
					<filter id="Adobe_OpacityMaskFilter_3_" filterUnits="userSpaceOnUse" x="116.02" y="124.99" width="234.32" height="201.83">
						<feFlood  style="flood-color:white;flood-opacity:1" result="back"/>
						<feBlend  in="SourceGraphic" in2="back" mode="normal"/>
					</filter>
				</defs>
				<mask maskUnits="userSpaceOnUse" x="116.02" y="124.99" width="234.32" height="201.83" id="SVGID_23_">
					<g class="st33">
					</g>
				</mask>
				
					<linearGradient id="SVGID_24_" gradientUnits="userSpaceOnUse" x1="1363.4335" y1="-669.5961" x2="1301.1816" y2="-884.1129" gradientTransform="matrix(0.9742 0.2258 -0.2115 0.9126 -1237.2529 565.3541)">
					<stop  offset="0" style="stop-color:#000000"/>
					<stop  offset="0.2264" style="stop-color:#3A3A3A"/>
					<stop  offset="1" style="stop-color:#FFFFFF"/>
				</linearGradient>
				<path class="st34" d="M315.37,165.91l22.63-13.11l-3.86-5.76l-45.63,26.43l-25.55-38.15l-22.31,12.92l-15.58-23.26l-6,3.47
					l26.79,39.99l-121.31,70.26l3.86,5.76l36.21-20.97l10.49,15.66l-54.45,31.54l3.86,5.76l54.45-31.54l19.16,28.6l-82.1,47.55
					l3.86,5.76l112.83-65.35l31.08,46.4l54.37-31.49l5.84,8.72l6-3.47l-24.97-37.28l45.31-26.24L315.37,165.91z M260.81,144.56
					l21.7,32.39l-16.31,9.45l-21.7-32.39L260.81,144.56z M170.61,220.02l79.1-45.82l10.49,15.66l-79.1,45.82L170.61,220.02z
					 M264.06,195.62l19.16,28.6l-48.37,28.02l-19.16-28.6L264.06,195.62z M204.11,270.04l-19.16-28.6l24.73-14.33l19.16,28.6
					L204.11,270.04z M265.93,298.64L238.7,258l48.38-28.02l27.23,40.64L265.93,298.64z M270.06,192.15l39.31-22.77l31.11,46.44
					l-39.31,22.77L270.06,192.15z"/>
			</g>
		</mask>
		
			<linearGradient id="SVGID_25_" gradientUnits="userSpaceOnUse" x1="267.8584" y1="312.1188" x2="209.6526" y2="111.5444" gradientTransform="matrix(0.9968 0.0139 0.0139 0.94 -10.4822 45.2176)">
			<stop  offset="0.2264" style="stop-color:#9CD0F1"/>
			<stop  offset="0.8994" style="stop-color:#4D9DBA"/>
		</linearGradient>
		<path class="st35" d="M315.37,165.91l22.63-13.11l-3.86-5.76l-45.63,26.43l-25.55-38.15l-22.31,12.92l-15.58-23.26l-6,3.47
			l26.79,39.99l-121.31,70.26l3.86,5.76l36.21-20.97l10.49,15.66l-54.45,31.54l3.86,5.76l54.45-31.54l19.16,28.6l-82.1,47.55
			l3.86,5.76l112.83-65.35l31.08,46.4l54.37-31.49l5.84,8.72l6-3.47l-24.97-37.28l45.31-26.24L315.37,165.91z M260.81,144.56
			l21.7,32.39l-16.31,9.45l-21.7-32.39L260.81,144.56z M170.61,220.02l79.1-45.82l10.49,15.66l-79.1,45.82L170.61,220.02z
			 M264.06,195.62l19.16,28.6l-48.37,28.02l-19.16-28.6L264.06,195.62z M204.11,270.04l-19.16-28.6l24.73-14.33l19.16,28.6
			L204.11,270.04z M265.93,298.64L238.7,258l48.38-28.02l27.23,40.64L265.93,298.64z M270.06,192.15l39.31-22.77l31.11,46.44
			l-39.31,22.77L270.06,192.15z"/>
		<linearGradient id="SVGID_26_" gradientUnits="userSpaceOnUse" x1="232.4973" y1="148.0294" x2="265.5946" y2="148.0294">
			<stop  offset="0" style="stop-color:#6B9E34"/>
			<stop  offset="0.1351" style="stop-color:#61933C"/>
			<stop  offset="1" style="stop-color:#1F4A6E"/>
		</linearGradient>
		<path class="st36" d="M265.59,139.66c0-9.14-7.41-16.55-16.55-16.55c-9.14,0-16.55,7.41-16.55,16.55c0,0.32,0.01,0.63,0.03,0.94
			h-0.03c0,12.6,16.55,32.35,16.55,32.35s16.55-19.75,16.55-32.35h-0.03C265.58,140.29,265.59,139.98,265.59,139.66z M249.05,150.38
			c-5.92,0-10.72-4.8-10.72-10.72c0-5.92,4.8-10.72,10.72-10.72s10.72,4.8,10.72,10.72C259.77,145.58,254.97,150.38,249.05,150.38z"
			/>
		<path class="st37" d="M485.62,126.13c-0.67-0.2-1.35-0.38-2.03-0.57c-3.3-0.9-6.66-1.6-10.05-2.11
			c-16.16-2.45-33.22-0.59-50.29,5.81c-21.39,8.02-50.36,4.46-50.36,4.46c28.08-2.67,30.75-9.36,56.37-16.33
			c16.29-4.43,34.65,0.31,45.86,4.36c3.77,1.36,6.73,2.63,8.53,3.45C484.83,125.73,485.52,126.08,485.62,126.13z"/>
		<path class="st13" d="M478.55,367.73c-0.95,0.18-13.89,2.56-31.01,3.38c-6.89,0.34-14.47,0.41-22.21,0
			c-9.51-0.51-19.29-1.76-28.38-4.21c-34.48-9.31-80.98,0.18-83.93,0.8c3.04-0.77,52.97-13.06,83.5-7.8
			C427.96,365.31,467.2,369.24,478.55,367.73z"/>
	</g>
	<g>
		<linearGradient id="SVGID_27_" gradientUnits="userSpaceOnUse" x1="18.863" y1="333.3095" x2="7.6222" y2="315.2306">
			<stop  offset="0" style="stop-color:#C44338"/>
			<stop  offset="0.2953" style="stop-color:#F25345"/>
			<stop  offset="1" style="stop-color:#E8E3D8"/>
		</linearGradient>
		<path class="st38" d="M11.49,321.29c0,0-5.83,3.3-5.64,4.71c0.19,1.41,1.22,5.6,1.92,6.45c0.7,0.85,8.66-1.21,10.16-3.64
			c1.5-2.44,6.46-10.31,0.84-9.46C13.16,320.2,11.49,321.29,11.49,321.29z"/>
		<linearGradient id="SVGID_28_" gradientUnits="userSpaceOnUse" x1="148.3159" y1="397.3148" x2="134.5414" y2="319.4357">
			<stop  offset="0" style="stop-color:#A1A1A1"/>
			<stop  offset="1" style="stop-color:#F5F2E4"/>
		</linearGradient>
		<path class="st39" d="M267.8,359.4c-0.25,0.57-0.34,0.97-0.33,1.25c0.02,0.69,0.58,0.77,0.85,1.37c0.37,0.84-1.75,6.04-2.37,6.41
			c-0.53,0.32-9.33,1.09-11.99,1.31c-0.48,0.04-0.75,0.06-0.75,0.06s-2.06,0.03-5.79,0.07c-7.68,0.09-22.43,0.26-40.74,0.47
			c-2.05,0.02-4.16,0.05-6.3,0.07c-34.95,0.4-80.56,0.91-115.21,1.26c-3.09,0.03-6.09,0.06-8.99,0.09
			c-23.81,0.23-40.72,0.36-42.29,0.28c-0.42-0.02-0.88-0.04-1.36-0.08c-6.17-0.41-17.06-1.69-18.62-2.3
			c-1.69-0.65-4.4-7.8-4.22-8.74c0.19-0.94,0.66-1.31,0.66-1.31c-4.12-12.74-4.49-25.2-4.49-25.2c0.28-2.25,7.77-4.22,9.55-5.43
			c1.78-1.22,3.18-7.4,3.09-7.77c-0.09-0.37-5.53,0.47-6.28,0.47c-0.75,0-1.69-1.59-1.78-2.62c-0.09-1.03,31.57-31.69,32.69-32.57
			c1.12-0.87,22.86-5.74,47.33-7.49c24.48-1.75,61.83,3.81,70.44,7.12c15.61,5.99,37.84,23.98,37.84,23.98
			c40.22,8.99,63.38,15.43,64.7,16.55c0.77,0.66,1.55,1.63,2.12,2.54c0.11,0.18,0.21,0.35,0.31,0.51c0.25,0.45,0.43,0.87,0.5,1.19
			c0.25,1.06-20.85-4.25-22.35-4.25c-1.5,0,0.87,3.44,1.87,4.62c1,1.19,22.92,5.75,24.35,8.36c0.27,0.49,0.38,1.43,0.38,2.64
			c0,0.12,0,0.25-0.01,0.38C270.52,347.99,268.47,357.84,267.8,359.4z"/>
		<linearGradient id="SVGID_29_" gradientUnits="userSpaceOnUse" x1="272.9758" y1="316.6509" x2="244.2202" y2="342.0345">
			<stop  offset="0" style="stop-color:#FFFAED"/>
			<stop  offset="1" style="stop-color:#ADA9A2"/>
		</linearGradient>
		<path class="st40" d="M265.45,331.02c0,0,2.72,3,3.07,7.41c0,0-22.31-4.84-23.88-7.02c-1.56-2.18-4.31-5.71-1.06-6.04
			C246.83,325.03,265.45,331.02,265.45,331.02z"/>
		<linearGradient id="SVGID_30_" gradientUnits="userSpaceOnUse" x1="21.4438" y1="302.6895" x2="33.8087" y2="286.765">
			<stop  offset="0" style="stop-color:#A1A1A1"/>
			<stop  offset="1" style="stop-color:#F5F2E4"/>
		</linearGradient>
		<path class="st41" d="M43.69,286.5c0,0-20.18,1.56-21.62,2.97c-1.44,1.41-0.48,2.25,0,2.53c0.48,0.28,11.33,4.11,11.33,4.11
			L43.69,286.5z"/>
		<linearGradient id="SVGID_31_" gradientUnits="userSpaceOnUse" x1="250.9595" y1="352.4546" x2="265.0122" y2="355.2027">
			<stop  offset="0.4016" style="stop-color:#3D414A"/>
			<stop  offset="1" style="stop-color:#697080"/>
		</linearGradient>
		<path class="st42" d="M264.44,344.83c0,0-4.12-0.13-4.62,1c-0.5,1.12-2.75,17.1-2.12,17.98c0.62,0.88,3.32,0,3.32,0L264.44,344.83
			z"/>
		<linearGradient id="SVGID_32_" gradientUnits="userSpaceOnUse" x1="113.7583" y1="320.3246" x2="125.9837" y2="320.3246">
			<stop  offset="0" style="stop-color:#A1A1A1"/>
			<stop  offset="1" style="stop-color:#918E87"/>
		</linearGradient>
		<path class="st43" d="M113.76,318.97c0,0,0.19,1.63,1.45,1.94c1.26,0.32,8.2,0.77,8.2,0.77s0.96-0.26,2.58-2.25L113.76,318.97z"/>
		<linearGradient id="SVGID_33_" gradientUnits="userSpaceOnUse" x1="47.6304" y1="317.6149" x2="59.8558" y2="317.6149">
			<stop  offset="0" style="stop-color:#A1A1A1"/>
			<stop  offset="1" style="stop-color:#918E87"/>
		</linearGradient>
		<path class="st44" d="M47.63,316.26c0,0,0.19,1.62,1.45,1.94c1.26,0.32,8.2,0.76,8.2,0.76s0.96-0.26,2.58-2.25L47.63,316.26z"/>
		<linearGradient id="SVGID_34_" gradientUnits="userSpaceOnUse" x1="120.6636" y1="296.1843" x2="115.9512" y2="325.2443">
			<stop  offset="0" style="stop-color:#A1A1A1"/>
			<stop  offset="1" style="stop-color:#E8E3D8"/>
		</linearGradient>
		<path class="st45" d="M196.94,314.36c0,0,4.18,3.19,3.81,4.64c-0.37,1.45-0.62,1.9-0.62,1.9s-0.25,0.78-8.12,0.78
			c-7.87,0-151.87-5.25-154.31-6.21c-2.43-0.95-3.06-5.48-3.06-5.48L196.94,314.36z"/>
		<path class="st46" d="M265.94,368.43c-0.63,0.38-12.74,1.38-12.74,1.38s-2.06,0.03-5.79,0.07l0.98-3.82c0,0,7.87,0.69,11.3,0.31
			c3.44-0.37,3.68-2.93,4.31-4.24c0.63-1.31,3.46-1.48,3.46-1.48c0.02,0.69,0.58,0.77,0.85,1.37
			C268.69,362.86,266.56,368.06,265.94,368.43z"/>
		<path class="st46" d="M86.32,363.81c0,2.74-0.4,5.38-1.15,7.87c-3.09,0.03-6.09,0.06-8.99,0.09c-23.81,0.23-40.72,0.36-42.29,0.28
			c-0.42-0.02-0.88-0.04-1.36-0.08c-0.8-2.58-1.23-5.33-1.23-8.17c0-15.2,12.32-27.51,27.51-27.51
			C74,336.3,86.32,348.61,86.32,363.81z"/>
		<path class="st46" d="M254.6,363.81c0,2.04-0.22,4.03-0.64,5.94c-0.48,0.04-0.75,0.06-0.75,0.06s-2.06,0.03-5.79,0.07
			c-7.68,0.09-22.43,0.26-40.74,0.47c-2.05,0.02-4.16,0.05-6.3,0.07c-0.52-2.12-0.8-4.33-0.8-6.62c0-15.2,12.32-27.51,27.51-27.51
			C242.28,336.3,254.6,348.61,254.6,363.81z"/>
		<path class="st46" d="M36.37,372.79c0,0-23.71-1.48-24.46-2.61c-0.75-1.13-5.17-8.6-1.78-11.23c3.4-2.63,16.25-2.84,25.87-10.54
			L36.37,372.79z"/>
		<path class="st46" d="M199.58,363.81c0,0,0.17,3.47-3.95,2.93c-4.12-0.55-111.28-2.53-111.28-2.53l-1.37,7.51l120.93-1.07
			L199.58,363.81z"/>
		<path class="st46" d="M196.94,314.36c0.39,3.51-8.72,2.56-11.31,2.45c-11.2-0.48-36.77-1.62-63.28-2.79c-0.02,0-0.03,0-0.03,0
			c-0.03,0-53.78-2.39-66.41-2.94c-0.31-0.01-21.21-0.77-21.27-1.08c-0.13-0.7,12.74-11.9,13.28-12.36
			c2.21-1.88,4.48-3.76,6.64-5.45c4.4-3.45,8.34-6.12,10.3-6.5c3.3-0.65,17.45-2.55,36.84-2.73c1.69-0.02,3.43-0.02,5.2,0
			c14.73,0.1,31.98,1.24,49.57,4.58C168.34,289.78,196.63,311.64,196.94,314.36z"/>
		<g>
			<linearGradient id="SVGID_35_" gradientUnits="userSpaceOnUse" x1="145.9043" y1="345.0173" x2="145.4531" y2="321.1014">
				<stop  offset="0" style="stop-color:#A1A1A1"/>
				<stop  offset="1" style="stop-color:#E8E3D8"/>
			</linearGradient>
			<path class="st47" d="M270.63,342.29c0,0.12,0,0.25-0.01,0.38c-55.37-17.95-247.95-18.83-249.89-18.83v-0.38
				c0.49,0,49.14,0.19,104,2.59C175.33,328.27,241.71,332.89,270.63,342.29z"/>
		</g>
		<g>
			<linearGradient id="SVGID_36_" gradientUnits="userSpaceOnUse" x1="231.5473" y1="330.3639" x2="231.2295" y2="313.5235">
				<stop  offset="0" style="stop-color:#A1A1A1"/>
				<stop  offset="1" style="stop-color:#E8E3D8"/>
			</linearGradient>
			<path class="st48" d="M265.87,329.72c-37.52-10.57-68.66-15.13-68.96-15.17l0.05-0.38c0.31,0.04,31.06,4.45,68.6,15.03
				C265.68,329.38,265.78,329.55,265.87,329.72z"/>
		</g>
		<g>
			<path class="st49" d="M48.53,338.28l-0.35,0.14c-6.08-13.38-7.98-22.56-8.5-27.9c-0.3-3.08-0.14-4.9-0.07-5.51
				c0.14-0.13,0.28-0.26,0.43-0.4c-0.07,0.45-0.29,2.39,0.06,5.9C40.64,315.94,42.55,325.11,48.53,338.28z"/>
		</g>
		<path class="st50" d="M191.35,317.04c-2.13-0.05-22.48-0.95-47.52-2.06c-4.55-0.2-9.26-0.41-14.05-0.63
			c-2.46-0.11-4.95-0.22-7.44-0.33c-0.02,0-0.03,0-0.03,0s-6.87-20.39-3.99-22.76c2.87-2.37,39.92,1.6,39.92,1.6
			C166.21,294.53,186.32,310.76,191.35,317.04z"/>
		<path class="st50" d="M108.01,313.38l-4.44-0.2c-23.14-1.03-44.53-1.97-54.96-2.42c-0.92-0.04-1.75-0.07-2.49-0.1v0
			c-0.75-1.95,14.89-16.33,19.2-18.51c4.31-2.19,36.13-1.64,36.13-1.64S110.16,310.84,108.01,313.38z"/>
		<path class="st51" d="M112.35,313.57C112.35,313.57,112.35,313.57,112.35,313.57l-2.4-0.1l-3.86-0.17l-0.42-0.02l-2.09-0.09
			c-3.12-16.88-1.88-30.23-1.88-30.23c0.34,0,0.69-0.01,1.03-0.01c0.12,0,0.25,0,0.37,0c1.24-0.01,2.51-0.01,3.79,0.01
			C107.72,294.42,112.27,313.28,112.35,313.57z"/>
		<g>
			<path class="st49" d="M124.44,371.34l-0.42,0.01c-10.29-19.68-15.6-41.18-18.35-58.07c-2.72-16.74-2.92-28.94-2.93-30.33
				c0.12,0,0.25,0,0.37,0c0.01,1.37,0.24,13.59,2.98,30.35C108.85,330.19,114.17,351.7,124.44,371.34z"/>
		</g>
		<g>
			<path class="st49" d="M182.07,370.82l-0.42,0c5.75-20.91,5.83-41.27,5.02-53.98c-0.44-6.91-1.15-11.55-1.34-12.77
				c0.11,0.08,0.22,0.17,0.33,0.25c0.17,1,0.91,5.57,1.38,12.53C187.88,329.42,187.87,349.75,182.07,370.82z"/>
		</g>
		<path class="st52" d="M117.7,313.81c0,0-4.88-15.58-3.95-17.7c0.94-2.11,7.93-1.74,10.43,3.26c2.5,5,7.76,15.07,7.76,15.07
			L117.7,313.81z"/>
		<path class="st52" d="M55.9,311.08c-2.8-0.12-5.25-0.23-7.28-0.31c-0.92-0.04-1.75-0.07-2.49-0.1c-1.58-0.06-2.74-0.11-3.43-0.14
			c-0.58-2.04-1.25-4.48-1.78-6.72c2.07-1.89,4.49-4.04,7-6.17c1.05,0.71,1.98,1.68,2.61,2.95
			C51.92,303.38,54.18,307.76,55.9,311.08z"/>
		<linearGradient id="SVGID_37_" gradientUnits="userSpaceOnUse" x1="31.2901" y1="329.5046" x2="212.8651" y2="329.5046">
			<stop  offset="0" style="stop-color:#FFFAED"/>
			<stop  offset="1" style="stop-color:#E8E3D8"/>
		</linearGradient>
		<path class="st53" d="M34.64,325.35c0,0,153.01,16.5,168.28,12.05c15.27-4.45,10.44-7.93,2.19-9.18
			c-8.24-1.25-174.79-10.08-173.82-6.54C32.27,325.22,34.64,325.35,34.64,325.35z"/>
		<linearGradient id="SVGID_38_" gradientUnits="userSpaceOnUse" x1="194.6048" y1="415.9633" x2="79.6828" y2="239.5716">
			<stop  offset="0" style="stop-color:#FFFAED"/>
			<stop  offset="1" style="stop-color:#E8E3D8"/>
		</linearGradient>
		<path class="st54" d="M59.95,293.17c0,0,4.48-4.95,8.93-5.75c5.1-0.91,78.81-3.99,96.29,5.75c17.49,9.74,3,7.99-0.87,7.74
			C160.43,300.66,56.21,297.03,59.95,293.17z"/>
		<path class="st55" d="M82.97,363.81c0,13.35-10.82,24.17-24.17,24.17c-13.35,0-24.17-10.82-24.17-24.17s10.82-24.17,24.17-24.17
			C72.15,339.64,82.97,350.46,82.97,363.81z"/>
		<g>
			<linearGradient id="SVGID_39_" gradientUnits="userSpaceOnUse" x1="58.805" y1="343.7354" x2="58.805" y2="362.8672">
				<stop  offset="0" style="stop-color:#FFFAED"/>
				<stop  offset="1" style="stop-color:#ADA9A2"/>
			</linearGradient>
			<path class="st56" d="M62.81,346.78l-2.72,13.4c-0.1,0.5-0.59,0.83-1.1,0.73h0c-0.12-0.02-0.24-0.02-0.36,0h0
				c-0.51,0.1-1-0.23-1.1-0.73l-2.72-13.4c0,0,0,0,0.01-0.01c0,0,0,0,0,0c1.28-0.3,2.62-0.45,3.99-0.45
				C60.18,346.31,61.52,346.47,62.81,346.78C62.8,346.78,62.81,346.78,62.81,346.78z"/>
			<linearGradient id="SVGID_40_" gradientUnits="userSpaceOnUse" x1="58.8054" y1="344.1193" x2="58.8054" y2="363.249">
				<stop  offset="0" style="stop-color:#FFFAED"/>
				<stop  offset="1" style="stop-color:#ADA9A2"/>
			</linearGradient>
			<path class="st57" d="M62.58,379.93c0.1,0.52-0.24,1.02-0.76,1.11c-0.98,0.17-1.99,0.26-3.02,0.26c-1.03,0-2.04-0.09-3.02-0.26
				c-0.52-0.09-0.86-0.6-0.76-1.11l2.5-12.28c0.1-0.51,0.59-0.83,1.1-0.73h0c0.12,0.02,0.24,0.02,0.36,0h0c0.51-0.1,1,0.23,1.1,0.73
				L62.58,379.93z"/>
			<linearGradient id="SVGID_41_" gradientUnits="userSpaceOnUse" x1="69.0415" y1="344.5535" x2="69.0415" y2="363.0852">
				<stop  offset="0" style="stop-color:#FFFAED"/>
				<stop  offset="1" style="stop-color:#ADA9A2"/>
			</linearGradient>
			<path class="st58" d="M76.3,363.81c0,1.07-0.1,2.12-0.28,3.14c-0.09,0.52-0.6,0.86-1.11,0.75l-12.37-2.51
				c-0.5-0.1-0.83-0.59-0.73-1.09l0-0.01c0.02-0.12,0.02-0.24,0-0.35l0-0.01c-0.1-0.5,0.23-0.99,0.73-1.09l12.4-2.52
				c0.52-0.1,1.02,0.24,1.11,0.76C76.21,361.83,76.3,362.81,76.3,363.81z"/>
			<linearGradient id="SVGID_42_" gradientUnits="userSpaceOnUse" x1="48.5674" y1="344.5535" x2="48.5674" y2="363.0852">
				<stop  offset="0" style="stop-color:#FFFAED"/>
				<stop  offset="1" style="stop-color:#ADA9A2"/>
			</linearGradient>
			<path class="st59" d="M55.81,364.09L55.81,364.09c0.1,0.51-0.23,1-0.73,1.1l-12.37,2.51c-0.52,0.1-1.02-0.24-1.11-0.75
				c-0.19-1.02-0.28-2.07-0.28-3.14c0-1,0.08-1.98,0.25-2.93c0.09-0.52,0.59-0.87,1.11-0.76l12.4,2.52c0.5,0.1,0.83,0.59,0.73,1.1v0
				C55.78,363.85,55.78,363.97,55.81,364.09z"/>
			<linearGradient id="SVGID_43_" gradientUnits="userSpaceOnUse" x1="66.867" y1="344.3476" x2="66.867" y2="362.6736">
				<stop  offset="0" style="stop-color:#FFFAED"/>
				<stop  offset="1" style="stop-color:#ADA9A2"/>
			</linearGradient>
			<path class="st60" d="M72.93,355.17l-10.59,7.01c-0.43,0.28-1,0.17-1.29-0.25l0-0.01c-0.07-0.1-0.15-0.18-0.25-0.25l-0.01-0.01
				c-0.42-0.29-0.54-0.87-0.26-1.29l7.03-10.61c0.29-0.44,0.89-0.55,1.33-0.25c1.67,1.18,3.13,2.65,4.3,4.33
				C73.49,354.28,73.37,354.88,72.93,355.17z"/>
			<linearGradient id="SVGID_44_" gradientUnits="userSpaceOnUse" x1="50.7907" y1="345.1966" x2="50.7907" y2="363.5166">
				<stop  offset="0" style="stop-color:#FFFAED"/>
				<stop  offset="1" style="stop-color:#ADA9A2"/>
			</linearGradient>
			<path class="st61" d="M57.07,367.46l-6.93,10.46c-0.29,0.44-0.89,0.55-1.32,0.25c-1.66-1.16-3.12-2.6-4.29-4.26
				c-0.31-0.43-0.19-1.04,0.25-1.32l10.48-6.94c0.43-0.28,1.01-0.17,1.3,0.26l0,0c0.07,0.1,0.15,0.19,0.26,0.26l0,0
				C57.24,366.45,57.35,367.03,57.07,367.46z"/>
			<linearGradient id="SVGID_45_" gradientUnits="userSpaceOnUse" x1="66.8172" y1="345.194" x2="66.8172" y2="363.5154">
				<stop  offset="0" style="stop-color:#FFFAED"/>
				<stop  offset="1" style="stop-color:#ADA9A2"/>
			</linearGradient>
			<path class="st62" d="M73.08,373.92c-1.17,1.65-2.63,3.09-4.29,4.25c-0.43,0.3-1.03,0.19-1.32-0.25l-6.93-10.46
				c-0.28-0.43-0.17-1.01,0.26-1.3l0,0c0.1-0.07,0.19-0.15,0.25-0.25l0-0.01c0.29-0.42,0.87-0.54,1.29-0.26l10.48,6.95
				C73.27,372.89,73.39,373.49,73.08,373.92z"/>
			<linearGradient id="SVGID_46_" gradientUnits="userSpaceOnUse" x1="50.7405" y1="344.348" x2="50.7405" y2="362.6725">
				<stop  offset="0" style="stop-color:#FFFAED"/>
				<stop  offset="1" style="stop-color:#ADA9A2"/>
			</linearGradient>
			<path class="st63" d="M56.81,361.66L56.81,361.66c-0.1,0.07-0.19,0.16-0.26,0.26h0c-0.29,0.43-0.87,0.54-1.29,0.26l-10.59-7.01
				c-0.44-0.29-0.55-0.89-0.25-1.32c1.17-1.68,2.62-3.15,4.3-4.33c0.43-0.31,1.03-0.19,1.33,0.25l7.03,10.61
				C57.35,360.8,57.24,361.38,56.81,361.66z"/>
		</g>
		<path class="st64" d="M62.72,363.81c0,2.16-1.75,3.91-3.92,3.91c-2.16,0-3.91-1.75-3.91-3.91c0-2.16,1.75-3.91,3.91-3.91
			C60.97,359.89,62.72,361.65,62.72,363.81z"/>
		<g>
			<path class="st64" d="M58.81,381.49c-9.75,0-17.68-7.93-17.68-17.68c0-9.75,7.93-17.68,17.68-17.68
				c9.75,0,17.68,7.93,17.68,17.68C76.49,373.56,68.55,381.49,58.81,381.49z M58.81,346.5c-9.54,0-17.31,7.76-17.31,17.31
				c0,9.54,7.76,17.31,17.31,17.31c9.54,0,17.31-7.76,17.31-17.31C76.11,354.26,68.35,346.5,58.81,346.5z"/>
		</g>
		<path class="st55" d="M251.26,363.81c0,13.35-10.82,24.17-24.17,24.17c-13.35,0-24.17-10.82-24.17-24.17s10.82-24.17,24.17-24.17
			C240.44,339.64,251.26,350.46,251.26,363.81z"/>
		<g>
			<linearGradient id="SVGID_47_" gradientUnits="userSpaceOnUse" x1="227.0888" y1="343.7354" x2="227.0888" y2="362.8672">
				<stop  offset="0" style="stop-color:#FFFAED"/>
				<stop  offset="1" style="stop-color:#ADA9A2"/>
			</linearGradient>
			<path class="st65" d="M231.09,346.78l-2.72,13.4c-0.1,0.5-0.59,0.83-1.1,0.73h0c-0.12-0.02-0.24-0.02-0.36,0h0
				c-0.5,0.1-1-0.23-1.1-0.73l-2.72-13.4c0,0,0,0,0.01-0.01c0,0,0,0,0,0c1.28-0.3,2.62-0.45,3.99-0.45
				C228.46,346.31,229.8,346.47,231.09,346.78C231.09,346.78,231.09,346.78,231.09,346.78z"/>
			<linearGradient id="SVGID_48_" gradientUnits="userSpaceOnUse" x1="227.0888" y1="344.1193" x2="227.0888" y2="363.249">
				<stop  offset="0" style="stop-color:#FFFAED"/>
				<stop  offset="1" style="stop-color:#ADA9A2"/>
			</linearGradient>
			<path class="st66" d="M230.86,379.93c0.1,0.52-0.24,1.02-0.76,1.11c-0.98,0.17-1.99,0.26-3.02,0.26c-1.03,0-2.04-0.09-3.02-0.26
				c-0.52-0.09-0.86-0.6-0.76-1.11l2.49-12.28c0.1-0.51,0.59-0.83,1.1-0.73h0c0.12,0.02,0.24,0.02,0.36,0h0
				c0.51-0.1,1,0.23,1.1,0.73L230.86,379.93z"/>
			<linearGradient id="SVGID_49_" gradientUnits="userSpaceOnUse" x1="237.3253" y1="344.5535" x2="237.3253" y2="363.0852">
				<stop  offset="0" style="stop-color:#FFFAED"/>
				<stop  offset="1" style="stop-color:#ADA9A2"/>
			</linearGradient>
			<path class="st67" d="M244.58,363.81c0,1.07-0.1,2.12-0.28,3.14c-0.09,0.52-0.6,0.86-1.11,0.75l-12.37-2.51
				c-0.5-0.1-0.83-0.59-0.73-1.09l0-0.01c0.02-0.12,0.02-0.24,0-0.35l0-0.01c-0.1-0.5,0.23-0.99,0.73-1.09l12.4-2.52
				c0.52-0.1,1.02,0.24,1.11,0.76C244.5,361.83,244.58,362.81,244.58,363.81z"/>
			<linearGradient id="SVGID_50_" gradientUnits="userSpaceOnUse" x1="216.8508" y1="344.5535" x2="216.8508" y2="363.0852">
				<stop  offset="0" style="stop-color:#FFFAED"/>
				<stop  offset="1" style="stop-color:#ADA9A2"/>
			</linearGradient>
			<path class="st68" d="M224.09,364.09L224.09,364.09c0.1,0.51-0.23,1-0.73,1.1l-12.37,2.51c-0.52,0.1-1.02-0.24-1.11-0.75
				c-0.18-1.02-0.28-2.07-0.28-3.14c0-1,0.08-1.98,0.25-2.93c0.09-0.52,0.59-0.87,1.11-0.76l12.4,2.52c0.5,0.1,0.83,0.59,0.73,1.1v0
				C224.07,363.85,224.07,363.97,224.09,364.09z"/>
			<linearGradient id="SVGID_51_" gradientUnits="userSpaceOnUse" x1="235.1516" y1="344.3476" x2="235.1516" y2="362.6736">
				<stop  offset="0" style="stop-color:#FFFAED"/>
				<stop  offset="1" style="stop-color:#ADA9A2"/>
			</linearGradient>
			<path class="st69" d="M241.22,355.17l-10.59,7.01c-0.43,0.28-1,0.17-1.29-0.25l0-0.01c-0.07-0.1-0.15-0.18-0.25-0.25l-0.01-0.01
				c-0.42-0.29-0.54-0.87-0.26-1.29l7.03-10.61c0.29-0.44,0.89-0.55,1.33-0.25c1.67,1.18,3.13,2.65,4.3,4.33
				C241.77,354.28,241.66,354.88,241.22,355.17z"/>
			<linearGradient id="SVGID_52_" gradientUnits="userSpaceOnUse" x1="219.0746" y1="345.1966" x2="219.0746" y2="363.5166">
				<stop  offset="0" style="stop-color:#FFFAED"/>
				<stop  offset="1" style="stop-color:#ADA9A2"/>
			</linearGradient>
			<path class="st70" d="M225.35,367.46l-6.93,10.46c-0.29,0.44-0.89,0.55-1.32,0.25c-1.66-1.16-3.12-2.6-4.29-4.26
				c-0.31-0.43-0.19-1.04,0.25-1.32l10.48-6.94c0.43-0.28,1.01-0.17,1.3,0.26l0,0c0.07,0.1,0.15,0.19,0.26,0.26l0,0
				C225.52,366.45,225.64,367.03,225.35,367.46z"/>
			<linearGradient id="SVGID_53_" gradientUnits="userSpaceOnUse" x1="235.1015" y1="345.194" x2="235.1015" y2="363.5154">
				<stop  offset="0" style="stop-color:#FFFAED"/>
				<stop  offset="1" style="stop-color:#ADA9A2"/>
			</linearGradient>
			<path class="st71" d="M241.37,373.92c-1.17,1.65-2.63,3.09-4.29,4.25c-0.43,0.3-1.03,0.19-1.32-0.25l-6.93-10.46
				c-0.28-0.43-0.17-1.01,0.26-1.3l0,0c0.1-0.07,0.19-0.15,0.25-0.25l0-0.01c0.29-0.42,0.87-0.54,1.29-0.26l10.48,6.95
				C241.56,372.89,241.67,373.49,241.37,373.92z"/>
			<linearGradient id="SVGID_54_" gradientUnits="userSpaceOnUse" x1="219.0247" y1="344.348" x2="219.0247" y2="362.6725">
				<stop  offset="0" style="stop-color:#FFFAED"/>
				<stop  offset="1" style="stop-color:#ADA9A2"/>
			</linearGradient>
			<path class="st72" d="M225.1,361.66L225.1,361.66c-0.11,0.07-0.19,0.16-0.26,0.26h0c-0.29,0.43-0.87,0.54-1.29,0.26l-10.59-7.01
				c-0.44-0.29-0.55-0.89-0.25-1.32c1.17-1.68,2.62-3.15,4.3-4.33c0.43-0.31,1.03-0.19,1.33,0.25l7.03,10.61
				C225.64,360.8,225.52,361.38,225.1,361.66z"/>
		</g>
		<path class="st64" d="M231,363.81c0,2.16-1.75,3.91-3.91,3.91c-2.16,0-3.91-1.75-3.91-3.91c0-2.16,1.75-3.91,3.91-3.91
			C229.25,359.89,231,361.65,231,363.81z"/>
		<g>
			<path class="st64" d="M227.09,381.49c-9.75,0-17.68-7.93-17.68-17.68c0-9.75,7.93-17.68,17.68-17.68s17.68,7.93,17.68,17.68
				C244.77,373.56,236.84,381.49,227.09,381.49z M227.09,346.5c-9.54,0-17.31,7.76-17.31,17.31c0,9.54,7.76,17.31,17.31,17.31
				c9.54,0,17.31-7.76,17.31-17.31C244.39,354.26,236.63,346.5,227.09,346.5z"/>
		</g>
		<linearGradient id="SVGID_55_" gradientUnits="userSpaceOnUse" x1="195.175" y1="318.0347" x2="188.4931" y2="308.6674">
			<stop  offset="0" style="stop-color:#A1A1A1"/>
			<stop  offset="1" style="stop-color:#E8E3D8"/>
		</linearGradient>
		<path class="st73" d="M187.25,312.02c0,0,10.28,1.27,10.06,2.49c-0.22,1.22-1.54,2.27-1.54,2.27s-0.72,0.12-4.05,0.5
			C188.38,317.67,187.25,312.02,187.25,312.02z"/>
		<linearGradient id="SVGID_56_" gradientUnits="userSpaceOnUse" x1="176.584" y1="298.743" x2="183.7022" y2="313.6352">
			<stop  offset="0" style="stop-color:#FFFAED"/>
			<stop  offset="1" style="stop-color:#ADA9A2"/>
		</linearGradient>
		<path class="st74" d="M193.61,317.04c0,0,2.92-2.12,0.87-2.81c-2.05-0.69-7.36-1.75-8.24-2.87c-0.88-1.12-8.5-5.74-11.87-3.5
			c-3.37,2.25-1.5,9.24,2.37,10.12C180.63,318.85,193.61,317.04,193.61,317.04z"/>
		<path class="st55" d="M61.56,363.81c0,1.52-1.23,2.75-2.76,2.75s-2.75-1.23-2.75-2.75c0-1.52,1.23-2.76,2.75-2.76
			S61.56,362.29,61.56,363.81z"/>
		<path class="st55" d="M229.84,363.81c0,1.52-1.23,2.75-2.75,2.75c-1.52,0-2.76-1.23-2.76-2.75c0-1.52,1.23-2.76,2.76-2.76
			C228.61,361.05,229.84,362.29,229.84,363.81z"/>
	</g>
	<g>
		<g>
			<g>
				<path class="st75" d="M58.47,237.36c0,0-5.55-0.19-7.32,4.36c-1.77,4.55-0.43,8.04,0.07,9.7c1.32,4.33,1.43,5.9,0.79,8.51
					c-0.57,2.32-1.09,3.51-1.74,5.68c-0.65,2.16,0.44,1.92,0.53,2.08c0.09,0.16,21.24,4.71,21.24,4.71s-0.67-5.41-2.07-7.55
					c-1.03-1.57-2.57-2.1-1.41-6.74c1.16-4.64,1.89-6.79,1.25-10.16c-0.75-3.9-1.23-6.33-4.89-8.89
					C62.7,237.53,60.22,237.19,58.47,237.36z"/>
			</g>
		</g>
		<g>
			<path class="st76" d="M52.22,295.35c-0.18,3.19-0.87,6.55-2.32,10c0,0-4.54,1.88-6.73-0.97c-0.86-1.12-1.61-4.88-1.93-9.68
				c-0.49-7.39,1.69-17.95,4.45-24.38C45.69,270.32,52.99,281.56,52.22,295.35z"/>
		</g>
		<g>
			<path class="st77" d="M52.22,295.35c-0.18,3.19-0.87,6.55-2.32,10c0,0-4.54,1.88-6.73-0.97c-0.86-1.12-1.61-4.88-1.93-9.68
				L52.22,295.35z"/>
		</g>
		<g>
			<g>
				<path class="st78" d="M91.64,265.34c0,0,0.84-2.06,1.16-2.53c0.31-0.47-0.66-1.49-1.27-0.27c-0.61,1.22-0.98,2.01-0.98,2.01
					L91.64,265.34z"/>
			</g>
		</g>
		<g>
			<g>
				<path class="st79" d="M90.79,267.28l2.86-8.87c0.19-0.58-0.18-1.2-0.78-1.32l-4.31-0.85c-0.54-0.11-1.07,0.23-1.2,0.77
					l-2.17,9.11c-0.14,0.58,0.24,1.15,0.83,1.25l3.62,0.61C90.14,268.06,90.63,267.76,90.79,267.28z"/>
			</g>
		</g>
		<g>
			<g>
				<path class="st78" d="M91.96,266.68c0,0,0.36-0.77-0.9-2.05c-1.67-1.71-4.01-3.68-4.57-3.6c-0.8,0.12-0.64,0.75,0.48,1.64
					c1.13,0.89,1.5,1.18,1.5,1.18s-2.42-1.16-3.09-1.06c-0.67,0.09-0.96,0.77-0.59,1.04c0.37,0.26,1.31,0.69,1.31,0.69
					s-1.08-0.35-1.34,0.04c-0.19,0.29-0.4,0.72,0.54,1.28c0,0-0.96,0.51-0.11,1.37c0.85,0.86,0.95,1.38,0.82,2.5
					c-0.13,1.12,0.58,2.89,0.58,2.89l3.26-0.36c0,0,0.6-2.93,1.02-3.61C91.31,267.94,91.96,266.68,91.96,266.68z"/>
			</g>
		</g>
		<g>
			<path class="st80" d="M71.4,285.31c1.49,2.24,3.45,4.6,5.02,4.58c1.02-0.01,13.8-16.47,13.8-17.29
				c-0.01-0.93-4.71-2.22-4.71-2.22s-2.24,3.89-4.3,5.53c-2.06,1.64-4.57,5.14-5.09,5.5c-0.52,0.36-2.39-3.66-2.39-3.66
				c-0.62-1.94-1.38-5.36-3.18-8.54c-1.8-3.18-5.84-4.55-5.84-4.55c-7.87,3.53,4.39,16.77,4.39,16.77S70.68,284.29,71.4,285.31z"/>
		</g>
		<g>
			<g>
				<path class="st80" d="M62.86,261.46c0,0,6.19,4.46,8.25,15.09c0,0-5.81-11.37-7.7-13.4C63.41,263.16,62.61,262.39,62.86,261.46z
					"/>
			</g>
		</g>
		<g>
			<g>
				<path class="st80" d="M72.49,279.28c0,0-0.08,24.67,0,30.37c0.08,5.69-7.21-13.67-7.21-13.67S69.17,283.9,72.49,279.28z"/>
			</g>
		</g>
		<g>
			<g>
				<path class="st80" d="M40.06,338.56c0,0,17.66-1.93,28.46,4.27c10.8,6.2-10.09-18.35-10.09-18.35S40.3,331.61,40.06,338.56z"/>
			</g>
		</g>
		<g>
			<g>
				<g>
					<path class="st81" d="M78.02,392.34c0,0,0.93,2.49,2.23,3.08c1.3,0.59,4.24,3.32,5.42,3.52c1.18,0.2,4.02,0.42,4.17,1.92
						c0.16,1.5-0.15,2.85-5.86,2.07c-5.71-0.79-11.1-3.43-11.1-3.43s-1.15-5.79,0.7-8.64C75.45,387.99,78.02,392.34,78.02,392.34z"
						/>
				</g>
			</g>
		</g>
		<g>
			<g>
				<path class="st78" d="M78.02,392.34l-1.07-3.57h-4.08v3.8C72.87,392.57,79.04,394.89,78.02,392.34z"/>
			</g>
		</g>
		<g>
			<g>
				<g>
					<path class="st81" d="M42.23,385.62c0,0,0.4,2.58,1.04,3.36c0.63,0.78,1.55,4.49,2.84,5.68c1.29,1.19,4.46,3.85,3.49,5.19
						c-0.97,1.34-7.75-0.38-10.17-4.51c-2.42-4.13-3.25-4.6-2.94-5.72c0.31-1.12,2.61-5.43,2.55-5.96
						C38.98,383.14,42.23,385.62,42.23,385.62z"/>
				</g>
			</g>
		</g>
		<g>
			<g>
				<path class="st78" d="M43.22,383.76c-0.04,0-0.82,1.17-0.99,1.85c-0.17,0.68-1.67,0.96-2.87-0.53c0,0-0.37-0.54-0.32-1.42
					c0.05-0.89,1.07-2.98,1.07-2.98L43.22,383.76z"/>
			</g>
		</g>
		<g>
			<g>
				<g>
					<path class="st82" d="M60.1,325.12c0.21,1.03,1.58,5.33,3.1,10.12c0,0,0,0,0,0c0.44,1.37,0.89,2.78,1.33,4.17
						c0.96,3.02,1.88,5.91,2.5,7.99c0.34,1.13,0.6,2.03,0.73,2.57c0.88,3.59-0.11,9.23-0.43,13.95c-0.32,4.71,4.76,27.9,4.76,27.9
						c1.2,0.56,6.51-0.92,6.51-0.92c-0.88-1.68-2.06-30.54-1.58-32.38c0.48-1.84,0.8-6.95,0.32-8.95c-0.1-0.41-0.15-0.95-0.16-1.6
						c-0.04-2.52,0.48-6.69,0.8-11.26c0.4-5.75-1.84-20.05-2.16-21.33c-0.03-0.12-0.08-0.28-0.14-0.49c-0.59-2.01-2.48-7.7-2.48-7.7
						c-3.84-1.14-6.74-1.35-8.89-0.91c-2.86,0.58-4.43,2.3-5.22,4.48C57.22,315.96,59.82,323.79,60.1,325.12z"/>
				</g>
			</g>
		</g>
		<g>
			<g>
				<g>
					<path class="st82" d="M38.26,383.03l5.25,2.23c0.66-3.19,15.31-25.39,16.27-27.86c0.96-2.48,1.99-7.27,1.99-9.03
						c0-0.31,0.02-0.84,0.07-1.53c0.17-2.66,0.66-7.69,1.36-11.6c0.13-0.73,0.27-1.42,0.41-2.05c0.77-3.37,0.91-14.89,0.92-21.67
						c0-3.01-0.02-5.09-0.02-5.09s-0.07-0.05-0.19-0.15c-1.46-1.1-10.8-7.82-14.06-1.54c-0.86,1.66-1.42,3.44-1.76,5.3
						c-1.04,5.69-1.82,12.98-0.98,18.82c0.72,5,2.28,10.65,3.35,15.8c0.58,2.81,1.09,5.84,0.44,6.98c-1.84,3.2-3.63,5.9-7.35,17.17
						C42.75,372.49,38.26,383.03,38.26,383.03z"/>
				</g>
			</g>
		</g>
		<g>
			<g>
				<g>
					<path class="st77" d="M51.75,294.89c-0.85,3.41-5.19,20.43-5.08,21.44c0.04,0.38,4.8,1.18,9.17,1.94
						c7.27,1.28,16.65-1.44,19.86-3.39c0,0,0,0,0,0c-0.07-0.25-4.36-16.29-4.68-18.14c-0.32-1.86,0.39-8.85,0.55-10.82
						c0.06-0.73,0.37-1.78,0.74-2.9v0c0.62-1.91,1.39-4.04,1.35-5.29c-0.03-0.94-0.27-1.83-0.65-2.72l0,0
						c-0.43-1.01-1.06-2.04-1.79-3.18c-0.43-0.67-0.88-1.34-1.33-2c-1.46-2.15-2.93-4.1-3.65-4.77c-0.53-0.5-1.04-0.88-1.47-1.17
						c0,0,0,0,0,0c-0.63-0.42-1.12-0.65-1.36-0.74c0,0,0,0,0,0c-0.1-0.04-0.15-0.06-0.15-0.06l-6.34-1.01c0,0-0.68,0.24-1.63,0.57
						c-1.17,0.4-2.76,0.92-4.03,1.25c0,0,0,0,0,0c-0.2,0.05-0.38,0.1-0.56,0.14c0,0-1.08,0.4-2.23,1.69
						c-1.09,1.23-2.24,3.24-2.27,7.34c-0.03,3.61,4.12,12.23,4.76,14.89C51.59,290.63,52.6,291.48,51.75,294.89z"/>
				</g>
			</g>
		</g>
		<g>
			<g>
				<g>
					<path class="st81" d="M64.77,263.9l3.67,5.79l3.39,5.34c-0.01-0.03-0.23-0.84-0.62-3.18c-0.07-0.45-0.15-0.94-0.23-1.5
						c-0.02-0.17-0.06-0.33-0.11-0.49v0C69.42,266.5,64.93,263.98,64.77,263.9C64.77,263.9,64.77,263.9,64.77,263.9z"/>
				</g>
			</g>
		</g>
		<g>
			<g>
				<g>
					<path class="st78" d="M55.53,262.78c0,0,0.18-7.51-0.46-8.71c-0.64-1.21,7.74,5.02,7.74,5.02s-0.03,0.29-0.04,0.51
						c0,0.04,0,0.08-0.01,0.11c-0.02,0.7-0.01,0.81,0.05,1.41c0.01,0.07,0.02,0.15,0.03,0.24c0.1,0.97,0.36,2.03,0.78,2.9
						C64.55,266.19,55.53,262.78,55.53,262.78z"/>
				</g>
			</g>
		</g>
		<g>
			<g>
				<path class="st80" d="M70.86,269.81L70.86,269.81c0,0,0.2,0.41,0.36,2.04l-1.33-2c0,0-2.37-3.4-3.19-4.29
					c-0.81-0.88-1.93-1.66-1.93-1.66S69.44,266.14,70.86,269.81z"/>
			</g>
		</g>
		<g>
			<g>
				<path class="st78" d="M63.26,263.1c0,0,4.25,6.53,2.81,7.1c-1.44,0.57-9.22-0.76-12.53-6.97
					C53.53,263.24,58.48,260.7,63.26,263.1z"/>
			</g>
		</g>
		<g>
			<g>
				<path class="st83" d="M71.56,286.04c0.01-0.09,0.02-0.14,0.02-0.15c0,0.01,0,0.02-0.01,0.04
					C71.56,285.96,71.56,285.99,71.56,286.04z"/>
			</g>
		</g>
		<g>
			<g>
				<path class="st81" d="M53.2,274.52c0,0-5.41-1.93-7.1-2.06c0,0,1.26-9.64,6.85-8.67C58.55,264.76,53.2,274.52,53.2,274.52z"/>
			</g>
		</g>
		<g>
			<g>
				<path class="st77" d="M62.92,261.92c0,0-0.33,1.24-7.37-0.92l-0.33,1.6c0,0-0.93,0.14-3.47,1.18c0,0,12.69,11.96,14.61,7.08
					c1.92-4.88-2.96-7.7-2.96-7.7L62.92,261.92z"/>
			</g>
		</g>
		<g>
			<g>
				<path class="st80" d="M63.41,263.16l9.6,11.87c-0.43-1.01-1.06-2.04-1.79-3.18c-0.43-0.67-0.88-1.34-1.33-2
					c-1.46-2.15-2.93-4.1-3.65-4.77c-0.53-0.5-1.04-0.88-1.47-1.17c0,0,0,0,0,0C64.13,263.47,63.64,263.25,63.41,263.16
					C63.41,263.16,63.41,263.16,63.41,263.16z"/>
			</g>
		</g>
		<g>
			<g>
				<path class="st80" d="M71.57,285.89c0.62-1.91,2.28-6.29,2.16-8.14c-0.06-0.94-0.35-1.83-0.73-2.72l0,0
					c-0.43-1.01-1.06-2.14-1.79-3.28c-0.43-0.67-1.2-1.79-1.65-2.45c-1.46-2.15-2.61-3.57-3.32-4.24c-0.53-0.5-1.04-0.92-1.47-1.21
					c0,0,0,0,0,0c-0.64-0.42-1.12-0.59-1.36-0.69c0,0,0,0,0,0C63.41,263.16,73.52,272.28,71.57,285.89z"/>
			</g>
		</g>
		<g>
			<g>
				<path class="st78" d="M49.8,303.71c0,0,0.69,1.07,1.12,1.28c0.43,0.21,0.92,1.22,0.92,1.22l-2.74,2.01c0,0-1-2.37-2.26-3.11
					C45.59,304.36,49.8,303.71,49.8,303.71z"/>
			</g>
		</g>
		<g>
			<g>
				<g>
					<path class="st80" d="M45.65,269.49c0,0,2.24-6.45,6.9-4.43c4.47,1.94-1.56,9.8-2.1,10.77c-0.54,0.96-5.59,8.72-6.1,9.76
						c-1.61,3.31-1.07,4.94-0.52,6.53c1.84,5.32,5.42,10.29,6.3,11.14c0.87,0.86-2.69,3.94-4.1,2.97c-1.88-1.29-5.24-7.98-6.16-9.51
						c-1.13-1.86-3.98-5.22-1.96-11.05C39.26,281.75,45.65,269.49,45.65,269.49z"/>
				</g>
			</g>
		</g>
		<g>
			<g>
				<path class="st84" d="M52.56,304.23l-5.89,4.73c0,0,4.62,6.94,6.83,4.02C55.72,310.07,52.56,304.23,52.56,304.23z"/>
			</g>
		</g>
		<g>
			<path class="st80" d="M64.82,277.55L64.82,277.55c-0.97-10.37-9.26-16.64-9.26-16.64l-0.32,1.54l0,0
				c-8.53,2.41-8.74,4.31-9.13,10.02c-0.15,2.19,0.46,5.12,1.25,8.27c0.32,1.28,0.67,2.59,1.01,3.91c1.01,3.9,1.93,7.82,1.75,10.89
				c-0.39,6.67-18.2,35.99-18.2,35.99c0,6.2,15.43,15.07,15.43,15.07C46.63,338.42,66.21,285.78,64.82,277.55z"/>
		</g>
		<g>
			<g>
				<path class="st85" d="M48.37,284.65L48.37,284.65c2.66-3.12,4.22-12.25,4.22-12.25c-1.58,4.46-5.24,8.34-5.24,8.34s0,0,0,0
					C47.68,282.01,48.03,283.33,48.37,284.65z"/>
			</g>
		</g>
		<g>
			<g>
				<path class="st86" d="M63.2,335.24C63.2,335.24,63.2,335.24,63.2,335.24c0.44,1.37,0.89,2.78,1.33,4.17
					c2.14-8.26,2.51-17.46,2.51-17.46C66.39,327.08,63.2,335.24,63.2,335.24z"/>
			</g>
		</g>
		<g>
			<g>
				<path class="st76" d="M47.63,292.13l-0.55-0.9c0.08-0.05,5.96-3.75,7.07-10.41c0.81-4.83-1.15-10.11-5.6-15.54l0.94-0.65
					c4.65,5.68,6.57,11.22,5.7,16.37C53.99,288.15,47.89,291.97,47.63,292.13z M47.36,291.68l-0.28-0.45h0L47.36,291.68z"/>
			</g>
		</g>
		<g>
			<path class="st76" d="M48.55,265.28c0,0,0.28-0.41,0.94-0.65C49.5,264.64,49.37,265.26,48.55,265.28z"/>
		</g>
		<g>
			<g>
				<path class="st87" d="M62.79,240.27c0,0,6.12,4,4.13,13.66c-1.99,9.66-9.22,4.35-10,3.8c-0.79-0.55-3.21-6.6-3.31-9.23
					C53.53,246.01,52.23,236.06,62.79,240.27z"/>
			</g>
		</g>
		<g>
			<g>
				<path class="st75" d="M62.37,242.21c-0.64-0.19-2.79,3.98-3.95,5c-1.16,1.03-3.29,3.61-3.5,6.44c-0.21,2.83-2.59-6.18-1.77-9.52
					c0.83-3.34,1.93-8.24,9.39-4.36c7.46,3.89,5.53,10.83,5.53,10.83S65.6,243.16,62.37,242.21z"/>
			</g>
		</g>
		<g>
			<g>
				<path class="st87" d="M57.2,248.88c-0.2-1.14-2.72-2.11-2.68-0.39c0.04,1.72,1.43,3.7,2.22,3.58
					C57.53,251.94,57.39,249.93,57.2,248.88z"/>
			</g>
		</g>
		<g>
			<path class="st88" d="M62.82,261.11h-0.01c-4.43-0.05-5.89-3.38-5.89-3.38c3.07,2.32,5.53,1.93,5.85,1.86
				c0,0.04,0,0.08-0.01,0.12C62.75,260.41,62.76,260.51,62.82,261.11z"/>
		</g>
	</g>
</g>
</svg>
