<?xml version="1.0" encoding="utf-8"?>
<!-- Generator: Adobe Illustrator 24.1.1, SVG Export Plug-In . SVG Version: 6.00 Build 0)  -->
<svg version="1.1" id="Layer_1" xmlns="http://www.w3.org/2000/svg" xmlns:xlink="http://www.w3.org/1999/xlink" x="0px" y="0px"
	 viewBox="0 0 24 24" style="enable-background:new 0 0 24 24;" xml:space="preserve">
<style type="text/css">
	.st0{fill:#157DC3;}
</style>
<g>
	<g>
		<g>
			<circle class="st0" cx="16.7" cy="16.1" r="0.9"/>
			<path class="st0" d="M20.7,16.8c0.5,0,0.9-0.4,0.9-0.9v-3.3c0-2-1.6-3.6-3.6-3.6H17V5.9c0-2.9-2.4-5.2-5.3-5.2S6.3,3,6.3,5.9v3.1
				H5.2c-2,0-3.6,1.6-3.6,3.6v7.3c0,2,1.6,3.6,3.6,3.6H18c2,0,3.6-1.6,3.6-3.6c0-0.5-0.4-0.9-0.9-0.9c-0.5,0-0.9,0.4-0.9,0.9
				c0,1-0.8,1.8-1.8,1.8H5.2c-1,0-1.8-0.8-1.8-1.8v-7.3c0-1,0.8-1.8,1.8-1.8H18c1,0,1.8,0.8,1.8,1.8v3.3
				C19.8,16.4,20.2,16.8,20.7,16.8z M15.2,9.1H8.1V5.9c0-1.9,1.6-3.4,3.6-3.4s3.6,1.5,3.6,3.4V9.1z"/>
			<circle class="st0" cx="10" cy="16.1" r="0.9"/>
			<circle class="st0" cx="6.7" cy="16.1" r="0.9"/>
			<circle class="st0" cx="13.3" cy="16.1" r="0.9"/>
		</g>
	</g>
</g>
</svg>
