<?xml version="1.0" encoding="utf-8"?>
<!-- Generator: Adobe Illustrator 24.1.1, SVG Export Plug-In . SVG Version: 6.00 Build 0)  -->
<svg version="1.1" id="Layer_1" xmlns="http://www.w3.org/2000/svg" xmlns:xlink="http://www.w3.org/1999/xlink" x="0px" y="0px"
	 viewBox="0 0 258 258" style="enable-background:new 0 0 258 258;" xml:space="preserve">
<style type="text/css">
	.st0{fill:url(#SVGID_1_);}
	.st1{fill:#157DC3;}
	.st2{opacity:0.1;fill:#D4E1F4;}
	.st3{fill:#FFFFFF;}
</style>
<g>
	<linearGradient id="SVGID_1_" gradientUnits="userSpaceOnUse" x1="2.5" y1="129" x2="255.5" y2="129">
		<stop  offset="0" style="stop-color:#7C8897"/>
		<stop  offset="1" style="stop-color:#5C6774"/>
	</linearGradient>
	<circle class="st0" cx="129" cy="129" r="126.5"/>
	<path class="st1" d="M129,4c33.4,0,64.8,13,88.4,36.6C241,64.2,254,95.6,254,129s-13,64.8-36.6,88.4C193.8,241,162.4,254,129,254
		s-64.8-13-88.4-36.6S4,162.4,4,129s13-64.8,36.6-88.4C64.2,17,95.6,4,129,4 M129,1C58.3,1,1,58.3,1,129s57.3,128,128,128
		s128-57.3,128-128S199.7,1,129,1L129,1z"/>
</g>
<g>
	<path class="st2" d="M110.1,92.2c0-19,15.4-34.5,34.5-34.5c1.1,0,2.2,0.1,3.3,0.1c-11.6-9.1-27.6-9.8-39.9-1.9
		C95.6,64,89.6,78.9,93.1,93.1c3.5,14.3,15.6,24.8,30.2,26.2C115,112.8,110.1,102.8,110.1,92.2z"/>
	<path class="st2" d="M144.5,142.4c4.1,0,8.1,0.4,12.1,1.3c-9-5.6-19.5-8.5-30.1-8.5c-31.7,0.1-57.4,25.4-57.3,59.8l18.4,0
		C90.9,164.3,115.1,142.5,144.5,142.4z"/>
	<path class="st3" d="M126.6,123.1c21,0,38.1-17,38.1-38.1c0-21-17-38.1-38.1-38.1S88.5,64,88.5,85C88.5,106,105.6,123,126.6,123.1z
		 M126.6,54.1c17,0,30.9,13.8,30.9,30.9c0,17-13.8,30.9-30.9,30.9S95.7,102,95.7,85C95.7,68,109.5,54.2,126.6,54.1z"/>
	<path class="st3" d="M165,145.1c-0.1-0.1-0.2-0.1-0.2-0.2c-0.5-0.4-1-0.8-1.5-1.2c-0.2-0.1-0.3-0.2-0.5-0.3c-0.3-0.2-0.7-0.5-1-0.7
		c-0.2-0.2-0.5-0.3-0.7-0.5c-0.2-0.2-0.5-0.3-0.7-0.5c-0.5-0.4-1.1-0.7-1.7-1.1c-0.1-0.1-0.2-0.2-0.4-0.2c-0.4-0.2-0.8-0.5-1.2-0.7
		c0,0,0,0-0.1,0c-9.1-5.2-19.6-8.2-30.5-8.2c-33.7,0-61.2,27.5-61.2,61.2c0,2,1.6,3.6,3.6,3.6h26l0,0.1h89.3c2,0,3.6-1.6,3.6-3.6
		C187.9,173.6,179,156.4,165,145.1z M160.7,189.3L160.7,189.3l-88-0.1c0.4-6.4,2-12.4,4.4-18c0.2-0.3,0.4-0.6,0.6-0.9
		c8.9-19.1,28-31.4,49.1-31.4c4.4,0,8.7,0.5,12.9,1.5c0,0,0.1,0,0.1,0c0.2,0.1,0.5,0.1,0.7,0.2c15.3,4.1,28.4,14.8,35.2,29.6
		c0.1,0.3,0.3,0.5,0.4,0.7c2.5,5.7,4.1,11.8,4.5,18.3H160.7z"/>
</g>
</svg>
