<?xml version="1.0" encoding="utf-8"?>
<!-- Generator: Adobe Illustrator 24.1.1, SVG Export Plug-In . SVG Version: 6.00 Build 0)  -->
<svg version="1.1" id="Layer_1" xmlns="http://www.w3.org/2000/svg" xmlns:xlink="http://www.w3.org/1999/xlink" x="0px" y="0px"
	 viewBox="0 0 256 256" style="enable-background:new 0 0 256 256;" xml:space="preserve">
<style type="text/css">
	.st0{fill:#FFFFFF;}
</style>
<g>
	<g>
		<path class="st0" d="M53.44,23.75c-2.15,0-3.9,1.79-3.9,4c0,2.21,1.75,4,3.9,4h38.99c2.15,0,3.9-1.79,3.9-4c0-2.21-1.75-4-3.9-4
			H53.44z M186.01,23.75h-77.99c-2.15,0-3.9,1.79-3.9,4c0,2.21,1.75,4,3.9,4h77.99c2.15,0,3.9-1.79,3.9-4
			C189.91,25.54,188.17,23.75,186.01,23.75z M106.15,215.71H45.64c-6.46,0-11.7-5.37-11.7-12V43.75c3.36,2.62,7.48,4.02,11.7,4
			h136.48v66.34c0,2.21,1.75,4,3.9,4c2.15,0,3.9-1.79,3.9-4V43.75c0-2.21-1.75-4-3.9-4H45.64c-6.46,0-11.7-5.37-11.7-12
			c0-6.63,5.24-12,11.7-12h140.38c2.15,0,3.9-1.79,3.9-4c0-2.21-1.75-4-3.9-4H45.64c-10.77,0-19.5,8.95-19.5,20v175.96
			c0,11.04,8.73,20,19.5,20h60.52c2.15,0,3.9-1.79,3.9-4C110.05,217.5,108.31,215.71,106.15,215.71z M227.34,173.93
			c-6.23-27.08-29.8-46.2-56.92-46.2c-12.66-0.04-24.99,4.17-35.09,12c-1.72,1.33-2.07,3.83-0.78,5.6c1.29,1.77,3.74,2.12,5.46,0.8
			c8.76-6.78,19.44-10.43,30.41-10.4c28,0,50.69,23.28,50.69,51.99c0,28.71-22.7,51.99-50.69,51.99c-28,0-50.69-23.28-50.69-51.99
			c-0.01-11.21,3.55-22.12,10.14-31.07c1.32-1.77,1-4.3-0.72-5.66c-1.72-1.36-4.19-1.03-5.52,0.74
			c-16.27,22.26-15.49,53.07,1.89,74.43c17.38,21.36,46.8,27.66,71.06,15.22C220.84,228.92,233.57,201.01,227.34,173.93z
			 M155.75,216.67c1.07,0.11,2.15-0.23,2.96-0.96l43.9-45.43c0.74-0.75,1.15-1.77,1.15-2.84c0-1.07-0.42-2.09-1.15-2.84
			c-1.52-1.55-3.98-1.55-5.5,0l-41.37,42.43l-13.77-14.16c-1.53-1.57-4.01-1.57-5.54,0c-1.53,1.57-1.53,4.11,0,5.68l16.57,17.16
			C153.78,216.37,154.76,216.71,155.75,216.67z M158.72,99.73V75.74c0-2.21-1.75-4-3.9-4H69.03c-2.15,0-3.9,1.79-3.9,4v8
			c0,2.21,1.75,4,3.9,4c2.15,0,3.9-1.79,3.9-4v-4h77.99v16H69.03c-2.15,0-3.9,1.79-3.9,4c0,2.21,1.75,4,3.9,4h85.79
			C156.97,103.73,158.72,101.94,158.72,99.73z M69.03,119.73c-2.15,0-3.9,1.79-3.9,4c0,2.21,1.75,4,3.9,4h62.39
			c2.15,0,3.9-1.79,3.9-4c0-2.21-1.75-4-3.9-4H69.03z M108.03,143.72H69.03c-2.15,0-3.9,1.79-3.9,4c0,2.21,1.75,4,3.9,4h38.99
			c2.15,0,3.9-1.79,3.9-4C111.93,145.51,110.18,143.72,108.03,143.72z M92.43,175.71c2.15,0,3.9-1.79,3.9-4c0-2.21-1.75-4-3.9-4
			h-23.4c-2.15,0-3.9,1.79-3.9,4c0,2.21,1.75,4,3.9,4H92.43z"/>
	</g>
</g>
</svg>
