<?xml version="1.0" encoding="utf-8"?>
<!-- Generator: Adobe Illustrator 24.1.1, SVG Export Plug-In . SVG Version: 6.00 Build 0)  -->
<svg version="1.1" id="Layer_1" xmlns="http://www.w3.org/2000/svg" xmlns:xlink="http://www.w3.org/1999/xlink" x="0px" y="0px"
	 viewBox="0 0 256 256" style="enable-background:new 0 0 256 256;" xml:space="preserve">
<style type="text/css">
	.st0{fill:#FFFFFF;}
</style>
<path class="st0" d="M236.4,93.64l-18.81-52.75c-3.15-8.9-11.4-14.85-20.54-14.85H62.69c-9.09,0-17.39,5.95-20.54,14.85L23.6,92.93
	l-7.72,7.43c-6.73,6.01-10.61,14.69-10.61,23.92v43.03v33.75c0,12.56,9.93,22.72,21.96,22.72H41.1c12.09,0,21.96-10.16,21.96-22.72
	v-11.14h130.31v11.14c0,12.56,9.88,22.72,21.96,22.72h13.87c12.09,0,21.96-10.16,21.96-22.72V167.3v-45.05
	c0-8.57-3.47-16.82-9.41-22.72L236.4,93.64z M52.03,44.65c1.63-4.64,5.94-7.64,10.67-7.64H197.1c4.73,0,9.04,3.06,10.67,7.64
	l16.39,45.87h-12.3c-2.57-18.02-17.55-32-35.68-32s-33.1,13.98-35.68,32H35.63L52.03,44.65z M201.2,90.52h-49.97
	c2.42-12.01,12.72-21.08,25.01-21.08S198.78,78.51,201.2,90.52z M52.55,201.05c0,6.55-5.15,11.79-11.45,11.79H27.23
	c-6.25,0-11.45-5.3-11.45-11.79v-14.31c3.15,2.13,7.3,3.17,11.45,3.17h25.33V201.05z M229.21,212.84h-13.87
	c-6.31,0-11.45-5.3-11.45-11.79v-11.14h25.33c4.15,0,8.3-1.04,11.45-3.17v14.31C240.66,207.54,235.46,212.84,229.21,212.84z
	 M229.21,178.99H27.23c-6.25,0-11.45-5.13-11.45-11.69v-43.03c0-6.01,2.57-11.74,6.99-15.62c0.05-0.05,0.16-0.16,0.21-0.22l7.2-6.99
	h198.99l5.04,5.62c0.05,0.11,0.21,0.22,0.26,0.27c3.94,3.82,6.2,9.28,6.2,14.91v45.05C240.66,173.85,235.46,178.99,229.21,178.99z"
	/>
<path class="st0" d="M79.87,128.75c0-3-2.36-5.46-5.25-5.46H35.21c-2.89,0-5.25,2.46-5.25,5.46v28.4c0,3,2.36,5.46,5.25,5.46h39.41
	c2.89,0,5.25-2.46,5.25-5.46V128.75z M69.37,151.68h-28.9v-17.47h28.9V151.68z"/>
<path class="st0" d="M226.47,128.75c0-3-2.36-5.46-5.25-5.46h-39.41c-2.89,0-5.25,2.46-5.25,5.46v28.4c0,3,2.36,5.46,5.25,5.46
	h39.41c2.89,0,5.25-2.46,5.25-5.46V128.75z M215.96,151.68h-28.9v-17.47h28.9V151.68z"/>
<path class="st0" d="M153.59,146.22h-50.76c-2.89,0-5.25,2.46-5.25,5.46s2.36,5.46,5.25,5.46h50.76c2.89,0,5.25-2.46,5.25-5.46
	S156.48,146.22,153.59,146.22z"/>
<path class="st0" d="M153.59,129.29h-50.76c-2.89,0-5.25,2.46-5.25,5.46c0,3,2.36,5.46,5.25,5.46h50.76c2.89,0,5.25-2.46,5.25-5.46
	S156.48,129.29,153.59,129.29z"/>
</svg>
