<?xml version="1.0" encoding="utf-8"?>
<!-- Generator: Adobe Illustrator 24.1.1, SVG Export Plug-In . SVG Version: 6.00 Build 0)  -->
<svg version="1.1" id="Layer_1" xmlns="http://www.w3.org/2000/svg" xmlns:xlink="http://www.w3.org/1999/xlink" x="0px" y="0px"
	 viewBox="0 0 256 256" style="enable-background:new 0 0 256 256;" xml:space="preserve">
<style type="text/css">
	.st0{fill:#FFFFFF;}
</style>
<g>
	<path class="st0" d="M163.35,228.68h0.51h7.7h27.2h7.7v-7.7v-52.86v-7.7h-7.7h-27.2h-0.51h-7.7h-27.2h-7.7v7.7v52.86v7.7h7.7
		H163.35z M171.56,168.13h27.2v52.86h-27.2V168.13z M136.15,168.13h27.2v52.86h-27.2V168.13z"/>
	<path class="st0" d="M246.55,118.15l-15.78-15.78v-63h10.78V12.69h-49.78v26.69h10.78v34.77l-63.25-63.25
		c-3.08-3.08-7.31-4.62-11.55-4.62c-4.23,0-8.47,1.54-11.55,4.62L9.45,118.15c-6.16,6.16-6.16,16.94,0,23.09
		c3.08,3.08,7.31,4.62,11.55,4.62c2.17,0,4.34-0.41,6.35-1.22v105.08H60v-59.53c0-16.94,8.56-28.84,24.99-28.84
		c16.94,0,24.99,12.41,24.99,28.84v59.53h118.55V144.59c2.05,0.84,4.26,1.28,6.48,1.28c4.23,0,8.47-1.54,11.55-4.62
		C252.71,134.58,252.71,124.31,246.55,118.15z M199.46,20.39h34.38v11.29h-34.38V20.39z M210.24,78.56V40.24h12.83v50.78
		L210.24,78.56z M220.83,242.03H117.67v-51.83c0-22.19-12.83-36.53-32.68-36.53S52.3,168,52.3,190.19v51.83H35.05v-102.5
		c36.48-36.02,57.76-57.29,92.92-92.88l92.86,92.86V242.03z M241,135.91c-1.5,1.44-3.68,2.26-6,2.26c-2.38,0-4.6-0.86-6.1-2.36
		l-95.46-95.46L128,34.9l-5.44,5.44L27.1,135.8c-1.5,1.5-3.73,2.36-6.1,2.36c-2.38,0-4.6-0.86-6.1-2.36c-1.5-1.5-2.36-3.73-2.36-6.1
		c0-2.38,0.86-4.6,2.38-6.12L121.64,16.34c1.5-1.5,3.73-2.36,6.1-2.36c2.38,0,4.6,0.86,6.1,2.36L241.11,123.6
		C244.3,126.79,244.24,132.28,241,135.91z"/>
</g>
</svg>
